<?xml version="1.0" encoding="us-ascii" standalone="no"?><svg xmlns="http://www.w3.org/2000/svg" xmlns:xlink="http://www.w3.org/1999/xlink" contentStyleType="text/css" height="238px" preserveAspectRatio="none" style="width:144px;height:238px;background:#FFFFFF;" version="1.1" viewBox="0 0 144 238" width="144px" zoomAndPan="magnify"><defs/><g><ellipse cx="72" cy="16" fill="#222222" rx="10" ry="10" style="stroke:#222222;stroke-width:1.0;"/><g id="State1"><rect fill="#F1F1F1" height="64.2344" rx="12.5" ry="12.5" style="stroke:#181818;stroke-width:0.5;" width="130" x="7" y="86"/><line style="stroke:#181818;stroke-width:0.5;" x1="7" x2="137" y1="112.2969" y2="112.2969"/><text fill="#000000" font-family="sans-serif" font-size="14" lengthAdjust="spacing" textLength="45" x="49.5" y="103.9951">State1</text><text fill="#000000" font-family="sans-serif" font-size="12" lengthAdjust="spacing" textLength="92" x="12" y="128.4355">entry/initBoard</text><text fill="#000000" font-family="sans-serif" font-size="12" lengthAdjust="spacing" textLength="110" x="12" y="142.4043">exit/destroyBoard</text></g><ellipse cx="72" cy="221" fill="none" rx="11" ry="11" style="stroke:#222222;stroke-width:1.0;"/><ellipse cx="72" cy="221" fill="#222222" rx="6" ry="6" style="stroke:#222222;stroke-width:1.0;"/><!--link *start* to State1--><g id="link_*start*_State1"><path d="M72,26.23 C72,39.67 72,59.28 72,79.87 " fill="none" id="*start*-to-State1" style="stroke:#181818;stroke-width:1.0;"/><polygon fill="#181818" points="72,85.87,76,76.87,72,80.87,68,76.87,72,85.87" style="stroke:#181818;stroke-width:1.0;"/></g><!--link State1 to *end*--><g id="link_State1_*end*"><path d="M72,150.13 C72,170.53 72,189.9 72,203.77 " fill="none" id="State1-to-*end*" style="stroke:#181818;stroke-width:1.0;"/><polygon fill="#181818" points="72,209.77,76,200.77,72,204.77,68,200.77,72,209.77" style="stroke:#181818;stroke-width:1.0;"/></g><!--SRC=[YzQALT3LjLC8BaaiIJNaWb1WaMYjM1ZNIY4rhwIeKZypBxF4AJ-nA0L9eYApH3ybjRYaAByIB0K0]--></g></svg>