<?xml version="1.0" encoding="us-ascii" standalone="no"?><svg xmlns="http://www.w3.org/2000/svg" xmlns:xlink="http://www.w3.org/1999/xlink" contentStyleType="text/css" height="413px" preserveAspectRatio="none" style="width:720px;height:413px;background:#FFFFFF;" version="1.1" viewBox="0 0 720 413" width="720px" zoomAndPan="magnify"><defs/><g><ellipse cx="310.5" cy="16" fill="#222222" rx="10" ry="10" style="stroke:#222222;stroke-width:1.0;"/><g id="MainMenu"><rect fill="#F1F1F1" height="50" rx="12.5" ry="12.5" style="stroke:#181818;stroke-width:0.5;" width="91" x="265" y="103"/><line style="stroke:#181818;stroke-width:0.5;" x1="265" x2="356" y1="129.2969" y2="129.2969"/><text fill="#000000" font-family="sans-serif" font-size="14" lengthAdjust="spacing" textLength="71" x="275" y="120.9951">MainMenu</text></g><g id="SelectCharacter"><rect fill="#F1F1F1" height="50" rx="12.5" ry="12.5" style="stroke:#181818;stroke-width:0.5;" width="130" x="245.5" y="230"/><line style="stroke:#181818;stroke-width:0.5;" x1="245.5" x2="375.5" y1="256.2969" y2="256.2969"/><text fill="#000000" font-family="sans-serif" font-size="14" lengthAdjust="spacing" textLength="110" x="255.5" y="247.9951">SelectCharacter</text></g><g id="LoadGame"><rect fill="#F1F1F1" height="50" rx="12.5" ry="12.5" style="stroke:#181818;stroke-width:0.5;" width="94" x="101.5" y="230"/><line style="stroke:#181818;stroke-width:0.5;" x1="101.5" x2="195.5" y1="256.2969" y2="256.2969"/><text fill="#000000" font-family="sans-serif" font-size="14" lengthAdjust="spacing" textLength="74" x="111.5" y="247.9951">LoadGame</text></g><g id="QuitGame"><rect fill="#F1F1F1" height="50" rx="12.5" ry="12.5" style="stroke:#181818;stroke-width:0.5;" width="89" x="590" y="230"/><line style="stroke:#181818;stroke-width:0.5;" x1="590" x2="679" y1="256.2969" y2="256.2969"/><text fill="#000000" font-family="sans-serif" font-size="14" lengthAdjust="spacing" textLength="69" x="600" y="247.9951">QuitGame</text></g><g id="CreateCharacter"><rect fill="#F1F1F1" height="50" rx="12.5" ry="12.5" style="stroke:#181818;stroke-width:0.5;" width="133" x="7" y="357"/><line style="stroke:#181818;stroke-width:0.5;" x1="7" x2="140" y1="383.2969" y2="383.2969"/><text fill="#000000" font-family="sans-serif" font-size="14" lengthAdjust="spacing" textLength="113" x="17" y="374.9951">CreateCharacter</text></g><g id="LoadCharacter"><rect fill="#F1F1F1" height="50" rx="12.5" ry="12.5" style="stroke:#181818;stroke-width:0.5;" width="120" x="390.5" y="357"/><line style="stroke:#181818;stroke-width:0.5;" x1="390.5" x2="510.5" y1="383.2969" y2="383.2969"/><text fill="#000000" font-family="sans-serif" font-size="14" lengthAdjust="spacing" textLength="100" x="400.5" y="374.9951">LoadCharacter</text></g><ellipse cx="634.5" cy="382" fill="none" rx="11" ry="11" style="stroke:#222222;stroke-width:1.0;"/><ellipse cx="634.5" cy="382" fill="#222222" rx="6" ry="6" style="stroke:#222222;stroke-width:1.0;"/><!--link *start* to MainMenu--><g id="link_*start*_MainMenu"><path d="M310.5,26 C310.5,42.63 310.5,72.66 310.5,96.87 " fill="none" id="*start*-to-MainMenu" style="stroke:#181818;stroke-width:1.0;"/><polygon fill="#181818" points="310.5,102.87,314.5,93.87,310.5,97.87,306.5,93.87,310.5,102.87" style="stroke:#181818;stroke-width:1.0;"/><text fill="#000000" font-family="sans-serif" font-size="13" lengthAdjust="spacing" textLength="32" x="311.5" y="69.0669">Start</text></g><!--link MainMenu to SelectCharacter--><g id="link_MainMenu_SelectCharacter"><path d="M329.75,153.13 C335.69,162 341.46,172.46 344.5,183 C349.2,199.28 344.8036,211.5296 335.4736,224.8996 " fill="none" id="MainMenu-to-SelectCharacter" style="stroke:#181818;stroke-width:1.0;"/><polygon fill="#181818" points="332.04,229.82,340.4707,224.7285,334.9013,225.7197,333.9101,220.1503,332.04,229.82" style="stroke:#181818;stroke-width:1.0;"/><text fill="#000000" font-family="sans-serif" font-size="13" lengthAdjust="spacing" textLength="70" x="347.5" y="196.0669">New Game</text></g><!--link SelectCharacter to MainMenu--><g id="link_SelectCharacter_MainMenu"><path d="M306.7,229.87 C305.41,220.56 304.13,209.81 303.5,200 C302.49,184.43 303.316,172.9189 305.286,159.2189 " fill="none" id="SelectCharacter-to-MainMenu" style="stroke:#181818;stroke-width:1.0;"/><polygon fill="#181818" points="306.14,153.28,300.8997,161.619,305.4283,158.2291,308.8183,162.7577,306.14,153.28" style="stroke:#181818;stroke-width:1.0;"/><text fill="#000000" font-family="sans-serif" font-size="13" lengthAdjust="spacing" textLength="31" x="304.5" y="196.0669">Back</text></g><!--link MainMenu to LoadGame--><g id="link_MainMenu_LoadGame"><path d="M264.61,153.23 C249.71,161.88 233.43,172.18 219.5,183 C201.47,197.01 187.3804,210.8711 173.9304,225.3711 " fill="none" id="MainMenu-to-LoadGame" style="stroke:#181818;stroke-width:1.0;"/><polygon fill="#181818" points="169.85,229.77,178.9032,225.8919,173.2503,226.1042,173.038,220.4514,169.85,229.77" style="stroke:#181818;stroke-width:1.0;"/><text fill="#000000" font-family="sans-serif" font-size="13" lengthAdjust="spacing" textLength="74" x="220.5" y="196.0669">Load Game</text></g><!--link LoadGame to MainMenu--><g id="link_LoadGame_MainMenu"><path d="M146.76,229.75 C146.97,214.7 149.76,195.85 160.5,183 C186.24,152.21 225.0327,139.9726 258.9527,134.2826 " fill="none" id="LoadGame-to-MainMenu" style="stroke:#181818;stroke-width:1.0;"/><polygon fill="#181818" points="264.87,133.29,255.3323,130.834,259.9389,134.1172,256.6558,138.7238,264.87,133.29" style="stroke:#181818;stroke-width:1.0;"/><text fill="#000000" font-family="sans-serif" font-size="13" lengthAdjust="spacing" textLength="31" x="161.5" y="196.0669">Back</text></g><!--link MainMenu to QuitGame--><g id="link_MainMenu_QuitGame"><path d="M356,133.51 C404.64,139.66 483.04,153.51 544.5,183 C569.08,194.79 588.7019,210.2513 605.7419,225.8313 " fill="none" id="MainMenu-to-QuitGame" style="stroke:#181818;stroke-width:1.0;"/><polygon fill="#181818" points="610.17,229.88,606.227,220.8549,606.4799,226.5061,600.8287,226.759,610.17,229.88" style="stroke:#181818;stroke-width:1.0;"/><text fill="#000000" font-family="sans-serif" font-size="13" lengthAdjust="spacing" textLength="26" x="572.5" y="196.0669">Quit</text></g><!--link SelectCharacter to CreateCharacter--><g id="link_SelectCharacter_CreateCharacter"><path d="M245.47,272.24 C234.48,274.89 223.17,277.57 212.5,280 C149.61,294.34 111.12,259.9 70.5,310 C60.09,322.84 60.0005,335.8555 63.6105,350.9055 " fill="none" id="SelectCharacter-to-CreateCharacter" style="stroke:#181818;stroke-width:1.0;"/><polygon fill="#181818" points="65.01,356.74,66.8004,347.0552,63.8437,351.8779,59.0211,348.9213,65.01,356.74" style="stroke:#181818;stroke-width:1.0;"/><text fill="#000000" font-family="sans-serif" font-size="13" lengthAdjust="spacing" textLength="110" x="71.5" y="323.0669">Create Character</text></g><!--link CreateCharacter to SelectCharacter--><g id="link_CreateCharacter_SelectCharacter"><path d="M125.94,356.93 C145.14,347.86 166.95,337.25 186.5,327 C214.84,312.14 240.9364,297.2687 264.9764,283.1487 " fill="none" id="CreateCharacter-to-SelectCharacter" style="stroke:#181818;stroke-width:1.0;"/><polygon fill="#181818" points="270.15,280.11,260.3638,281.219,265.8387,282.6423,264.4154,288.1172,270.15,280.11" style="stroke:#181818;stroke-width:1.0;"/><text fill="#000000" font-family="sans-serif" font-size="13" lengthAdjust="spacing" textLength="43" x="219.5" y="323.0669">Cancel</text></g><!--link SelectCharacter to LoadCharacter--><g id="link_SelectCharacter_LoadCharacter"><path d="M302.63,280.07 C299.34,294.87 298.17,313.5 307.5,327 C326.14,353.96 354.2159,366.1551 384.3559,372.9251 " fill="none" id="SelectCharacter-to-LoadCharacter" style="stroke:#181818;stroke-width:1.0;"/><polygon fill="#181818" points="390.21,374.24,382.3054,368.3648,385.3316,373.1442,380.5522,376.1703,390.21,374.24" style="stroke:#181818;stroke-width:1.0;"/><text fill="#000000" font-family="sans-serif" font-size="13" lengthAdjust="spacing" textLength="98" x="308.5" y="323.0669">Load Character</text></g><!--link LoadCharacter to SelectCharacter--><g id="link_LoadCharacter_SelectCharacter"><path d="M441.35,356.69 C434.81,341.8 424.8,323.15 411.5,310 C399.41,298.05 389.4233,290.875 374.4333,282.875 " fill="none" id="LoadCharacter-to-SelectCharacter" style="stroke:#181818;stroke-width:1.0;"/><polygon fill="#181818" points="369.14,280.05,375.1967,287.8164,373.5511,282.4042,378.9633,280.7586,369.14,280.05" style="stroke:#181818;stroke-width:1.0;"/><text fill="#000000" font-family="sans-serif" font-size="13" lengthAdjust="spacing" textLength="43" x="425.5" y="323.0669">Cancel</text></g><!--link CreateCharacter to MainMenu--><g id="link_CreateCharacter_MainMenu"><path d="M59.8,356.81 C43.94,325.24 22.93,269.38 47.5,230 C93.58,156.13 196.7518,136.671 258.9918,131.351 " fill="none" id="CreateCharacter-to-MainMenu" style="stroke:#181818;stroke-width:1.0;"/><polygon fill="#181818" points="264.97,130.84,255.662,127.621,259.9882,131.2658,256.3434,135.592,264.97,130.84" style="stroke:#181818;stroke-width:1.0;"/><text fill="#000000" font-family="sans-serif" font-size="13" lengthAdjust="spacing" textLength="34" x="48.5" y="259.5669">Done</text></g><!--link LoadCharacter to MainMenu--><g id="link_LoadCharacter_MainMenu"><path d="M465.53,356.91 C470.35,347.88 475.07,337.3 477.5,327 C493.1,260.92 473.2,232.28 426.5,183 C407.55,163.01 385.4044,151.7168 361.7644,143.3268 " fill="none" id="LoadCharacter-to-MainMenu" style="stroke:#181818;stroke-width:1.0;"/><polygon fill="#181818" points="356.11,141.32,363.2538,148.0998,360.822,142.9923,365.9295,140.5606,356.11,141.32" style="stroke:#181818;stroke-width:1.0;"/><text fill="#000000" font-family="sans-serif" font-size="13" lengthAdjust="spacing" textLength="34" x="483.5" y="259.5669">Done</text></g><!--link QuitGame to *end*--><g id="link_QuitGame_*end*"><path d="M634.5,280.1 C634.5,307.63 634.5,345.38 634.5,364.96 " fill="none" id="QuitGame-to-*end*" style="stroke:#181818;stroke-width:1.0;"/><polygon fill="#181818" points="634.5,370.96,638.5,361.96,634.5,365.96,630.5,361.96,634.5,370.96" style="stroke:#181818;stroke-width:1.0;"/><text fill="#000000" font-family="sans-serif" font-size="13" lengthAdjust="spacing" textLength="77" x="635.5" y="323.0669">Confirm Exit</text></g><!--SRC=[VP712i8m38RlUOgSXRs01mzMyU84sN5u23LYSUkWTEZZsqmfNLTs2t- -Fqd_jfiRLjKEQpAsPZlY5XjFpaCKfDjmnzgh9pdIdbs0Blp64_Kyvyu3tKKDW9G5uZeQ_oUa1CX72wGSa-TqtK_1A1LjiZ8rJIUiMv9dxqc_0FBL6NGOB1UPPKAAhEOEO7vLQTwIM9ysvLUyFgOhtJPyRJ0Ezc5SZyTFIFiB]--></g></svg>