<?xml version="1.0" encoding="us-ascii" standalone="no"?><svg xmlns="http://www.w3.org/2000/svg" xmlns:xlink="http://www.w3.org/1999/xlink" contentStyleType="text/css" height="242px" preserveAspectRatio="none" style="width:196px;height:242px;background:#FFFFFF;" version="1.1" viewBox="0 0 196 242" width="196px" zoomAndPan="magnify"><defs/><g><ellipse cx="98" cy="20" fill="#222222" rx="10" ry="10" style="stroke:#222222;stroke-width:1.0;"/><rect fill="#F1F1F1" height="33.9688" rx="12.5" ry="12.5" style="stroke:#181818;stroke-width:0.5;" width="98" x="49" y="50"/><text fill="#000000" font-family="sans-serif" font-size="12" lengthAdjust="spacing" textLength="78" x="59" y="71.1387">Start Activity</text><rect fill="#555555" height="6" rx="2.5" ry="2.5" style="stroke:#555555;stroke-width:1.0;" width="174" x="11" y="103.9688"/><rect fill="#F1F1F1" height="33.9688" rx="12.5" ry="12.5" style="stroke:#181818;stroke-width:0.5;" width="61" x="23" y="129.9688"/><text fill="#000000" font-family="sans-serif" font-size="12" lengthAdjust="spacing" textLength="41" x="33" y="151.1074">Path 1</text><rect fill="#F1F1F1" height="33.9688" rx="12.5" ry="12.5" style="stroke:#181818;stroke-width:0.5;" width="61" x="112" y="129.9688"/><text fill="#000000" font-family="sans-serif" font-size="12" lengthAdjust="spacing" textLength="41" x="122" y="151.1074">Path 2</text><rect fill="#555555" height="6" rx="2.5" ry="2.5" style="stroke:#555555;stroke-width:1.0;" width="174" x="11" y="183.9375"/><ellipse cx="98" cy="220.9375" fill="none" rx="11" ry="11" style="stroke:#222222;stroke-width:1.0;"/><ellipse cx="98" cy="220.9375" fill="#222222" rx="6" ry="6" style="stroke:#222222;stroke-width:1.0;"/><line style="stroke:#181818;stroke-width:1.0;" x1="98" x2="98" y1="30" y2="50"/><polygon fill="#181818" points="94,40,98,50,102,40,98,44" style="stroke:#181818;stroke-width:1.0;"/><line style="stroke:#181818;stroke-width:1.0;" x1="53.5" x2="53.5" y1="109.9688" y2="129.9688"/><polygon fill="#181818" points="49.5,119.9688,53.5,129.9688,57.5,119.9688,53.5,123.9688" style="stroke:#181818;stroke-width:1.0;"/><line style="stroke:#181818;stroke-width:1.0;" x1="142.5" x2="142.5" y1="109.9688" y2="129.9688"/><polygon fill="#181818" points="138.5,119.9688,142.5,129.9688,146.5,119.9688,142.5,123.9688" style="stroke:#181818;stroke-width:1.0;"/><line style="stroke:#181818;stroke-width:1.0;" x1="53.5" x2="53.5" y1="163.9375" y2="183.9375"/><polygon fill="#181818" points="49.5,173.9375,53.5,183.9375,57.5,173.9375,53.5,177.9375" style="stroke:#181818;stroke-width:1.0;"/><line style="stroke:#181818;stroke-width:1.0;" x1="142.5" x2="142.5" y1="163.9375" y2="183.9375"/><polygon fill="#181818" points="138.5,173.9375,142.5,183.9375,146.5,173.9375,142.5,177.9375" style="stroke:#181818;stroke-width:1.0;"/><line style="stroke:#181818;stroke-width:1.0;" x1="98" x2="98" y1="83.9688" y2="103.9688"/><polygon fill="#181818" points="94,93.9688,98,103.9688,102,93.9688,98,97.9688" style="stroke:#181818;stroke-width:1.0;"/><line style="stroke:#181818;stroke-width:1.0;" x1="98" x2="98" y1="189.9375" y2="209.9375"/><polygon fill="#181818" points="94,199.9375,98,209.9375,102,199.9375,98,203.9375" style="stroke:#181818;stroke-width:1.0;"/><!--SRC=[Aov9B2hXiWe6KGgEoIMPPPabbTPSQVb5sLmA2bO1YIKP2eOGla9YUc9c7bpK22gQcfV2LLoINm00]--></g></svg>