<?xml version="1.0" encoding="us-ascii" standalone="no"?><svg xmlns="http://www.w3.org/2000/svg" xmlns:xlink="http://www.w3.org/1999/xlink" contentStyleType="text/css" height="200px" preserveAspectRatio="none" style="width:209px;height:200px;background:#FFFFFF;" version="1.1" viewBox="0 0 209 200" width="209px" zoomAndPan="magnify"><defs/><g><ellipse cx="103.25" cy="20" fill="#222222" rx="10" ry="10" style="stroke:#222222;stroke-width:1.0;"/><polygon fill="#F1F1F1" points="76.75,50,129.75,50,141.75,62,129.75,74,76.75,74,64.75,62,76.75,50" style="stroke:#181818;stroke-width:0.5;"/><text fill="#000000" font-family="sans-serif" font-size="11" lengthAdjust="spacing" textLength="53" x="76.75" y="65.8081">Condition</text><text fill="#000000" font-family="sans-serif" font-size="11" lengthAdjust="spacing" textLength="26" x="38.75" y="59.4058">True</text><text fill="#000000" font-family="sans-serif" font-size="11" lengthAdjust="spacing" textLength="30" x="141.75" y="59.4058">False</text><rect fill="#F1F1F1" height="33.9688" rx="12.5" ry="12.5" style="stroke:#181818;stroke-width:0.5;" width="81" x="11" y="84"/><text fill="#000000" font-family="sans-serif" font-size="12" lengthAdjust="spacing" textLength="61" x="21" y="105.1387">True Path</text><rect fill="#F1F1F1" height="33.9688" rx="12.5" ry="12.5" style="stroke:#181818;stroke-width:0.5;" width="86" x="112" y="84"/><text fill="#000000" font-family="sans-serif" font-size="12" lengthAdjust="spacing" textLength="66" x="122" y="105.1387">False Path</text><polygon fill="#F1F1F1" points="103.25,123.9688,115.25,135.9688,103.25,147.9688,91.25,135.9688,103.25,123.9688" style="stroke:#181818;stroke-width:0.5;"/><ellipse cx="103.25" cy="178.9688" fill="none" rx="11" ry="11" style="stroke:#222222;stroke-width:1.0;"/><ellipse cx="103.25" cy="178.9688" fill="#222222" rx="6" ry="6" style="stroke:#222222;stroke-width:1.0;"/><line style="stroke:#181818;stroke-width:1.0;" x1="64.75" x2="51.5" y1="62" y2="62"/><line style="stroke:#181818;stroke-width:1.0;" x1="51.5" x2="51.5" y1="62" y2="84"/><polygon fill="#181818" points="47.5,74,51.5,84,55.5,74,51.5,78" style="stroke:#181818;stroke-width:1.0;"/><line style="stroke:#181818;stroke-width:1.0;" x1="141.75" x2="155" y1="62" y2="62"/><line style="stroke:#181818;stroke-width:1.0;" x1="155" x2="155" y1="62" y2="84"/><polygon fill="#181818" points="151,74,155,84,159,74,155,78" style="stroke:#181818;stroke-width:1.0;"/><line style="stroke:#181818;stroke-width:1.0;" x1="51.5" x2="51.5" y1="117.9688" y2="135.9688"/><line style="stroke:#181818;stroke-width:1.0;" x1="51.5" x2="91.25" y1="135.9688" y2="135.9688"/><polygon fill="#181818" points="81.25,131.9688,91.25,135.9688,81.25,139.9688,85.25,135.9688" style="stroke:#181818;stroke-width:1.0;"/><line style="stroke:#181818;stroke-width:1.0;" x1="155" x2="155" y1="117.9688" y2="135.9688"/><line style="stroke:#181818;stroke-width:1.0;" x1="155" x2="115.25" y1="135.9688" y2="135.9688"/><polygon fill="#181818" points="125.25,131.9688,115.25,135.9688,125.25,139.9688,121.25,135.9688" style="stroke:#181818;stroke-width:1.0;"/><line style="stroke:#181818;stroke-width:1.0;" x1="103.25" x2="103.25" y1="30" y2="50"/><polygon fill="#181818" points="99.25,40,103.25,50,107.25,40,103.25,44" style="stroke:#181818;stroke-width:1.0;"/><line style="stroke:#181818;stroke-width:1.0;" x1="103.25" x2="103.25" y1="147.9688" y2="167.9688"/><polygon fill="#181818" points="99.25,157.9688,103.25,167.9688,107.25,157.9688,103.25,161.9688" style="stroke:#181818;stroke-width:1.0;"/><!--SRC=[Aov9B2hXoanJq73Epql9BCdCpzDKACb8pLFG22agJTNaKb2m0Z4K0X9BCgovKdEAKnKqt1A155WAp8B90VMdSHMNv1S00000]--></g></svg>