<?xml version="1.0" encoding="us-ascii" standalone="no"?><svg xmlns="http://www.w3.org/2000/svg" xmlns:xlink="http://www.w3.org/1999/xlink" contentStyleType="text/css" height="269px" preserveAspectRatio="none" style="width:227px;height:269px;background:#FFFFFF;" version="1.1" viewBox="0 0 227 269" width="227px" zoomAndPan="magnify"><defs/><g><ellipse cx="71.2563" cy="16" fill="#222222" rx="10" ry="10" style="stroke:#222222;stroke-width:1.0;"/><rect fill="#F1F1F1" height="33.9688" rx="12.5" ry="12.5" style="stroke:#181818;stroke-width:0.5;" width="51" x="45.7563" y="67"/><text fill="#000000" font-family="sans-serif" font-size="12" lengthAdjust="spacing" textLength="31" x="55.7563" y="88.1387">Start</text><g id="elem_#5"><polygon fill="#F1F1F1" points="71.2563,147,83.2563,159,71.2563,171,59.2563,159,71.2563,147" style="stroke:#181818;stroke-width:0.5;"/></g><rect fill="#F1F1F1" height="33.9688" rx="12.5" ry="12.5" style="stroke:#181818;stroke-width:0.5;" width="81" x="30.7563" y="230"/><text fill="#000000" font-family="sans-serif" font-size="12" lengthAdjust="spacing" textLength="61" x="40.7563" y="251.1387">True Path</text><rect fill="#F1F1F1" height="33.9688" rx="12.5" ry="12.5" style="stroke:#181818;stroke-width:0.5;" width="86" x="135.2563" y="142"/><text fill="#000000" font-family="sans-serif" font-size="12" lengthAdjust="spacing" textLength="66" x="145.2563" y="163.1387">False Path</text><!--link start to Start--><g id="link_start_Start"><path d="M71.2563,26.18 C71.2563,36.66 71.2563,48.02 71.2563,60.79 " fill="none" id="start-to-Start" style="stroke:#181818;stroke-width:1.0;"/><polygon fill="#181818" points="71.2563,66.79,75.2563,57.79,71.2563,61.79,67.2563,57.79,71.2563,66.79" style="stroke:#181818;stroke-width:1.0;"/></g><!--link Start to #5--><g id="link_Start_#5"><path d="M71.2563,101.2 C71.2563,114.98 71.2563,128.41 71.2563,140.6 " fill="none" id="Start-to-#5" style="stroke:#181818;stroke-width:1.0;"/><polygon fill="#181818" points="71.2563,146.6,75.2563,137.6,71.2563,141.6,67.2563,137.6,71.2563,146.6" style="stroke:#181818;stroke-width:1.0;"/><text fill="#000000" font-family="sans-serif" font-size="11" lengthAdjust="spacing" textLength="53" x="6" y="136.4865">Condition</text></g><!--link #5 to True Path--><g id="link_#5_True Path"><path d="M71.2563,171.24 C71.2563,186.18 71.2563,206.66 71.2563,223.76 " fill="none" id="#5-to-True Path" style="stroke:#181818;stroke-width:1.0;"/><polygon fill="#181818" points="71.2563,229.76,75.2563,220.76,71.2563,224.76,67.2563,220.76,71.2563,229.76" style="stroke:#181818;stroke-width:1.0;"/><text fill="#000000" font-family="sans-serif" font-size="11" lengthAdjust="spacing" textLength="26" x="72.2563" y="207.2104">True</text></g><!--link #5 to False Path--><g id="link_#5_False Path"><path d="M83.5263,159 C96.1563,159 110.5563,159 129.1963,159 " fill="none" id="#5-to-False Path" style="stroke:#181818;stroke-width:1.0;"/><polygon fill="#181818" points="135.1963,159,126.1962,155,130.1963,159,126.1962,163,135.1963,159" style="stroke:#181818;stroke-width:1.0;"/><text fill="#000000" font-family="sans-serif" font-size="11" lengthAdjust="spacing" textLength="30" x="94.2563" y="153.2104">False</text></g><!--SRC=[qz3ILD3LjLDG2Yv9B2fHuifCKr1opizBoIp9pCzJKYZ9ICtZ0if7XnILfiOgA84eXO34aWmbhjISubGke8nR8f01b0BJC3cW0Ma0]--></g></svg>