<?xml version="1.0" encoding="us-ascii" standalone="no"?><svg xmlns="http://www.w3.org/2000/svg" xmlns:xlink="http://www.w3.org/1999/xlink" contentStyleType="text/css" height="190px" preserveAspectRatio="none" style="width:185px;height:190px;background:#FFFFFF;" version="1.1" viewBox="0 0 185 190" width="185px" zoomAndPan="magnify"><defs/><g><ellipse cx="16" cy="32" fill="#222222" rx="10" ry="10" style="stroke:#222222;stroke-width:1.0;"/><g id="State1"><rect fill="#F1F1F1" height="50" rx="12.5" ry="12.5" style="stroke:#181818;stroke-width:0.5;" width="65" x="61.5" y="7"/><line style="stroke:#181818;stroke-width:0.5;" x1="61.5" x2="126.5" y1="33.2969" y2="33.2969"/><text fill="#000000" font-family="sans-serif" font-size="14" lengthAdjust="spacing" textLength="45" x="71.5" y="24.9951">State1</text></g><g id="State2"><rect fill="#F1F1F1" height="50" rx="12.5" ry="12.5" style="stroke:#181818;stroke-width:0.5;" width="65" x="61.5" y="134"/><line style="stroke:#181818;stroke-width:0.5;" x1="61.5" x2="126.5" y1="160.2969" y2="160.2969"/><text fill="#000000" font-family="sans-serif" font-size="14" lengthAdjust="spacing" textLength="45" x="71.5" y="151.9951">State2</text></g><!--link *start* to State1--><g id="link_*start*_State1"><path d="M26.05,32 C37.82,32 43.59,32 55.35,32 " fill="none" id="*start*-to-State1" style="stroke:#181818;stroke-width:1.0;"/><polygon fill="#181818" points="61.35,32,52.35,28,56.35,32,52.35,36,61.35,32" style="stroke:#181818;stroke-width:1.0;"/></g><!--link State1 to State2--><g id="link_State1_State2"><path d="M94,57.1 C94,79.24 94,105.86 94,127.97 " fill="none" id="State1-to-State2" style="stroke:#181818;stroke-width:1.0;"/><polygon fill="#181818" points="94,133.97,98,124.97,94,128.97,90,124.97,94,133.97" style="stroke:#181818;stroke-width:1.0;"/><text fill="#000000" font-family="sans-serif" font-size="13" lengthAdjust="spacing" textLength="82" x="95" y="100.0669">SomeTrigger</text></g><!--SRC=[YzQALT2rKmWkIIn9DUI2K0gwC14Z1Ik5uFpSr92YpFJqr280]--></g></svg>