<?xml version="1.0" encoding="us-ascii" standalone="no"?><svg xmlns="http://www.w3.org/2000/svg" xmlns:xlink="http://www.w3.org/1999/xlink" contentStyleType="text/css" height="117px" preserveAspectRatio="none" style="width:150px;height:117px;background:#FFFFFF;" version="1.1" viewBox="0 0 150 117" width="150px" zoomAndPan="magnify"><defs/><g><!--class Patriarch--><g id="elem_Patriarch"><rect codeLine="2" fill="#F1F1F1" height="96.8906" id="Patriarch" rx="2.5" ry="2.5" style="stroke:#181818;stroke-width:0.5;" width="129" x="7" y="7"/><ellipse cx="38.65" cy="23" fill="#ADD1B2" rx="11" ry="11" style="stroke:#181818;stroke-width:1.0;"/><path d="M41.6188,28.6406 Q41.0406,28.9375 40.4,29.0781 Q39.7594,29.2344 39.0563,29.2344 Q36.5563,29.2344 35.2281,27.5938 Q33.9156,25.9375 33.9156,22.8125 Q33.9156,19.6875 35.2281,18.0313 Q36.5563,16.375 39.0563,16.375 Q39.7594,16.375 40.4,16.5313 Q41.0563,16.6875 41.6188,16.9844 L41.6188,19.7031 Q40.9938,19.125 40.4,18.8594 Q39.8063,18.5781 39.1813,18.5781 Q37.8375,18.5781 37.15,19.6563 Q36.4625,20.7188 36.4625,22.8125 Q36.4625,24.9063 37.15,25.9844 Q37.8375,27.0469 39.1813,27.0469 Q39.8063,27.0469 40.4,26.7813 Q40.9938,26.5 41.6188,25.9219 L41.6188,28.6406 Z " fill="#000000"/><text fill="#000000" font-family="sans-serif" font-size="14" lengthAdjust="spacing" textLength="60" x="56.35" y="27.8467">Patriarch</text><line style="stroke:#181818;stroke-width:0.5;" x1="8" x2="135" y1="39" y2="39"/><text fill="#000000" font-family="sans-serif" font-size="14" lengthAdjust="spacing" textLength="88" x="13" y="55.9951">name: String</text><text fill="#000000" font-family="sans-serif" font-size="14" lengthAdjust="spacing" text-decoration="underline" textLength="68" x="13" y="72.292">clanName</text><text fill="#000000" font-family="sans-serif" font-size="14" lengthAdjust="spacing" textLength="49" x="81" y="72.292">: String</text><text fill="#000000" font-family="sans-serif" font-size="14" lengthAdjust="spacing" textLength="52" x="13" y="88.5889">age: int</text><line style="stroke:#181818;stroke-width:0.5;" x1="8" x2="135" y1="95.8906" y2="95.8906"/></g><!--SRC=[Iyv9B2vM24WiASfCB4hEKAZcKb38IynDjL881WhbfGEvDgLsoJc9UNv0KHlzKZiacSHqeBhCl1AkMYu0]--></g></svg>