<?xml version="1.0" encoding="us-ascii" standalone="no"?><svg xmlns="http://www.w3.org/2000/svg" xmlns:xlink="http://www.w3.org/1999/xlink" contentStyleType="text/css" height="110px" preserveAspectRatio="none" style="width:306px;height:110px;background:#FFFFFF;" version="1.1" viewBox="0 0 306 110" width="306px" zoomAndPan="magnify"><defs/><g><!--class Agent--><g id="elem_Agent"><rect codeLine="1" fill="#F1F1F1" height="96.8906" id="Agent" rx="2.5" ry="2.5" style="stroke:#181818;stroke-width:0.5;" width="142" x="7" y="7"/><ellipse cx="53.25" cy="23" fill="#ADD1B2" rx="11" ry="11" style="stroke:#181818;stroke-width:1.0;"/><path d="M56.2188,28.6406 Q55.6406,28.9375 55,29.0781 Q54.3594,29.2344 53.6563,29.2344 Q51.1563,29.2344 49.8281,27.5938 Q48.5156,25.9375 48.5156,22.8125 Q48.5156,19.6875 49.8281,18.0313 Q51.1563,16.375 53.6563,16.375 Q54.3594,16.375 55,16.5313 Q55.6563,16.6875 56.2188,16.9844 L56.2188,19.7031 Q55.5938,19.125 55,18.8594 Q54.4063,18.5781 53.7813,18.5781 Q52.4375,18.5781 51.75,19.6563 Q51.0625,20.7188 51.0625,22.8125 Q51.0625,24.9063 51.75,25.9844 Q52.4375,27.0469 53.7813,27.0469 Q54.4063,27.0469 55,26.7813 Q55.5938,26.5 56.2188,25.9219 L56.2188,28.6406 Z " fill="#000000"/><text fill="#000000" font-family="sans-serif" font-size="14" lengthAdjust="spacing" textLength="41" x="73.75" y="27.8467">Agent</text><line style="stroke:#181818;stroke-width:0.5;" x1="8" x2="148" y1="39" y2="39"/><text fill="#000000" font-family="sans-serif" font-size="14" lengthAdjust="spacing" textLength="88" x="13" y="55.9951">name: String</text><text fill="#000000" font-family="sans-serif" font-size="14" lengthAdjust="spacing" textLength="52" x="13" y="72.292">age: int</text><text fill="#000000" font-family="sans-serif" font-size="14" lengthAdjust="spacing" text-decoration="underline" textLength="81" x="13" y="88.5889">secretCode</text><text fill="#000000" font-family="sans-serif" font-size="14" lengthAdjust="spacing" textLength="49" x="94" y="88.5889">: String</text><line style="stroke:#181818;stroke-width:0.5;" x1="8" x2="148" y1="95.8906" y2="95.8906"/></g><!--class Unit--><g id="elem_Unit"><rect codeLine="7" fill="#F1F1F1" height="80.5938" id="Unit" rx="2.5" ry="2.5" style="stroke:#181818;stroke-width:0.5;" width="115" x="184.5" y="15"/><ellipse cx="224.7" cy="31" fill="#ADD1B2" rx="11" ry="11" style="stroke:#181818;stroke-width:1.0;"/><path d="M227.6688,36.6406 Q227.0906,36.9375 226.45,37.0781 Q225.8094,37.2344 225.1063,37.2344 Q222.6063,37.2344 221.2781,35.5938 Q219.9656,33.9375 219.9656,30.8125 Q219.9656,27.6875 221.2781,26.0313 Q222.6063,24.375 225.1063,24.375 Q225.8094,24.375 226.45,24.5313 Q227.1063,24.6875 227.6688,24.9844 L227.6688,27.7031 Q227.0438,27.125 226.45,26.8594 Q225.8563,26.5781 225.2313,26.5781 Q223.8875,26.5781 223.2,27.6563 Q222.5125,28.7188 222.5125,30.8125 Q222.5125,32.9063 223.2,33.9844 Q223.8875,35.0469 225.2313,35.0469 Q225.8563,35.0469 226.45,34.7813 Q227.0438,34.5 227.6688,33.9219 L227.6688,36.6406 Z " fill="#000000"/><text fill="#000000" font-family="sans-serif" font-size="14" lengthAdjust="spacing" textLength="27" x="244.3" y="35.8467">Unit</text><line style="stroke:#181818;stroke-width:0.5;" x1="185.5" x2="298.5" y1="47" y2="47"/><text fill="#000000" font-family="sans-serif" font-size="14" lengthAdjust="spacing" text-decoration="underline" textLength="39" x="190.5" y="63.9951">name</text><text fill="#000000" font-family="sans-serif" font-size="14" lengthAdjust="spacing" textLength="49" x="229.5" y="63.9951">: String</text><text fill="#000000" font-family="sans-serif" font-size="14" lengthAdjust="spacing" textLength="103" x="190.5" y="80.292">location: String</text><line style="stroke:#181818;stroke-width:0.5;" x1="185.5" x2="298.5" y1="87.5938" y2="87.5938"/></g><!--SRC=[Iyv9B2vMS4nFpIjHgEPIKCXBp4srKWWkAShCImTo4zE1lCoy4Y3JfjIkE3MvABN4EJybrKQ_r0wkh9QBAnbiJ6XU9iGKi6gGKIZgGE8v-Sc99PdvUGZD0000]--></g></svg>