<?xml version="1.0" encoding="us-ascii" standalone="no"?><svg xmlns="http://www.w3.org/2000/svg" xmlns:xlink="http://www.w3.org/1999/xlink" contentStyleType="text/css" height="235px" preserveAspectRatio="none" style="width:345px;height:235px;background:#FFFFFF;" version="1.1" viewBox="0 0 345 235" width="345px" zoomAndPan="magnify"><defs/><g><!--class Agent--><g id="elem_Agent"><rect codeLine="2" fill="#F1F1F1" height="96.8906" id="Agent" rx="2.5" ry="2.5" style="stroke:#181818;stroke-width:0.5;" width="142" x="7" y="7"/><ellipse cx="53.25" cy="23" fill="#ADD1B2" rx="11" ry="11" style="stroke:#181818;stroke-width:1.0;"/><path d="M56.2188,28.6406 Q55.6406,28.9375 55,29.0781 Q54.3594,29.2344 53.6563,29.2344 Q51.1563,29.2344 49.8281,27.5938 Q48.5156,25.9375 48.5156,22.8125 Q48.5156,19.6875 49.8281,18.0313 Q51.1563,16.375 53.6563,16.375 Q54.3594,16.375 55,16.5313 Q55.6563,16.6875 56.2188,16.9844 L56.2188,19.7031 Q55.5938,19.125 55,18.8594 Q54.4063,18.5781 53.7813,18.5781 Q52.4375,18.5781 51.75,19.6563 Q51.0625,20.7188 51.0625,22.8125 Q51.0625,24.9063 51.75,25.9844 Q52.4375,27.0469 53.7813,27.0469 Q54.4063,27.0469 55,26.7813 Q55.5938,26.5 56.2188,25.9219 L56.2188,28.6406 Z " fill="#000000"/><text fill="#000000" font-family="sans-serif" font-size="14" lengthAdjust="spacing" textLength="41" x="73.75" y="27.8467">Agent</text><line style="stroke:#181818;stroke-width:0.5;" x1="8" x2="148" y1="39" y2="39"/><text fill="#000000" font-family="sans-serif" font-size="14" lengthAdjust="spacing" textLength="88" x="13" y="55.9951">name: String</text><text fill="#000000" font-family="sans-serif" font-size="14" lengthAdjust="spacing" textLength="52" x="13" y="72.292">age: int</text><text fill="#000000" font-family="sans-serif" font-size="14" lengthAdjust="spacing" text-decoration="underline" textLength="81" x="13" y="88.5889">secretCode</text><text fill="#000000" font-family="sans-serif" font-size="14" lengthAdjust="spacing" textLength="49" x="94" y="88.5889">: String</text><line style="stroke:#181818;stroke-width:0.5;" x1="8" x2="148" y1="95.8906" y2="95.8906"/></g><!--class Unit--><g id="elem_Unit"><rect codeLine="8" fill="#F1F1F1" height="80.5938" id="Unit" rx="2.5" ry="2.5" style="stroke:#181818;stroke-width:0.5;" width="115" x="223.5" y="15"/><ellipse cx="263.7" cy="31" fill="#ADD1B2" rx="11" ry="11" style="stroke:#181818;stroke-width:1.0;"/><path d="M266.6688,36.6406 Q266.0906,36.9375 265.45,37.0781 Q264.8094,37.2344 264.1063,37.2344 Q261.6063,37.2344 260.2781,35.5938 Q258.9656,33.9375 258.9656,30.8125 Q258.9656,27.6875 260.2781,26.0313 Q261.6063,24.375 264.1063,24.375 Q264.8094,24.375 265.45,24.5313 Q266.1063,24.6875 266.6688,24.9844 L266.6688,27.7031 Q266.0438,27.125 265.45,26.8594 Q264.8563,26.5781 264.2313,26.5781 Q262.8875,26.5781 262.2,27.6563 Q261.5125,28.7188 261.5125,30.8125 Q261.5125,32.9063 262.2,33.9844 Q262.8875,35.0469 264.2313,35.0469 Q264.8563,35.0469 265.45,34.7813 Q266.0438,34.5 266.6688,33.9219 L266.6688,36.6406 Z " fill="#000000"/><text fill="#000000" font-family="sans-serif" font-size="14" lengthAdjust="spacing" textLength="27" x="283.3" y="35.8467">Unit</text><line style="stroke:#181818;stroke-width:0.5;" x1="224.5" x2="337.5" y1="47" y2="47"/><text fill="#000000" font-family="sans-serif" font-size="14" lengthAdjust="spacing" text-decoration="underline" textLength="39" x="229.5" y="63.9951">name</text><text fill="#000000" font-family="sans-serif" font-size="14" lengthAdjust="spacing" textLength="49" x="268.5" y="63.9951">: String</text><text fill="#000000" font-family="sans-serif" font-size="14" lengthAdjust="spacing" textLength="103" x="229.5" y="80.292">location: String</text><line style="stroke:#181818;stroke-width:0.5;" x1="224.5" x2="337.5" y1="87.5938" y2="87.5938"/></g><!--class Belong--><g id="elem_Belong"><rect codeLine="16" fill="#F1F1F1" height="64.2969" id="Belong" rx="2.5" ry="2.5" style="stroke:#181818;stroke-width:0.5;" width="81" x="145.5" y="164"/><ellipse cx="160.5" cy="180" fill="#ADD1B2" rx="11" ry="11" style="stroke:#181818;stroke-width:1.0;"/><path d="M163.4688,185.6406 Q162.8906,185.9375 162.25,186.0781 Q161.6094,186.2344 160.9063,186.2344 Q158.4063,186.2344 157.0781,184.5938 Q155.7656,182.9375 155.7656,179.8125 Q155.7656,176.6875 157.0781,175.0313 Q158.4063,173.375 160.9063,173.375 Q161.6094,173.375 162.25,173.5313 Q162.9063,173.6875 163.4688,173.9844 L163.4688,176.7031 Q162.8438,176.125 162.25,175.8594 Q161.6563,175.5781 161.0313,175.5781 Q159.6875,175.5781 159,176.6563 Q158.3125,177.7188 158.3125,179.8125 Q158.3125,181.9063 159,182.9844 Q159.6875,184.0469 161.0313,184.0469 Q161.6563,184.0469 162.25,183.7813 Q162.8438,183.5 163.4688,182.9219 L163.4688,185.6406 Z " fill="#000000"/><text fill="#000000" font-family="sans-serif" font-size="14" lengthAdjust="spacing" textLength="49" x="174.5" y="184.8467">Belong</text><line style="stroke:#181818;stroke-width:0.5;" x1="146.5" x2="225.5" y1="196" y2="196"/><text fill="#000000" font-family="sans-serif" font-size="14" lengthAdjust="spacing" textLength="63" x="151.5" y="212.9951">years: int</text><line style="stroke:#181818;stroke-width:0.5;" x1="146.5" x2="225.5" y1="220.2969" y2="220.2969"/></g><ellipse cx="186" cy="55.5" fill="#181818" rx="2" ry="2" style="stroke:#181818;stroke-width:1.0;"/><!--link Agent to apoint6--><g id="link_Agent_apoint6"><path d="M149.3,55.5 C160.86,55.5 172.43,55.5 183.99,55.5 " fill="none" id="Agent-apoint6" style="stroke:#181818;stroke-width:1.0;"/><text fill="#000000" font-family="sans-serif" font-size="13" lengthAdjust="spacing" textLength="23" x="153.0904" y="50.1117">0..*</text></g><!--link apoint6 to Unit--><g id="link_apoint6_Unit"><path d="M188.23,55.5 C199.94,55.5 211.66,55.5 223.38,55.5 " fill="none" id="apoint6-Unit" style="stroke:#181818;stroke-width:1.0;"/><text fill="#000000" font-family="sans-serif" font-size="13" lengthAdjust="spacing" textLength="23" x="196.0774" y="50.0253">1..*</text></g><!--link apoint6 to Belong--><g id="link_apoint6_Belong"><path d="M186,58.06 C186,68.28 186,126.58 186,163.75 " fill="none" id="apoint6-Belong" style="stroke:#181818;stroke-width:1.0;stroke-dasharray:7.0,7.0;"/></g><!--SRC=[LKv12W8n3Bpt5Q4d5QrwbML1VOBuW513ATGKskv1PFzkcowYfynC9ZEn0NE6ioCky5O0Z4ywmQqapwvIT9LvBXKEqvZ99YhN-A1XFurVswoKbPWx-vuYxXRrvsjwY1QBZ_nxtDlrmPYDXXteeu0MfbQosmfPWwwoCJ8k56AzNeexMwfVX2dth-SF]--></g></svg>