<?xml version="1.0" encoding="us-ascii" standalone="no"?><svg xmlns="http://www.w3.org/2000/svg" xmlns:xlink="http://www.w3.org/1999/xlink" contentStyleType="text/css" height="235px" preserveAspectRatio="none" style="width:359px;height:235px;background:#FFFFFF;" version="1.1" viewBox="0 0 359 235" width="359px" zoomAndPan="magnify"><defs/><g><!--class Patriarch--><g id="elem_Patriarch"><rect codeLine="2" fill="#F1F1F1" height="96.8906" id="Patriarch" rx="2.5" ry="2.5" style="stroke:#181818;stroke-width:0.5;" width="129" x="7" y="7"/><ellipse cx="38.65" cy="23" fill="#ADD1B2" rx="11" ry="11" style="stroke:#181818;stroke-width:1.0;"/><path d="M41.6188,28.6406 Q41.0406,28.9375 40.4,29.0781 Q39.7594,29.2344 39.0563,29.2344 Q36.5563,29.2344 35.2281,27.5938 Q33.9156,25.9375 33.9156,22.8125 Q33.9156,19.6875 35.2281,18.0313 Q36.5563,16.375 39.0563,16.375 Q39.7594,16.375 40.4,16.5313 Q41.0563,16.6875 41.6188,16.9844 L41.6188,19.7031 Q40.9938,19.125 40.4,18.8594 Q39.8063,18.5781 39.1813,18.5781 Q37.8375,18.5781 37.15,19.6563 Q36.4625,20.7188 36.4625,22.8125 Q36.4625,24.9063 37.15,25.9844 Q37.8375,27.0469 39.1813,27.0469 Q39.8063,27.0469 40.4,26.7813 Q40.9938,26.5 41.6188,25.9219 L41.6188,28.6406 Z " fill="#000000"/><text fill="#000000" font-family="sans-serif" font-size="14" lengthAdjust="spacing" textLength="60" x="56.35" y="27.8467">Patriarch</text><line style="stroke:#181818;stroke-width:0.5;" x1="8" x2="135" y1="39" y2="39"/><text fill="#000000" font-family="sans-serif" font-size="14" lengthAdjust="spacing" textLength="88" x="13" y="55.9951">name: String</text><text fill="#000000" font-family="sans-serif" font-size="14" lengthAdjust="spacing" text-decoration="underline" textLength="68" x="13" y="72.292">clanName</text><text fill="#000000" font-family="sans-serif" font-size="14" lengthAdjust="spacing" textLength="49" x="81" y="72.292">: String</text><text fill="#000000" font-family="sans-serif" font-size="14" lengthAdjust="spacing" textLength="56" x="13" y="88.5889">age : int</text><line style="stroke:#181818;stroke-width:0.5;" x1="8" x2="135" y1="95.8906" y2="95.8906"/></g><!--class Member--><g id="elem_Member"><rect codeLine="8" fill="#F1F1F1" height="80.5938" id="Member" rx="2.5" ry="2.5" style="stroke:#181818;stroke-width:0.5;" width="142" x="210.5" y="15"/><ellipse cx="249.35" cy="31" fill="#ADD1B2" rx="11" ry="11" style="stroke:#181818;stroke-width:1.0;"/><path d="M252.3188,36.6406 Q251.7406,36.9375 251.1,37.0781 Q250.4594,37.2344 249.7563,37.2344 Q247.2563,37.2344 245.9281,35.5938 Q244.6156,33.9375 244.6156,30.8125 Q244.6156,27.6875 245.9281,26.0313 Q247.2563,24.375 249.7563,24.375 Q250.4594,24.375 251.1,24.5313 Q251.7563,24.6875 252.3188,24.9844 L252.3188,27.7031 Q251.6938,27.125 251.1,26.8594 Q250.5063,26.5781 249.8813,26.5781 Q248.5375,26.5781 247.85,27.6563 Q247.1625,28.7188 247.1625,30.8125 Q247.1625,32.9063 247.85,33.9844 Q248.5375,35.0469 249.8813,35.0469 Q250.5063,35.0469 251.1,34.7813 Q251.6938,34.5 252.3188,33.9219 L252.3188,36.6406 Z " fill="#000000"/><text fill="#000000" font-family="sans-serif" font-size="14" lengthAdjust="spacing" textLength="57" x="268.65" y="35.8467">Member</text><line style="stroke:#181818;stroke-width:0.5;" x1="211.5" x2="351.5" y1="47" y2="47"/><text fill="#000000" font-family="sans-serif" font-size="14" lengthAdjust="spacing" textLength="88" x="216.5" y="63.9951">name: String</text><text fill="#000000" font-family="sans-serif" font-size="14" lengthAdjust="spacing" text-decoration="underline" textLength="81" x="216.5" y="80.292">secretCode</text><text fill="#000000" font-family="sans-serif" font-size="14" lengthAdjust="spacing" textLength="49" x="297.5" y="80.292">: String</text><line style="stroke:#181818;stroke-width:0.5;" x1="211.5" x2="351.5" y1="87.5938" y2="87.5938"/></g><!--class Leads--><g id="elem_Leads"><rect codeLine="16" fill="#F1F1F1" height="64.2969" id="Leads" rx="2.5" ry="2.5" style="stroke:#181818;stroke-width:0.5;" width="75" x="136" y="164"/><ellipse cx="151.9" cy="180" fill="#ADD1B2" rx="11" ry="11" style="stroke:#181818;stroke-width:1.0;"/><path d="M154.8688,185.6406 Q154.2906,185.9375 153.65,186.0781 Q153.0094,186.2344 152.3063,186.2344 Q149.8063,186.2344 148.4781,184.5938 Q147.1656,182.9375 147.1656,179.8125 Q147.1656,176.6875 148.4781,175.0313 Q149.8063,173.375 152.3063,173.375 Q153.0094,173.375 153.65,173.5313 Q154.3063,173.6875 154.8688,173.9844 L154.8688,176.7031 Q154.2438,176.125 153.65,175.8594 Q153.0563,175.5781 152.4313,175.5781 Q151.0875,175.5781 150.4,176.6563 Q149.7125,177.7188 149.7125,179.8125 Q149.7125,181.9063 150.4,182.9844 Q151.0875,184.0469 152.4313,184.0469 Q153.0563,184.0469 153.65,183.7813 Q154.2438,183.5 154.8688,182.9219 L154.8688,185.6406 Z " fill="#000000"/><text fill="#000000" font-family="sans-serif" font-size="14" lengthAdjust="spacing" textLength="41" x="166.1" y="184.8467">Leads</text><line style="stroke:#181818;stroke-width:0.5;" x1="137" x2="210" y1="196" y2="196"/><text fill="#000000" font-family="sans-serif" font-size="14" lengthAdjust="spacing" textLength="63" x="142" y="212.9951">years: int</text><line style="stroke:#181818;stroke-width:0.5;" x1="137" x2="210" y1="220.2969" y2="220.2969"/></g><ellipse cx="173.5" cy="55.5" fill="#181818" rx="2" ry="2" style="stroke:#181818;stroke-width:1.0;"/><!--link Patriarch to apoint6--><g id="link_Patriarch_apoint6"><path d="M136.05,55.5 C147.85,55.5 159.65,55.5 171.45,55.5 " fill="none" id="Patriarch-apoint6" style="stroke:#181818;stroke-width:1.0;"/><text fill="#000000" font-family="sans-serif" font-size="13" lengthAdjust="spacing" textLength="23" x="140.5541" y="50.2951">0..*</text></g><!--link apoint6 to Member--><g id="link_apoint6_Member"><path d="M175.61,55.5 C187.19,55.5 198.77,55.5 210.35,55.5 " fill="none" id="apoint6-Member" style="stroke:#181818;stroke-width:1.0;"/><text fill="#000000" font-family="sans-serif" font-size="13" lengthAdjust="spacing" textLength="23" x="183.5129" y="49.9994">1..*</text></g><!--link apoint6 to Leads--><g id="link_apoint6_Leads"><path d="M173.5,58.06 C173.5,68.28 173.5,126.58 173.5,163.75 " fill="none" id="apoint6-Leads" style="stroke:#181818;stroke-width:1.0;stroke-dasharray:7.0,7.0;"/></g><!--SRC=[Iyv9B2vM24WiASfCB4hEKAZcKW22lCJSL2k5OA1WNZfOmARKBZadCSyFA6wZNsg78fUOdgfWfP2PLy9LoyML33RFDpKtARK8Zs75gSb5gINE-IcenW4DG3X5oK1FJqj9GLT1oH3CW1ZAfG5NeGCLqbHG0ahhwO4fdzJ4b6AOEy0Sg3CgKnEBYg7k1000]--></g></svg>