<?xml version="1.0" encoding="us-ascii" standalone="no"?><svg xmlns="http://www.w3.org/2000/svg" xmlns:xlink="http://www.w3.org/1999/xlink" contentStyleType="text/css" height="222px" preserveAspectRatio="none" style="width:102px;height:222px;background:#FFFFFF;" version="1.1" viewBox="0 0 102 222" width="102px" zoomAndPan="magnify"><defs/><g><!--entity Admin--><g id="elem_Admin"><ellipse cx="50.5" cy="150" fill="#F1F1F1" rx="8" ry="8" style="stroke:#181818;stroke-width:0.5;"/><path d="M50.5,158 L50.5,185 M37.5,166 L63.5,166 M50.5,185 L37.5,200 M50.5,185 L63.5,200 " fill="none" style="stroke:#181818;stroke-width:0.5;"/><text fill="#000000" font-family="sans-serif" font-size="14" lengthAdjust="spacing" textLength="88" x="6.5" y="214.4951">Logged User</text></g><!--entity Regular User--><g id="elem_Regular User"><ellipse cx="50.5" cy="14" fill="#F1F1F1" rx="8" ry="8" style="stroke:#181818;stroke-width:0.5;"/><path d="M50.5,22 L50.5,49 M37.5,30 L63.5,30 M50.5,49 L37.5,64 M50.5,49 L63.5,64 " fill="none" style="stroke:#181818;stroke-width:0.5;"/><text fill="#000000" font-family="sans-serif" font-size="14" lengthAdjust="spacing" textLength="89" x="6" y="78.4951">Regular User</text></g><!--reverse link Regular User to Admin--><g id="link_Regular User_Admin"><path d="M50.5,99.83 C50.5,118.41 50.5,122.82 50.5,141.37 " fill="none" id="Regular User-backto-Admin" style="stroke:#181818;stroke-width:1.0;"/><polygon fill="none" points="50.5,81.83,44.5,99.83,56.5,99.83,50.5,81.83" style="stroke:#181818;stroke-width:1.0;"/></g><!--SRC=[i_B9JqzFJL48BKujib98B5PmJCdDpEEo2afDByr9B8AAszJewa9a0000]--></g></svg>