<?xml version="1.0" encoding="us-ascii" standalone="no"?><svg xmlns="http://www.w3.org/2000/svg" xmlns:xlink="http://www.w3.org/1999/xlink" contentStyleType="text/css" height="206px" preserveAspectRatio="none" style="width:641px;height:206px;background:#FFFFFF;" version="1.1" viewBox="0 0 641 206" width="641px" zoomAndPan="magnify"><defs/><g><!--cluster ATM--><g id="cluster_ATM"><rect fill="none" height="103" rx="2.5" ry="2.5" style="stroke:#181818;stroke-width:1.0;" width="628" x="7" y="97.5"/><text fill="#000000" font-family="sans-serif" font-size="14" font-weight="bold" lengthAdjust="spacing" textLength="34" x="304" y="112.4951">ATM</text></g><g id="elem_Withdraw Money"><ellipse cx="289.7532" cy="150.4506" fill="#F1F1F1" rx="77.7532" ry="17.9506" style="stroke:#181818;stroke-width:0.5;"/><text fill="#000000" font-family="sans-serif" font-size="14" lengthAdjust="spacing" textLength="113" x="230.6994" y="154.0809">Withdraw Money</text></g><g id="elem_Input Code"><ellipse cx="555.0594" cy="149.7119" fill="#F1F1F1" rx="64.0594" ry="15.2119" style="stroke:#181818;stroke-width:0.5;"/><text fill="#000000" font-family="sans-serif" font-size="14" lengthAdjust="spacing" textLength="76" x="514.0594" y="153.4594">Input Code</text></g><g id="elem_Help"><ellipse cx="56.4074" cy="149.5243" fill="#F1F1F1" rx="33.4074" ry="14.5243" style="stroke:#181818;stroke-width:0.5;"/><text fill="#000000" font-family="sans-serif" font-size="14" lengthAdjust="spacing" textLength="31" x="40.6738" y="152.4595">Help</text></g><!--entity C--><g id="elem_C"><ellipse cx="56.5" cy="14" fill="#F1F1F1" rx="8" ry="8" style="stroke:#181818;stroke-width:0.5;"/><path d="M56.5,22 L56.5,49 M43.5,30 L69.5,30 M56.5,49 L43.5,64 M56.5,49 L69.5,64 " fill="none" style="stroke:#181818;stroke-width:0.5;"/><text fill="#000000" font-family="sans-serif" font-size="14" lengthAdjust="spacing" textLength="39" x="37" y="78.4951">Client</text></g><!--link C to Withdraw Money--><g id="link_C_Withdraw Money"><path d="M76.05,52.08 C114.68,69.93 204.26,111.34 254.05,134.35 " fill="none" id="C-Withdraw Money" style="stroke:#181818;stroke-width:1.0;"/></g><!--link Withdraw Money to Input Code--><g id="link_Withdraw Money_Input Code"><path d="M368.13,150.21 C407.09,150.06 447.76,149.9028 484.6,149.7628 " fill="none" id="Withdraw Money-to-Input Code" style="stroke:#181818;stroke-width:1.0;"/><polygon fill="#181818" points="490.6,149.74,481.5849,145.7742,485.6,149.759,481.6153,153.7742,490.6,149.74" style="stroke:#181818;stroke-width:1.0;"/><text fill="#000000" font-family="sans-serif" font-size="13" lengthAdjust="spacing" textLength="61" x="399" y="146.5669">&#171;include&#187;</text></g><!--link Help to Withdraw Money--><g id="link_Help_Withdraw Money"><path d="M90.18,149.64 C121.59,149.78 164.2401,149.9639 205.5601,150.1439 " fill="none" id="Help-to-Withdraw Money" style="stroke:#181818;stroke-width:1.0;stroke-dasharray:7.0,7.0;"/><polygon fill="#181818" points="211.56,150.17,202.5775,146.1308,206.56,150.1482,202.5427,154.1308,211.56,150.17" style="stroke:#181818;stroke-width:1.0;"/><text fill="#000000" font-family="sans-serif" font-size="13" lengthAdjust="spacing" textLength="60" x="121" y="146.5669">&#171;extend&#187;</text></g><!--SRC=[POkz2i8m4CVtFCL_R8Vs0QG498iEtGJda9pjGRYKU4L5V7UJLTVVHwARGZCABwiYSg6WdCKO7pGNkCGa2d-7CwOvBqiY72yptWPm60PqLzOr5l_0d8LUVUM_g6OMtLcsNU5of1u7J1DBI7iaQzjnehJr64VxFxUMdaeIQ_hv0W00]--></g></svg>