<?xml version="1.0" encoding="us-ascii" standalone="no"?><svg xmlns="http://www.w3.org/2000/svg" xmlns:xlink="http://www.w3.org/1999/xlink" contentStyleType="text/css" height="224px" preserveAspectRatio="none" style="width:247px;height:224px;background:#FFFFFF;" version="1.1" viewBox="0 0 247 224" width="247px" zoomAndPan="magnify"><defs/><g><!--cluster Restaurant--><g id="cluster_Restaurant"><rect fill="none" height="211" rx="2.5" ry="2.5" style="stroke:#181818;stroke-width:1.0;" width="152" x="89" y="7"/><text fill="#000000" font-family="sans-serif" font-size="14" font-weight="bold" lengthAdjust="spacing" textLength="86" x="122" y="21.9951">Restaurant</text></g><g id="elem_Order"><ellipse cx="165.1869" cy="57.0634" fill="#F1F1F1" rx="39.1869" ry="14.5634" style="stroke:#181818;stroke-width:0.5;"/><text fill="#000000" font-family="sans-serif" font-size="14" lengthAdjust="spacing" textLength="39" x="143.5666" y="60.5876">Order</text></g><g id="elem_Checkout"><ellipse cx="165.0664" cy="121.7722" fill="#F1F1F1" rx="60.0664" ry="14.7722" style="stroke:#181818;stroke-width:0.5;"/><text fill="#000000" font-family="sans-serif" font-size="14" lengthAdjust="spacing" textLength="67" x="128.5664" y="125.5198">Checkout</text></g><g id="elem_Eat"><ellipse cx="165.0416" cy="187.0236" fill="#F1F1F1" rx="27.0416" ry="14.5236" style="stroke:#181818;stroke-width:0.5;"/><text fill="#000000" font-family="sans-serif" font-size="14" lengthAdjust="spacing" textLength="22" x="154.0416" y="189.8703">Eat</text></g><!--entity C--><g id="elem_C"><ellipse cx="25.5" cy="92.5" fill="#F1F1F1" rx="8" ry="8" style="stroke:#181818;stroke-width:0.5;"/><path d="M25.5,100.5 L25.5,127.5 M12.5,108.5 L38.5,108.5 M25.5,127.5 L12.5,142.5 M25.5,127.5 L38.5,142.5 " fill="none" style="stroke:#181818;stroke-width:0.5;"/><text fill="#000000" font-family="sans-serif" font-size="14" lengthAdjust="spacing" textLength="39" x="6" y="156.9951">Client</text></g><!--link C to Order--><g id="link_C_Order"><path d="M45.21,109.55 C55.52,102.97 68.69,95.04 81,89 C98.61,80.36 119.17,72.42 135.43,66.61 " fill="none" id="C-Order" style="stroke:#181818;stroke-width:1.0;"/></g><!--link C to Checkout--><g id="link_C_Checkout"><path d="M45.04,122 C60.44,122 83.22,122 104.73,122 " fill="none" id="C-Checkout" style="stroke:#181818;stroke-width:1.0;"/></g><!--link C to Eat--><g id="link_C_Eat"><path d="M45.28,133.98 C55.61,140.33 68.78,148.02 81,154 C101.06,163.81 124.82,173.02 141.76,179.21 " fill="none" id="C-Eat" style="stroke:#181818;stroke-width:1.0;"/></g><!--SRC=[HSan3e0W40NHdbFyKWjEGQnDlC46LY0II9QbCjvTRRHyCuLtXJP8ZaaHih3NtAeXhqtWIkQge0vdtaCr5iR6NMa8FUSqW8Erc5O9BFD7bzWVRUXV5dfmtG00]--></g></svg>