<?xml version="1.0" encoding="us-ascii" standalone="no"?><svg xmlns="http://www.w3.org/2000/svg" xmlns:xlink="http://www.w3.org/1999/xlink" contentStyleType="text/css" height="238px" preserveAspectRatio="none" style="width:515px;height:238px;background:#FFFFFF;" version="1.1" viewBox="0 0 515 238" width="515px" zoomAndPan="magnify"><defs/><g><!--cluster CoffeeMachine--><g id="cluster_CoffeeMachine"><rect fill="none" height="225" rx="2.5" ry="2.5" style="stroke:#181818;stroke-width:1.0;" width="391" x="118" y="7"/><text fill="#000000" font-family="sans-serif" font-size="14" font-weight="bold" lengthAdjust="spacing" textLength="118" x="254.5" y="21.9951">CoffeeMachine</text></g><g id="elem_Make Coffee"><ellipse cx="201.5233" cy="125.9047" fill="#F1F1F1" rx="67.5233" ry="15.9047" style="stroke:#181818;stroke-width:0.5;"/><text fill="#000000" font-family="sans-serif" font-size="14" lengthAdjust="spacing" textLength="86" x="155.5233" y="129.6522">Make Coffee</text></g><g id="elem_Make Espresso"><ellipse cx="410.9948" cy="197.899" fill="#F1F1F1" rx="74.9948" ry="17.399" style="stroke:#181818;stroke-width:0.5;"/><text fill="#000000" font-family="sans-serif" font-size="14" lengthAdjust="spacing" textLength="106" x="354.9948" y="201.6465">Make Espresso</text></g><g id="elem_Make Cappuccino"><ellipse cx="410.8658" cy="125.7732" fill="#F1F1F1" rx="81.8658" ry="18.7732" style="stroke:#181818;stroke-width:0.5;"/><text fill="#000000" font-family="sans-serif" font-size="14" lengthAdjust="spacing" textLength="123" x="348.3805" y="128.9463">Make Cappuccino</text></g><g id="elem_Make Latte"><ellipse cx="411.2248" cy="57.145" fill="#F1F1F1" rx="63.7248" ry="15.145" style="stroke:#181818;stroke-width:0.5;"/><text fill="#000000" font-family="sans-serif" font-size="14" lengthAdjust="spacing" textLength="75" x="370.7248" y="60.8925">Make Latte</text></g><!--entity C--><g id="elem_C"><ellipse cx="40" cy="96.5" fill="#F1F1F1" rx="8" ry="8" style="stroke:#181818;stroke-width:0.5;"/><path d="M40,104.5 L40,131.5 M27,112.5 L53,112.5 M40,131.5 L27,146.5 M40,131.5 L53,146.5 " fill="none" style="stroke:#181818;stroke-width:0.5;"/><text fill="#000000" font-family="sans-serif" font-size="14" lengthAdjust="spacing" textLength="68" x="6" y="160.9951">Customer</text></g><!--link C to Make Coffee--><g id="link_C_Make Coffee"><path d="M74.05,126 C91.39,126 113.27,126 133.94,126 " fill="none" id="C-Make Coffee" style="stroke:#181818;stroke-width:1.0;"/></g><!--reverse link Make Coffee to Make Espresso--><g id="link_Make Coffee_Make Espresso"><path d="M257.5659,145.1091 C293.7159,157.6491 330.94,170.57 368.26,183.52 " fill="none" id="Make Coffee-backto-Make Espresso" style="stroke:#181818;stroke-width:1.0;"/><polygon fill="none" points="240.56,139.21,255.5995,150.7778,259.5323,139.4405,240.56,139.21" style="stroke:#181818;stroke-width:1.0;"/></g><!--reverse link Make Coffee to Make Cappuccino--><g id="link_Make Coffee_Make Cappuccino"><path d="M287.01,126 C306.1,126 309.12,126 328.97,126 " fill="none" id="Make Coffee-backto-Make Cappuccino" style="stroke:#181818;stroke-width:1.0;"/><polygon fill="none" points="269.01,126,287.01,132,287.01,120,269.01,126" style="stroke:#181818;stroke-width:1.0;"/></g><!--reverse link Make Coffee to Make Latte--><g id="link_Make Coffee_Make Latte"><path d="M258.6104,107.3401 C296.4104,94.7701 336.22,81.53 373.24,69.23 " fill="none" id="Make Coffee-backto-Make Latte" style="stroke:#181818;stroke-width:1.0;"/><polygon fill="none" points="241.53,113.02,260.5037,113.0336,256.7171,101.6466,241.53,113.02" style="stroke:#181818;stroke-width:1.0;"/></g><!--SRC=[VOqn3i9030JxUyMMKEG7T1OTUOHbV8b5E9_kd0huEw40YIRbpeoqY-P0E9fDS-1gJINCIqeiuGsqzl2xDd07fO_aCYqAyfnLHvRPYkAH0C8mu33oxIkF6_pRE3r_oRdNfhtxRaHSwofYPJ-xSCJszde3]--></g></svg>