<?xml version="1.0" encoding="us-ascii" standalone="no"?><svg xmlns="http://www.w3.org/2000/svg" xmlns:xlink="http://www.w3.org/1999/xlink" contentStyleType="text/css" height="354px" preserveAspectRatio="none" style="width:273px;height:354px;background:#FFFFFF;" version="1.1" viewBox="0 0 273 354" width="273px" zoomAndPan="magnify"><defs/><g><rect fill="#FFFFFF" height="333.2188" style="stroke:#181818;stroke-width:1.5;" width="262.5" x="5" y="15"/><path d="M152,15 L152,24.2969 L142,34.2969 L5,34.2969 " fill="none" style="stroke:#181818;stroke-width:1.5;"/><text fill="#000000" font-family="sans-serif" font-size="14" lengthAdjust="spacing" textLength="137" x="8" y="28.9951">sd another_diagram</text><rect fill="none" height="75.3984" style="stroke:#000000;stroke-width:1.5;" width="231.5" x="20" y="164.7266"/><line style="stroke:#181818;stroke-width:0.5;stroke-dasharray:5.0,5.0;" x1="53" x2="53" y1="118.5938" y2="257.125"/><line style="stroke:#181818;stroke-width:0.5;stroke-dasharray:5.0,5.0;" x1="109" x2="109" y1="118.5938" y2="257.125"/><line style="stroke:#181818;stroke-width:0.5;stroke-dasharray:5.0,5.0;" x1="214.5" x2="214.5" y1="118.5938" y2="257.125"/><rect fill="#E2E2F0" height="30.2969" rx="2.5" ry="2.5" style="stroke:#181818;stroke-width:0.5;" width="46" x="30" y="87.2969"/><text fill="#000000" font-family="sans-serif" font-size="14" lengthAdjust="spacing" textLength="32" x="37" y="107.292">Alice</text><rect fill="#E2E2F0" height="30.2969" rx="2.5" ry="2.5" style="stroke:#181818;stroke-width:0.5;" width="46" x="30" y="256.125"/><text fill="#000000" font-family="sans-serif" font-size="14" lengthAdjust="spacing" textLength="32" x="37" y="276.1201">Alice</text><text fill="#000000" font-family="sans-serif" font-size="14" lengthAdjust="spacing" textLength="28" x="92" y="115.292">Bob</text><ellipse cx="109" cy="50.7969" fill="#E2E2F0" rx="8" ry="8" style="stroke:#181818;stroke-width:0.5;"/><path d="M109,58.7969 L109,85.7969 M96,66.7969 L122,66.7969 M109,85.7969 L96,100.7969 M109,85.7969 L122,100.7969 " fill="none" style="stroke:#181818;stroke-width:0.5;"/><text fill="#000000" font-family="sans-serif" font-size="14" lengthAdjust="spacing" textLength="28" x="92" y="269.1201">Bob</text><ellipse cx="109" cy="280.9219" fill="#E2E2F0" rx="8" ry="8" style="stroke:#181818;stroke-width:0.5;"/><path d="M109,288.9219 L109,315.9219 M96,296.9219 L122,296.9219 M109,315.9219 L96,330.9219 M109,315.9219 L122,330.9219 " fill="none" style="stroke:#181818;stroke-width:0.5;"/><text fill="#000000" font-family="sans-serif" font-size="14" lengthAdjust="spacing" textLength="47" x="188.5" y="115.292">Charlie</text><ellipse cx="215" cy="50.7969" fill="#E2E2F0" rx="8" ry="8" style="stroke:#181818;stroke-width:0.5;"/><path d="M215,58.7969 L215,85.7969 M202,66.7969 L228,66.7969 M215,85.7969 L202,100.7969 M215,85.7969 L228,100.7969 " fill="none" style="stroke:#181818;stroke-width:0.5;"/><text fill="#000000" font-family="sans-serif" font-size="14" lengthAdjust="spacing" textLength="47" x="188.5" y="269.1201">Charlie</text><ellipse cx="215" cy="280.9219" fill="#E2E2F0" rx="8" ry="8" style="stroke:#181818;stroke-width:0.5;"/><path d="M215,288.9219 L215,315.9219 M202,296.9219 L228,296.9219 M215,315.9219 L202,330.9219 M215,315.9219 L228,330.9219 " fill="none" style="stroke:#181818;stroke-width:0.5;"/><polygon fill="#181818" points="97,145.7266,107,149.7266,97,153.7266,101,149.7266" style="stroke:#181818;stroke-width:1.0;"/><line style="stroke:#181818;stroke-width:1.0;" x1="53" x2="103" y1="149.7266" y2="149.7266"/><text fill="#000000" font-family="sans-serif" font-size="13" lengthAdjust="spacing" textLength="32" x="60" y="144.6606">Hello</text><path d="M20,164.7266 L182,164.7266 L182,171.8594 L172,181.8594 L20,181.8594 L20,164.7266 " fill="#EEEEEE" style="stroke:#000000;stroke-width:1.5;"/><rect fill="none" height="75.3984" style="stroke:#000000;stroke-width:1.5;" width="231.5" x="20" y="164.7266"/><text fill="#000000" font-family="sans-serif" font-size="13" font-weight="bold" lengthAdjust="spacing" textLength="117" x="35" y="177.7935">ref my_diagram</text><line style="stroke:#181818;stroke-width:1.0;" x1="213" x2="203" y1="202.9922" y2="198.9922"/><line style="stroke:#181818;stroke-width:1.0;" x1="213" x2="203" y1="202.9922" y2="206.9922"/><line style="stroke:#181818;stroke-width:1.0;" x1="109" x2="214" y1="202.9922" y2="202.9922"/><text fill="#000000" font-family="sans-serif" font-size="13" lengthAdjust="spacing" textLength="82" x="116" y="197.9263">Alice is here!</text><polygon fill="#181818" points="64,228.125,54,232.125,64,236.125,60,232.125" style="stroke:#181818;stroke-width:1.0;"/><line style="stroke:#181818;stroke-width:1.0;stroke-dasharray:2.0,2.0;" x1="58" x2="108" y1="232.125" y2="232.125"/><text fill="#000000" font-family="sans-serif" font-size="13" lengthAdjust="spacing" textLength="32" x="70" y="227.0591">Hello</text><!--SRC=[ZOuz3i8m34Ptd-BZ0Bq0GoHWuHR896vhANzomy3jIHjrPxEVhFUSMFDid0HR0EVILh5NK5uweyhMr6lbt72BweNOjsAubpVH0J2vVSCLJucn42rMFXKcCzBtBy-O7YjRL27QPPDp9-ZYqT4D_JEvZ8DU7VZiIWu_]--></g></svg>