<?xml version="1.0" encoding="us-ascii" standalone="no"?><svg xmlns="http://www.w3.org/2000/svg" xmlns:xlink="http://www.w3.org/1999/xlink" contentStyleType="text/css" height="293px" preserveAspectRatio="none" style="width:243px;height:293px;background:#FFFFFF;" version="1.1" viewBox="0 0 243 293" width="243px" zoomAndPan="magnify"><defs/><g><rect fill="#FFFFFF" height="272.9531" style="stroke:#181818;stroke-width:1.5;" width="232.5" x="5" y="15"/><path d="M118,15 L118,24.2969 L108,34.2969 L5,34.2969 " fill="none" style="stroke:#181818;stroke-width:1.5;"/><text fill="#000000" font-family="sans-serif" font-size="14" lengthAdjust="spacing" textLength="103" x="8" y="28.9951">sd my_diagram</text><line style="stroke:#181818;stroke-width:0.5;stroke-dasharray:5.0,5.0;" x1="38" x2="38" y1="118.5938" y2="196.8594"/><line style="stroke:#181818;stroke-width:0.5;stroke-dasharray:5.0,5.0;" x1="94" x2="94" y1="118.5938" y2="196.8594"/><line style="stroke:#181818;stroke-width:0.5;stroke-dasharray:5.0,5.0;" x1="199.5" x2="199.5" y1="118.5938" y2="196.8594"/><rect fill="#E2E2F0" height="30.2969" rx="2.5" ry="2.5" style="stroke:#181818;stroke-width:0.5;" width="46" x="15" y="87.2969"/><text fill="#000000" font-family="sans-serif" font-size="14" lengthAdjust="spacing" textLength="32" x="22" y="107.292">Alice</text><rect fill="#E2E2F0" height="30.2969" rx="2.5" ry="2.5" style="stroke:#181818;stroke-width:0.5;" width="46" x="15" y="195.8594"/><text fill="#000000" font-family="sans-serif" font-size="14" lengthAdjust="spacing" textLength="32" x="22" y="215.8545">Alice</text><text fill="#000000" font-family="sans-serif" font-size="14" lengthAdjust="spacing" textLength="28" x="77" y="115.292">Bob</text><ellipse cx="94" cy="50.7969" fill="#E2E2F0" rx="8" ry="8" style="stroke:#181818;stroke-width:0.5;"/><path d="M94,58.7969 L94,85.7969 M81,66.7969 L107,66.7969 M94,85.7969 L81,100.7969 M94,85.7969 L107,100.7969 " fill="none" style="stroke:#181818;stroke-width:0.5;"/><text fill="#000000" font-family="sans-serif" font-size="14" lengthAdjust="spacing" textLength="28" x="77" y="208.8545">Bob</text><ellipse cx="94" cy="220.6563" fill="#E2E2F0" rx="8" ry="8" style="stroke:#181818;stroke-width:0.5;"/><path d="M94,228.6563 L94,255.6563 M81,236.6563 L107,236.6563 M94,255.6563 L81,270.6563 M94,255.6563 L107,270.6563 " fill="none" style="stroke:#181818;stroke-width:0.5;"/><text fill="#000000" font-family="sans-serif" font-size="14" lengthAdjust="spacing" textLength="47" x="173.5" y="115.292">Charlie</text><ellipse cx="200" cy="50.7969" fill="#E2E2F0" rx="8" ry="8" style="stroke:#181818;stroke-width:0.5;"/><path d="M200,58.7969 L200,85.7969 M187,66.7969 L213,66.7969 M200,85.7969 L187,100.7969 M200,85.7969 L213,100.7969 " fill="none" style="stroke:#181818;stroke-width:0.5;"/><text fill="#000000" font-family="sans-serif" font-size="14" lengthAdjust="spacing" textLength="47" x="173.5" y="208.8545">Charlie</text><ellipse cx="200" cy="220.6563" fill="#E2E2F0" rx="8" ry="8" style="stroke:#181818;stroke-width:0.5;"/><path d="M200,228.6563 L200,255.6563 M187,236.6563 L213,236.6563 M200,255.6563 L187,270.6563 M200,255.6563 L213,270.6563 " fill="none" style="stroke:#181818;stroke-width:0.5;"/><polygon fill="#181818" points="188,145.7266,198,149.7266,188,153.7266,192,149.7266" style="stroke:#181818;stroke-width:1.0;"/><line style="stroke:#181818;stroke-width:1.0;" x1="94" x2="194" y1="149.7266" y2="149.7266"/><text fill="#000000" font-family="sans-serif" font-size="13" lengthAdjust="spacing" textLength="82" x="101" y="144.6606">Alice is here!</text><polygon fill="#181818" points="49,174.8594,39,178.8594,49,182.8594,45,178.8594" style="stroke:#181818;stroke-width:1.0;"/><line style="stroke:#181818;stroke-width:1.0;stroke-dasharray:2.0,2.0;" x1="43" x2="93" y1="178.8594" y2="178.8594"/><text fill="#000000" font-family="sans-serif" font-size="13" lengthAdjust="spacing" textLength="32" x="55" y="173.7935">Hello</text><!--SRC=[DOgn3O0m30HxJ_4Cm08KI4335iW4Gomb19aqR4-aGFTtVv7rt8sZuDuGdsLJFWeINMnPdLvyPWn1dH2xd0nZMhyrURQWGbGKslvdTBM7tl1YqjI_15Ltc2M4z080]--></g></svg>