<?xml version="1.0" encoding="us-ascii" standalone="no"?><svg xmlns="http://www.w3.org/2000/svg" xmlns:xlink="http://www.w3.org/1999/xlink" contentStyleType="text/css" height="298px" preserveAspectRatio="none" style="width:154px;height:298px;background:#FFFFFF;" version="1.1" viewBox="0 0 154 298" width="154px" zoomAndPan="magnify"><defs/><g><line style="stroke:#181818;stroke-width:0.5;stroke-dasharray:5.0,5.0;" x1="28" x2="28" y1="81.2969" y2="217.8281"/><line style="stroke:#181818;stroke-width:0.5;stroke-dasharray:5.0,5.0;" x1="127" x2="127" y1="81.2969" y2="217.8281"/><text fill="#000000" font-family="sans-serif" font-size="14" lengthAdjust="spacing" textLength="41" x="5" y="77.9951">Player</text><ellipse cx="28.5" cy="13.5" fill="#E2E2F0" rx="8" ry="8" style="stroke:#181818;stroke-width:0.5;"/><path d="M28.5,21.5 L28.5,48.5 M15.5,29.5 L41.5,29.5 M28.5,48.5 L15.5,63.5 M28.5,48.5 L41.5,63.5 " fill="none" style="stroke:#181818;stroke-width:0.5;"/><text fill="#000000" font-family="sans-serif" font-size="14" lengthAdjust="spacing" textLength="41" x="5" y="229.8232">Player</text><ellipse cx="28.5" cy="241.625" fill="#E2E2F0" rx="8" ry="8" style="stroke:#181818;stroke-width:0.5;"/><path d="M28.5,249.625 L28.5,276.625 M15.5,257.625 L41.5,257.625 M28.5,276.625 L15.5,291.625 M28.5,276.625 L41.5,291.625 " fill="none" style="stroke:#181818;stroke-width:0.5;"/><text fill="#000000" font-family="sans-serif" font-size="14" lengthAdjust="spacing" textLength="41" x="104" y="77.9951">Game</text><path d="M107,37 L107,61 M107,49 L124,49 " fill="none" style="stroke:#181818;stroke-width:0.5;"/><ellipse cx="136" cy="49" fill="#E2E2F0" rx="12" ry="12" style="stroke:#181818;stroke-width:0.5;"/><text fill="#000000" font-family="sans-serif" font-size="14" lengthAdjust="spacing" textLength="41" x="104" y="229.8232">Game</text><path d="M107,237.125 L107,261.125 M107,249.125 L124,249.125 " fill="none" style="stroke:#181818;stroke-width:0.5;"/><ellipse cx="136" cy="249.125" fill="#E2E2F0" rx="12" ry="12" style="stroke:#181818;stroke-width:0.5;"/><polygon fill="#181818" points="115.5,108.4297,125.5,112.4297,115.5,116.4297,119.5,112.4297" style="stroke:#181818;stroke-width:1.0;"/><line style="stroke:#181818;stroke-width:1.0;" x1="28.5" x2="121.5" y1="112.4297" y2="112.4297"/><text fill="#000000" font-family="sans-serif" font-size="13" lengthAdjust="spacing" textLength="75" x="35.5" y="107.3638">Start Game</text><polygon fill="#181818" points="115.5,137.5625,125.5,141.5625,115.5,145.5625,119.5,141.5625" style="stroke:#181818;stroke-width:1.0;"/><line style="stroke:#181818;stroke-width:1.0;stroke-dasharray:2.0,2.0;" x1="28.5" x2="121.5" y1="141.5625" y2="141.5625"/><text fill="#000000" font-family="sans-serif" font-size="13" lengthAdjust="spacing" textLength="69" x="35.5" y="136.4966">Play Game</text><polygon fill="#181818" points="115.5,166.6953,125.5,170.6953,115.5,174.6953,119.5,170.6953" style="stroke:#181818;stroke-width:1.0;"/><line style="stroke:#181818;stroke-width:1.0;" x1="28.5" x2="121.5" y1="170.6953" y2="170.6953"/><text fill="#000000" font-family="sans-serif" font-size="13" lengthAdjust="spacing" textLength="67" x="35.5" y="165.6294">End Game</text><polygon fill="#181818" points="39.5,195.8281,29.5,199.8281,39.5,203.8281,35.5,199.8281" style="stroke:#181818;stroke-width:1.0;"/><line style="stroke:#181818;stroke-width:1.0;stroke-dasharray:2.0,2.0;" x1="33.5" x2="126.5" y1="199.8281" y2="199.8281"/><text fill="#000000" font-family="sans-serif" font-size="13" lengthAdjust="spacing" textLength="73" x="45.5" y="194.7622">Game Over</text><!--SRC=[IqmkoIzI2CX9h4mjuahAByrBIIogL71Fp4tbWWWgwDg1kLOAmIM9HIMeKd0va01sNQvvAH09407M0L5X1HPLy2zBBG80]--></g></svg>