<svg width="512pt" height="370pt" viewBox="0.00 0.00 512.00 370.00" xmlns="http://www.w3.org/2000/svg" xmlns:xlink="http://www.w3.org/1999/xlink">
    <g id="graph1" class="graph" transform="scale(1 1) rotate(0) translate(4 366)">
        <title>	digraph {
            size="10,8";
            rankdir="LR";
            a->b;
            a->c;
            a->d;
            a->e;
            a->f;
            b->a;
            b->c;
            b->d;
            b->e;
            b->f;
            c->a;
            c->b;
            c->d;
            c->e;
            c->f;
            d->a;
            d->b;
            d->c;
            d->e;
            d->f;
            e->a;
            e->b;
            e->c;
            e->d;
            e->f;
            f->a;
            f->b;
            f->c;
            f->d;
            f->e;
            }</title>
        <polygon fill="#d8d8d8" stroke="#d8d8d8" points="-4,5 -4,-366 509,-366 509,5 -4,5" data-darkreader-inline-fill="" data-darkreader-inline-stroke="" style="--darkreader-inline-fill:#c6c4c2; --darkreader-inline-stroke:#c6c4c2;"></polygon>
        <!-- a -->
        <g id="node1" class="node"><title>a</title>
            <ellipse fill="none" stroke="black" cx="27" cy="-157" rx="27" ry="18" data-darkreader-inline-fill="" data-darkreader-inline-stroke="" style="--darkreader-inline-fill:none; --darkreader-inline-stroke:#161718;"></ellipse>
            <text text-anchor="middle" x="27" y="-152.8" font-family="Times,serif" font-size="14.00">a</text>
        </g>
        <!-- b -->
        <g id="node3" class="node"><title>b</title>
            <ellipse fill="none" stroke="black" cx="117" cy="-157" rx="27" ry="18" data-darkreader-inline-fill="" data-darkreader-inline-stroke="" style="--darkreader-inline-fill:none; --darkreader-inline-stroke:#161718;"></ellipse>
            <text text-anchor="middle" x="117" y="-152.8" font-family="Times,serif" font-size="14.00">b</text>
        </g>
        <!-- a&#45;&gt;b -->
        <g id="edge2" class="edge"><title>a-&gt;b</title>
            <path fill="none" stroke="black" d="M52.5129,-150.877C61.4017,-150.266 71.6201,-150.102 81.2245,-150.384" data-darkreader-inline-fill="" data-darkreader-inline-stroke="" style="--darkreader-inline-fill:none; --darkreader-inline-stroke:#161718;"></path>
            <polygon fill="black" stroke="black" points="81.1579,-153.884 91.3133,-150.865 81.4915,-146.892 81.1579,-153.884" data-darkreader-inline-fill="" data-darkreader-inline-stroke="" style="--darkreader-inline-fill:#161718; --darkreader-inline-stroke:#161718;"></polygon>
        </g>
        <!-- c -->
        <g id="node5" class="node"><title>c</title>
            <ellipse fill="none" stroke="black" cx="477" cy="-184" rx="27" ry="18" data-darkreader-inline-fill="" data-darkreader-inline-stroke="" style="--darkreader-inline-fill:none; --darkreader-inline-stroke:#161718;"></ellipse>
            <text text-anchor="middle" x="477" y="-179.8" font-family="Times,serif" font-size="14.00">c</text>
        </g>
        <!-- a&#45;&gt;c -->
        <g id="edge4" class="edge"><title>a-&gt;c</title>
            <path fill="none" stroke="black" d="M35.7308,-174.212C55.4371,-220.755 112.689,-344 206,-344 206,-344 206,-344 298,-344 377.168,-344 435.176,-254.992 461.041,-209.606" data-darkreader-inline-fill="" data-darkreader-inline-stroke="" style="--darkreader-inline-fill:none; --darkreader-inline-stroke:#161718;"></path>
            <polygon fill="black" stroke="black" points="464.235,-211.066 466.068,-200.631 458.127,-207.645 464.235,-211.066" data-darkreader-inline-fill="" data-darkreader-inline-stroke="" style="--darkreader-inline-fill:#161718; --darkreader-inline-stroke:#161718;"></polygon>
        </g>
        <!-- d -->
        <g id="node7" class="node"><title>d</title>
            <ellipse fill="none" stroke="black" cx="387" cy="-184" rx="27" ry="18" data-darkreader-inline-fill="" data-darkreader-inline-stroke="" style="--darkreader-inline-fill:none; --darkreader-inline-stroke:#161718;"></ellipse>
            <text text-anchor="middle" x="387" y="-179.8" font-family="Times,serif" font-size="14.00">d</text>
        </g>
        <!-- a&#45;&gt;d -->
        <g id="edge6" class="edge"><title>a-&gt;d</title>
            <path fill="none" stroke="black" d="M53.2684,-161.997C64.2594,-166.454 77.4688,-171.878 90,-175 191.096,-200.187 220.456,-200.545 324,-189 332.499,-188.052 341.533,-186.396 350,-184.796" data-darkreader-inline-fill="" data-darkreader-inline-stroke="" style="--darkreader-inline-fill:none; --darkreader-inline-stroke:#161718;"></path>
            <polygon fill="black" stroke="black" points="350.79,-188.208 359.973,-182.923 349.499,-181.329 350.79,-188.208" data-darkreader-inline-fill="" data-darkreader-inline-stroke="" style="--darkreader-inline-fill:#161718; --darkreader-inline-stroke:#161718;"></polygon>
        </g>
        <!-- e -->
        <g id="node9" class="node"><title>e</title>
            <ellipse fill="none" stroke="black" cx="297" cy="-129" rx="27" ry="18" data-darkreader-inline-fill="" data-darkreader-inline-stroke="" style="--darkreader-inline-fill:none; --darkreader-inline-stroke:#161718;"></ellipse>
            <text text-anchor="middle" x="297" y="-124.8" font-family="Times,serif" font-size="14.00">e</text>
        </g>
        <!-- a&#45;&gt;e -->
        <g id="edge8" class="edge"><title>a-&gt;e</title>
            <path fill="none" stroke="black" d="M42.2235,-141.625C54.4441,-133.278 72.7684,-124.633 90,-121 149.878,-108.376 221.741,-112.18 262.818,-118.779" data-darkreader-inline-fill="" data-darkreader-inline-stroke="" style="--darkreader-inline-fill:none; --darkreader-inline-stroke:#161718;"></path>
            <polygon fill="black" stroke="black" points="262.358,-122.253 272.817,-120.557 263.584,-115.361 262.358,-122.253" data-darkreader-inline-fill="" data-darkreader-inline-stroke="" style="--darkreader-inline-fill:#161718; --darkreader-inline-stroke:#161718;"></polygon>
        </g>
        <!-- f -->
        <g id="node11" class="node"><title>f</title>
            <ellipse fill="none" stroke="black" cx="207" cy="-18" rx="27" ry="18" data-darkreader-inline-fill="" data-darkreader-inline-stroke="" style="--darkreader-inline-fill:none; --darkreader-inline-stroke:#161718;"></ellipse>
            <text text-anchor="middle" x="207" y="-13.8" font-family="Times,serif" font-size="14.00">f</text>
        </g>
        <!-- a&#45;&gt;f -->
        <g id="edge10" class="edge"><title>a-&gt;f</title>
            <path fill="none" stroke="black" d="M31.8539,-139.124C39.3393,-113.185 57.9836,-66.815 90,-42 113.314,-23.9303 146.096,-15.7547 170.866,-13.5556" data-darkreader-inline-fill="" data-darkreader-inline-stroke="" style="--darkreader-inline-fill:none; --darkreader-inline-stroke:#161718;"></path>
            <polygon fill="black" stroke="black" points="171.161,-17.0444 180.94,-12.9676 170.753,-10.0563 171.161,-17.0444" data-darkreader-inline-fill="" data-darkreader-inline-stroke="" style="--darkreader-inline-fill:#161718; --darkreader-inline-stroke:#161718;"></polygon>
        </g>
        <!-- b&#45;&gt;a -->
        <g id="edge12" class="edge"><title>b-&gt;a</title>
            <path fill="none" stroke="black" d="M91.3133,-163.135C82.4074,-163.74 72.1844,-163.899 62.588,-163.611" data-darkreader-inline-fill="" data-darkreader-inline-stroke="" style="--darkreader-inline-fill:none; --darkreader-inline-stroke:#161718;"></path>
            <polygon fill="black" stroke="black" points="62.6704,-160.111 52.5129,-163.123 62.3321,-167.103 62.6704,-160.111" data-darkreader-inline-fill="" data-darkreader-inline-stroke="" style="--darkreader-inline-fill:#161718; --darkreader-inline-stroke:#161718;"></polygon>
        </g>
        <!-- b&#45;&gt;c -->
        <g id="edge14" class="edge"><title>b-&gt;c</title>
            <path fill="none" stroke="black" d="M142.542,-163.421C153.626,-168.652 167.105,-175.077 180,-179 257.158,-202.477 279.512,-196.879 360,-202 383.952,-203.524 390.504,-206.894 414,-202 423.269,-200.069 432.852,-196.675 441.63,-193.213" data-darkreader-inline-fill="" data-darkreader-inline-stroke="" style="--darkreader-inline-fill:none; --darkreader-inline-stroke:#161718;"></path>
            <polygon fill="black" stroke="black" points="443.192,-196.356 451.139,-189.35 440.557,-189.871 443.192,-196.356" data-darkreader-inline-fill="" data-darkreader-inline-stroke="" style="--darkreader-inline-fill:#161718; --darkreader-inline-stroke:#161718;"></polygon>
        </g>
        <!-- b&#45;&gt;d -->
        <g id="edge16" class="edge"><title>b-&gt;d</title>
            <path fill="none" stroke="black" d="M144.185,-155.427C192.835,-157.116 297.147,-167.461 351.487,-175.819" data-darkreader-inline-fill="" data-darkreader-inline-stroke="" style="--darkreader-inline-fill:none; --darkreader-inline-stroke:#161718;"></path>
            <polygon fill="black" stroke="black" points="351.227,-179.323 361.657,-177.461 352.343,-172.412 351.227,-179.323" data-darkreader-inline-fill="" data-darkreader-inline-stroke="" style="--darkreader-inline-fill:#161718; --darkreader-inline-stroke:#161718;"></polygon>
        </g>
        <!-- b&#45;&gt;e -->
        <g id="edge18" class="edge"><title>b-&gt;e</title>
            <path fill="none" stroke="black" d="M141.27,-148.608C171.332,-141.508 223.998,-132.941 259.432,-129.175" data-darkreader-inline-fill="" data-darkreader-inline-stroke="" style="--darkreader-inline-fill:none; --darkreader-inline-stroke:#161718;"></path>
            <polygon fill="black" stroke="black" points="260.215,-132.616 269.831,-128.168 259.54,-125.649 260.215,-132.616" data-darkreader-inline-fill="" data-darkreader-inline-stroke="" style="--darkreader-inline-fill:#161718; --darkreader-inline-stroke:#161718;"></polygon>
        </g>
        <!-- b&#45;&gt;f -->
        <g id="edge20" class="edge"><title>b-&gt;f</title>
            <path fill="none" stroke="black" d="M126.279,-139.777C140.1,-115.087 168.216,-70.1714 187.087,-42.2135" data-darkreader-inline-fill="" data-darkreader-inline-stroke="" style="--darkreader-inline-fill:none; --darkreader-inline-stroke:#161718;"></path>
            <polygon fill="black" stroke="black" points="190.1,-44.0084 192.859,-33.7792 184.323,-40.055 190.1,-44.0084" data-darkreader-inline-fill="" data-darkreader-inline-stroke="" style="--darkreader-inline-fill:#161718; --darkreader-inline-stroke:#161718;"></polygon>
        </g>
        <!-- c&#45;&gt;a -->
        <g id="edge22" class="edge"><title>c-&gt;a</title>
            <path fill="none" stroke="black" d="M469.904,-201.469C450.828,-246.647 388.126,-362 298,-362 206,-362 206,-362 206,-362 113.397,-362 56.3073,-240.617 36.1854,-184.511" data-darkreader-inline-fill="" data-darkreader-inline-stroke="" style="--darkreader-inline-fill:none; --darkreader-inline-stroke:#161718;"></path>
            <polygon fill="black" stroke="black" points="39.4207,-183.156 32.8582,-174.839 32.8014,-185.433 39.4207,-183.156" data-darkreader-inline-fill="" data-darkreader-inline-stroke="" style="--darkreader-inline-fill:#161718; --darkreader-inline-stroke:#161718;"></polygon>
        </g>
        <!-- c&#45;&gt;b -->
        <g id="edge24" class="edge"><title>c-&gt;b</title>
            <path fill="none" stroke="black" d="M461.781,-199.396C449.563,-207.756 431.24,-216.409 414,-220 390.504,-224.894 383.952,-221.524 360,-220 279.512,-214.879 257.158,-220.477 180,-197 166.01,-192.743 151.332,-185.543 139.771,-178.19" data-darkreader-inline-fill="" data-darkreader-inline-stroke="" style="--darkreader-inline-fill:none; --darkreader-inline-stroke:#161718;"></path>
            <polygon fill="black" stroke="black" points="141.461,-175.104 131.24,-172.314 137.49,-180.869 141.461,-175.104" data-darkreader-inline-fill="" data-darkreader-inline-stroke="" style="--darkreader-inline-fill:#161718; --darkreader-inline-stroke:#161718;"></polygon>
        </g>
        <!-- c&#45;&gt;d -->
        <g id="edge26" class="edge"><title>c-&gt;d</title>
            <path fill="none" stroke="black" d="M451.313,-190.135C442.407,-190.74 432.184,-190.899 422.588,-190.611" data-darkreader-inline-fill="" data-darkreader-inline-stroke="" style="--darkreader-inline-fill:none; --darkreader-inline-stroke:#161718;"></path>
            <polygon fill="black" stroke="black" points="422.67,-187.111 412.513,-190.123 422.332,-194.103 422.67,-187.111" data-darkreader-inline-fill="" data-darkreader-inline-stroke="" style="--darkreader-inline-fill:#161718; --darkreader-inline-stroke:#161718;"></polygon>
        </g>
        <!-- c&#45;&gt;e -->
        <g id="edge28" class="edge"><title>c-&gt;e</title>
            <path fill="none" stroke="black" d="M450.451,-179.966C439.412,-175.672 426.243,-170.109 414,-166 385.77,-156.526 352.674,-148.864 329.074,-142.373" data-darkreader-inline-fill="" data-darkreader-inline-stroke="" style="--darkreader-inline-fill:none; --darkreader-inline-stroke:#161718;"></path>
            <polygon fill="black" stroke="black" points="329.844,-138.953 319.267,-139.566 327.918,-145.683 329.844,-138.953" data-darkreader-inline-fill="" data-darkreader-inline-stroke="" style="--darkreader-inline-fill:#161718; --darkreader-inline-stroke:#161718;"></polygon>
        </g>
        <!-- c&#45;&gt;f -->
        <g id="edge30" class="edge"><title>c-&gt;f</title>
            <path fill="none" stroke="black" d="M458.171,-170.501C431.498,-145.712 378.486,-94.2094 324,-64 296.986,-49.0221 263.017,-39.0879 238.834,-31.6457" data-darkreader-inline-fill="" data-darkreader-inline-stroke="" style="--darkreader-inline-fill:none; --darkreader-inline-stroke:#161718;"></path>
            <polygon fill="black" stroke="black" points="239.707,-28.2516 229.118,-28.6014 237.614,-34.9313 239.707,-28.2516" data-darkreader-inline-fill="" data-darkreader-inline-stroke="" style="--darkreader-inline-fill:#161718; --darkreader-inline-stroke:#161718;"></polygon>
        </g>
        <!-- d&#45;&gt;a -->
        <g id="edge32" class="edge"><title>d-&gt;a</title>
            <path fill="none" stroke="black" d="M368.004,-196.798C355.725,-201.433 339.025,-205.325 324,-207 220.456,-218.545 191.096,-218.187 90,-193 76.65,-189.674 62.5303,-183.735 51.1431,-177.409" data-darkreader-inline-fill="" data-darkreader-inline-stroke="" style="--darkreader-inline-fill:none; --darkreader-inline-stroke:#161718;"></path>
            <polygon fill="black" stroke="black" points="52.6644,-174.239 42.2974,-172.054 49.0388,-180.227 52.6644,-174.239" data-darkreader-inline-fill="" data-darkreader-inline-stroke="" style="--darkreader-inline-fill:#161718; --darkreader-inline-stroke:#161718;"></polygon>
        </g>
        <!-- d&#45;&gt;b -->
        <g id="edge34" class="edge"><title>d-&gt;b</title>
            <path fill="none" stroke="black" d="M360.036,-185.581C311.457,-183.914 206.835,-173.542 152.435,-165.169" data-darkreader-inline-fill="" data-darkreader-inline-stroke="" style="--darkreader-inline-fill:none; --darkreader-inline-stroke:#161718;"></path>
            <polygon fill="black" stroke="black" points="152.686,-161.664 142.256,-163.524 151.569,-168.574 152.686,-161.664" data-darkreader-inline-fill="" data-darkreader-inline-stroke="" style="--darkreader-inline-fill:#161718; --darkreader-inline-stroke:#161718;"></polygon>
        </g>
        <!-- d&#45;&gt;c -->
        <g id="edge36" class="edge"><title>d-&gt;c</title>
            <path fill="none" stroke="black" d="M412.513,-177.877C421.402,-177.266 431.62,-177.102 441.224,-177.384" data-darkreader-inline-fill="" data-darkreader-inline-stroke="" style="--darkreader-inline-fill:none; --darkreader-inline-stroke:#161718;"></path>
            <polygon fill="black" stroke="black" points="441.158,-180.884 451.313,-177.865 441.491,-173.892 441.158,-180.884" data-darkreader-inline-fill="" data-darkreader-inline-stroke="" style="--darkreader-inline-fill:#161718; --darkreader-inline-stroke:#161718;"></polygon>
        </g>
        <!-- d&#45;&gt;e -->
        <g id="edge38" class="edge"><title>d-&gt;e</title>
            <path fill="none" stroke="black" d="M363.044,-175.663C350.191,-168.607 334.204,-158.624 321.296,-149.596" data-darkreader-inline-fill="" data-darkreader-inline-stroke="" style="--darkreader-inline-fill:none; --darkreader-inline-stroke:#161718;"></path>
            <polygon fill="black" stroke="black" points="323.083,-146.569 312.928,-143.547 318.982,-152.242 323.083,-146.569" data-darkreader-inline-fill="" data-darkreader-inline-stroke="" style="--darkreader-inline-fill:#161718; --darkreader-inline-stroke:#161718;"></polygon>
        </g>
        <!-- d&#45;&gt;f -->
        <g id="edge40" class="edge"><title>d-&gt;f</title>
            <path fill="none" stroke="black" d="M371.806,-169.022C360.163,-153.341 342.614,-129.234 324,-111 295.05,-82.6416 255.944,-56.3444 231.348,-38.6559" data-darkreader-inline-fill="" data-darkreader-inline-stroke="" style="--darkreader-inline-fill:none; --darkreader-inline-stroke:#161718;"></path>
            <polygon fill="black" stroke="black" points="233.126,-35.6201 222.988,-32.5407 228.993,-41.2698 233.126,-35.6201" data-darkreader-inline-fill="" data-darkreader-inline-stroke="" style="--darkreader-inline-fill:#161718; --darkreader-inline-stroke:#161718;"></polygon>
        </g>
        <!-- e&#45;&gt;a -->
        <g id="edge42" class="edge"><title>e-&gt;a</title>
            <path fill="none" stroke="black" d="M270.278,-131.602C230.94,-130.732 153.691,-125.572 90,-139 80.7353,-140.953 71.1548,-144.355 62.3768,-147.818" data-darkreader-inline-fill="" data-darkreader-inline-stroke="" style="--darkreader-inline-fill:none; --darkreader-inline-stroke:#161718;"></path>
            <polygon fill="black" stroke="black" points="60.8154,-144.675 52.8669,-151.68 63.449,-151.161 60.8154,-144.675" data-darkreader-inline-fill="" data-darkreader-inline-stroke="" style="--darkreader-inline-fill:#161718; --darkreader-inline-stroke:#161718;"></polygon>
        </g>
        <!-- e&#45;&gt;b -->
        <g id="edge44" class="edge"><title>e-&gt;b</title>
            <path fill="none" stroke="black" d="M273.026,-137.322C242.923,-144.458 189.792,-153.099 154.24,-156.859" data-darkreader-inline-fill="" data-darkreader-inline-stroke="" style="--darkreader-inline-fill:none; --darkreader-inline-stroke:#161718;"></path>
            <polygon fill="black" stroke="black" points="153.881,-153.378 144.265,-157.824 154.555,-160.345 153.881,-153.378" data-darkreader-inline-fill="" data-darkreader-inline-stroke="" style="--darkreader-inline-fill:#161718; --darkreader-inline-stroke:#161718;"></polygon>
        </g>
        <!-- e&#45;&gt;c -->
        <g id="edge46" class="edge"><title>e-&gt;c</title>
            <path fill="none" stroke="black" d="M324.166,-126.918C347.919,-129.779 383.753,-137.849 414,-148 426.869,-152.319 440.761,-158.244 452.127,-164.273" data-darkreader-inline-fill="" data-darkreader-inline-stroke="" style="--darkreader-inline-fill:none; --darkreader-inline-stroke:#161718;"></path>
            <polygon fill="black" stroke="black" points="450.58,-167.42 461.002,-169.329 454.045,-161.338 450.58,-167.42" data-darkreader-inline-fill="" data-darkreader-inline-stroke="" style="--darkreader-inline-fill:#161718; --darkreader-inline-stroke:#161718;"></polygon>
        </g>
        <!-- e&#45;&gt;d -->
        <g id="edge48" class="edge"><title>e-&gt;d</title>
            <path fill="none" stroke="black" d="M321.121,-137.427C333.947,-144.479 349.855,-154.417 362.709,-163.407" data-darkreader-inline-fill="" data-darkreader-inline-stroke="" style="--darkreader-inline-fill:none; --darkreader-inline-stroke:#161718;"></path>
            <polygon fill="black" stroke="black" points="360.889,-166.41 371.044,-169.432 364.99,-160.737 360.889,-166.41" data-darkreader-inline-fill="" data-darkreader-inline-stroke="" style="--darkreader-inline-fill:#161718; --darkreader-inline-stroke:#161718;"></polygon>
        </g>
        <!-- e&#45;&gt;f -->
        <g id="edge50" class="edge"><title>e-&gt;f</title>
            <path fill="none" stroke="black" d="M278.014,-115.928C275.313,-112.685 272.572,-109.259 270,-106 253.702,-85.3427 250.298,-79.6573 234,-59 230.043,-53.9844 225.685,-48.5766 221.686,-43.2783" data-darkreader-inline-fill="" data-darkreader-inline-stroke="" style="--darkreader-inline-fill:none; --darkreader-inline-stroke:#161718;"></path>
            <polygon fill="black" stroke="black" points="224.492,-41.1846 215.808,-35.1146 218.811,-45.2749 224.492,-41.1846" data-darkreader-inline-fill="" data-darkreader-inline-stroke="" style="--darkreader-inline-fill:#161718; --darkreader-inline-stroke:#161718;"></polygon>
        </g>
        <!-- f&#45;&gt;a -->
        <g id="edge52" class="edge"><title>f-&gt;a</title>
            <path fill="none" stroke="black" d="M182.799,-26.1124C157.602,-31.2447 117.306,-38.8359 90,-60 66.3274,-78.348 49.9653,-108.48 40.019,-130.45" data-darkreader-inline-fill="" data-darkreader-inline-stroke="" style="--darkreader-inline-fill:none; --darkreader-inline-stroke:#161718;"></path>
            <polygon fill="black" stroke="black" points="36.6878,-129.333 35.8974,-139.898 43.1039,-132.131 36.6878,-129.333" data-darkreader-inline-fill="" data-darkreader-inline-stroke="" style="--darkreader-inline-fill:#161718; --darkreader-inline-stroke:#161718;"></polygon>
        </g>
        <!-- f&#45;&gt;b -->
        <g id="edge54" class="edge"><title>f-&gt;b</title>
            <path fill="none" stroke="black" d="M197.721,-35.2229C183.86,-59.9834 155.624,-105.084 136.753,-133.024" data-darkreader-inline-fill="" data-darkreader-inline-stroke="" style="--darkreader-inline-fill:none; --darkreader-inline-stroke:#161718;"></path>
            <polygon fill="black" stroke="black" points="133.748,-131.217 130.985,-141.445 139.523,-135.173 133.748,-131.217" data-darkreader-inline-fill="" data-darkreader-inline-stroke="" style="--darkreader-inline-fill:#161718; --darkreader-inline-stroke:#161718;"></polygon>
        </g>
        <!-- f&#45;&gt;c -->
        <g id="edge56" class="edge"><title>f-&gt;c</title>
            <path fill="none" stroke="black" d="M234.07,-16.2434C258.394,-19.7683 295.16,-30.0099 324,-46 379.018,-76.5044 432.533,-128.72 458.945,-159.662" data-darkreader-inline-fill="" data-darkreader-inline-stroke="" style="--darkreader-inline-fill:none; --darkreader-inline-stroke:#161718;"></path>
            <polygon fill="black" stroke="black" points="456.288,-161.941 465.358,-167.417 461.682,-157.48 456.288,-161.941" data-darkreader-inline-fill="" data-darkreader-inline-stroke="" style="--darkreader-inline-fill:#161718; --darkreader-inline-stroke:#161718;"></polygon>
        </g>
        <!-- f&#45;&gt;d -->
        <g id="edge58" class="edge"><title>f-&gt;d</title>
            <path fill="none" stroke="black" d="M231.795,-25.5388C256.416,-38.6621 295.225,-64.8129 324,-93 343.812,-112.407 362.416,-138.466 373.979,-157.965" data-darkreader-inline-fill="" data-darkreader-inline-stroke="" style="--darkreader-inline-fill:none; --darkreader-inline-stroke:#161718;"></path>
            <polygon fill="black" stroke="black" points="370.944,-159.708 378.919,-166.682 377.034,-156.257 370.944,-159.708" data-darkreader-inline-fill="" data-darkreader-inline-stroke="" style="--darkreader-inline-fill:#161718; --darkreader-inline-stroke:#161718;"></polygon>
        </g>
        <!-- f&#45;&gt;e -->
        <g id="edge60" class="edge"><title>f-&gt;e</title>
            <path fill="none" stroke="black" d="M225.986,-31.0718C228.687,-34.3155 231.428,-37.7406 234,-41 250.298,-61.6573 253.702,-67.3427 270,-88 273.957,-93.0156 278.315,-98.4234 282.314,-103.722" data-darkreader-inline-fill="" data-darkreader-inline-stroke="" style="--darkreader-inline-fill:none; --darkreader-inline-stroke:#161718;"></path>
            <polygon fill="black" stroke="black" points="279.508,-105.815 288.192,-111.885 285.189,-101.725 279.508,-105.815" data-darkreader-inline-fill="" data-darkreader-inline-stroke="" style="--darkreader-inline-fill:#161718; --darkreader-inline-stroke:#161718;"></polygon>
        </g>
    </g>
</svg>