<?xml version="1.0" encoding="us-ascii" standalone="no"?><svg xmlns="http://www.w3.org/2000/svg" xmlns:xlink="http://www.w3.org/1999/xlink" contentStyleType="text/css" height="235px" preserveAspectRatio="none" style="width:275px;height:235px;background:#FFFFFF;" version="1.1" viewBox="0 0 275 235" width="275px" zoomAndPan="magnify"><defs/><g><!--class AbstractClass--><g id="elem_AbstractClass"><rect codeLine="1" fill="#F1F1F1" height="80.5938" id="AbstractClass" rx="2.5" ry="2.5" style="stroke:#181818;stroke-width:0.5;" width="259" x="9" y="7"/><ellipse cx="88.25" cy="23" fill="#A9DCDF" rx="11" ry="11" style="stroke:#181818;stroke-width:1.0;"/><path d="M88.3594,18.3438 L87.2031,23.4219 L89.5313,23.4219 L88.3594,18.3438 Z M86.875,16.1094 L89.8594,16.1094 L93.2188,28.5 L90.7656,28.5 L90,25.4375 L86.7188,25.4375 L85.9688,28.5 L83.5313,28.5 L86.875,16.1094 Z " fill="#000000"/><text fill="#000000" font-family="sans-serif" font-size="14" font-style="italic" lengthAdjust="spacing" textLength="92" x="108.75" y="27.8467">AbstractClass</text><line style="stroke:#181818;stroke-width:0.5;" x1="10" x2="267" y1="39" y2="39"/><line style="stroke:#181818;stroke-width:0.5;" x1="10" x2="267" y1="47" y2="47"/><ellipse cx="20" cy="60.6484" fill="#84BE84" rx="3" ry="3" style="stroke:#038048;stroke-width:1.0;"/><text fill="#000000" font-family="sans-serif" font-size="14" lengthAdjust="spacing" textLength="74" x="29" y="63.9951">&#171;abstract&#187;</text><text fill="#000000" font-family="sans-serif" font-size="14" font-style="italic" lengthAdjust="spacing" textLength="118" x="107" y="63.9951">abstractMethod()</text><text fill="#000000" font-family="sans-serif" font-size="14" lengthAdjust="spacing" textLength="37" x="225" y="63.9951">: void</text><polygon fill="#FFFF44" points="20,71.9453,24,75.9453,20,79.9453,16,75.9453" style="stroke:#B38D22;stroke-width:1.0;"/><text fill="#000000" font-family="sans-serif" font-size="14" lengthAdjust="spacing" textLength="162" x="29" y="80.292">concreteMethod(): void</text></g><!--class ConcreteClass--><g id="elem_ConcreteClass"><rect codeLine="6" fill="#F1F1F1" height="80.5938" id="ConcreteClass" rx="2.5" ry="2.5" style="stroke:#181818;stroke-width:0.5;" width="188" x="44.5" y="148"/><ellipse cx="84.25" cy="164" fill="#ADD1B2" rx="11" ry="11" style="stroke:#181818;stroke-width:1.0;"/><path d="M87.2188,169.6406 Q86.6406,169.9375 86,170.0781 Q85.3594,170.2344 84.6563,170.2344 Q82.1563,170.2344 80.8281,168.5938 Q79.5156,166.9375 79.5156,163.8125 Q79.5156,160.6875 80.8281,159.0313 Q82.1563,157.375 84.6563,157.375 Q85.3594,157.375 86,157.5313 Q86.6563,157.6875 87.2188,157.9844 L87.2188,160.7031 Q86.5938,160.125 86,159.8594 Q85.4063,159.5781 84.7813,159.5781 Q83.4375,159.5781 82.75,160.6563 Q82.0625,161.7188 82.0625,163.8125 Q82.0625,165.9063 82.75,166.9844 Q83.4375,168.0469 84.7813,168.0469 Q85.4063,168.0469 86,167.7813 Q86.5938,167.5 87.2188,166.9219 L87.2188,169.6406 Z " fill="#000000"/><text fill="#000000" font-family="sans-serif" font-size="14" lengthAdjust="spacing" textLength="101" x="103.75" y="168.8467">ConcreteClass</text><line style="stroke:#181818;stroke-width:0.5;" x1="45.5" x2="231.5" y1="180" y2="180"/><line style="stroke:#181818;stroke-width:0.5;" x1="45.5" x2="231.5" y1="188" y2="188"/><ellipse cx="55.5" cy="201.6484" fill="#84BE84" rx="3" ry="3" style="stroke:#038048;stroke-width:1.0;"/><text fill="#000000" font-family="sans-serif" font-size="14" lengthAdjust="spacing" textLength="156" x="64.5" y="204.9951">abstractMethod(): void</text><ellipse cx="55.5" cy="217.9453" fill="#84BE84" rx="3" ry="3" style="stroke:#038048;stroke-width:1.0;"/><text fill="#000000" font-family="sans-serif" font-size="14" lengthAdjust="spacing" textLength="162" x="64.5" y="221.292">concreteMethod(): void</text></g><!--reverse link AbstractClass to ConcreteClass--><g id="link_AbstractClass_ConcreteClass"><path codeLine="11" d="M138.5,106.33 C138.5,124.94 138.5,129.05 138.5,147.66 " fill="none" id="AbstractClass-backto-ConcreteClass" style="stroke:#181818;stroke-width:1.0;"/><polygon fill="none" points="138.5,88.33,132.5,106.33,144.5,106.33,138.5,88.33" style="stroke:#181818;stroke-width:1.0;"/></g><!--SRC=[IqmgBYbAJ2vHICv9B2vMS8HodS6yQYu51Mq56vj4gAYTdO9DfXsCvvjQaf6Veg5fevzfPwLGbf-P0bIkh92SdvTSb5gI2fE6IjLoSK6iS8RA8rk1RYJSE6qyng6wrQP6LnVLR000]--></g></svg>