<?xml version="1.0" encoding="us-ascii" standalone="no"?><svg xmlns="http://www.w3.org/2000/svg" xmlns:xlink="http://www.w3.org/1999/xlink" contentStyleType="text/css" height="170px" preserveAspectRatio="none" style="width:466px;height:170px;background:#FFFFFF;" version="1.1" viewBox="0 0 466 170" width="466px" zoomAndPan="magnify"><defs/><g><!--class aggregator--><g id="elem_aggregator"><rect fill="#F1F1F1" height="48" id="aggregator" rx="2.5" ry="2.5" style="stroke:#181818;stroke-width:0.5;" width="108" x="9" y="7"/><ellipse cx="24" cy="23" fill="#ADD1B2" rx="11" ry="11" style="stroke:#181818;stroke-width:1.0;"/><path d="M26.9688,28.6406 Q26.3906,28.9375 25.75,29.0781 Q25.1094,29.2344 24.4063,29.2344 Q21.9063,29.2344 20.5781,27.5938 Q19.2656,25.9375 19.2656,22.8125 Q19.2656,19.6875 20.5781,18.0313 Q21.9063,16.375 24.4063,16.375 Q25.1094,16.375 25.75,16.5313 Q26.4063,16.6875 26.9688,16.9844 L26.9688,19.7031 Q26.3438,19.125 25.75,18.8594 Q25.1563,18.5781 24.5313,18.5781 Q23.1875,18.5781 22.5,19.6563 Q21.8125,20.7188 21.8125,22.8125 Q21.8125,24.9063 22.5,25.9844 Q23.1875,27.0469 24.5313,27.0469 Q25.1563,27.0469 25.75,26.7813 Q26.3438,26.5 26.9688,25.9219 L26.9688,28.6406 Z " fill="#000000"/><text fill="#000000" font-family="sans-serif" font-size="14" lengthAdjust="spacing" textLength="76" x="38" y="27.8467">aggregator</text><line style="stroke:#181818;stroke-width:0.5;" x1="10" x2="116" y1="39" y2="39"/><line style="stroke:#181818;stroke-width:0.5;" x1="10" x2="116" y1="47" y2="47"/></g><!--class aggregated--><g id="elem_aggregated"><rect fill="#F1F1F1" height="48" id="aggregated" rx="2.5" ry="2.5" style="stroke:#181818;stroke-width:0.5;" width="112" x="7" y="115"/><ellipse cx="22" cy="131" fill="#ADD1B2" rx="11" ry="11" style="stroke:#181818;stroke-width:1.0;"/><path d="M24.9688,136.6406 Q24.3906,136.9375 23.75,137.0781 Q23.1094,137.2344 22.4063,137.2344 Q19.9063,137.2344 18.5781,135.5938 Q17.2656,133.9375 17.2656,130.8125 Q17.2656,127.6875 18.5781,126.0313 Q19.9063,124.375 22.4063,124.375 Q23.1094,124.375 23.75,124.5313 Q24.4063,124.6875 24.9688,124.9844 L24.9688,127.7031 Q24.3438,127.125 23.75,126.8594 Q23.1563,126.5781 22.5313,126.5781 Q21.1875,126.5781 20.5,127.6563 Q19.8125,128.7188 19.8125,130.8125 Q19.8125,132.9063 20.5,133.9844 Q21.1875,135.0469 22.5313,135.0469 Q23.1563,135.0469 23.75,134.7813 Q24.3438,134.5 24.9688,133.9219 L24.9688,136.6406 Z " fill="#000000"/><text fill="#000000" font-family="sans-serif" font-size="14" lengthAdjust="spacing" textLength="80" x="36" y="135.8467">aggregated</text><line style="stroke:#181818;stroke-width:0.5;" x1="8" x2="118" y1="147" y2="147"/><line style="stroke:#181818;stroke-width:0.5;" x1="8" x2="118" y1="155" y2="155"/></g><!--class set--><g id="elem_set"><rect fill="#F1F1F1" height="48" id="set" rx="2.5" ry="2.5" style="stroke:#181818;stroke-width:0.5;" width="54" x="172" y="7"/><ellipse cx="187" cy="23" fill="#ADD1B2" rx="11" ry="11" style="stroke:#181818;stroke-width:1.0;"/><path d="M189.9688,28.6406 Q189.3906,28.9375 188.75,29.0781 Q188.1094,29.2344 187.4063,29.2344 Q184.9063,29.2344 183.5781,27.5938 Q182.2656,25.9375 182.2656,22.8125 Q182.2656,19.6875 183.5781,18.0313 Q184.9063,16.375 187.4063,16.375 Q188.1094,16.375 188.75,16.5313 Q189.4063,16.6875 189.9688,16.9844 L189.9688,19.7031 Q189.3438,19.125 188.75,18.8594 Q188.1563,18.5781 187.5313,18.5781 Q186.1875,18.5781 185.5,19.6563 Q184.8125,20.7188 184.8125,22.8125 Q184.8125,24.9063 185.5,25.9844 Q186.1875,27.0469 187.5313,27.0469 Q188.1563,27.0469 188.75,26.7813 Q189.3438,26.5 189.9688,25.9219 L189.9688,28.6406 Z " fill="#000000"/><text fill="#000000" font-family="sans-serif" font-size="14" lengthAdjust="spacing" textLength="22" x="201" y="27.8467">set</text><line style="stroke:#181818;stroke-width:0.5;" x1="173" x2="225" y1="39" y2="39"/><line style="stroke:#181818;stroke-width:0.5;" x1="173" x2="225" y1="47" y2="47"/></g><!--class element--><g id="elem_element"><rect fill="#F1F1F1" height="48" id="element" rx="2.5" ry="2.5" style="stroke:#181818;stroke-width:0.5;" width="89" x="154.5" y="115"/><ellipse cx="169.5" cy="131" fill="#ADD1B2" rx="11" ry="11" style="stroke:#181818;stroke-width:1.0;"/><path d="M172.4688,136.6406 Q171.8906,136.9375 171.25,137.0781 Q170.6094,137.2344 169.9063,137.2344 Q167.4063,137.2344 166.0781,135.5938 Q164.7656,133.9375 164.7656,130.8125 Q164.7656,127.6875 166.0781,126.0313 Q167.4063,124.375 169.9063,124.375 Q170.6094,124.375 171.25,124.5313 Q171.9063,124.6875 172.4688,124.9844 L172.4688,127.7031 Q171.8438,127.125 171.25,126.8594 Q170.6563,126.5781 170.0313,126.5781 Q168.6875,126.5781 168,127.6563 Q167.3125,128.7188 167.3125,130.8125 Q167.3125,132.9063 168,133.9844 Q168.6875,135.0469 170.0313,135.0469 Q170.6563,135.0469 171.25,134.7813 Q171.8438,134.5 172.4688,133.9219 L172.4688,136.6406 Z " fill="#000000"/><text fill="#000000" font-family="sans-serif" font-size="14" lengthAdjust="spacing" textLength="57" x="183.5" y="135.8467">element</text><line style="stroke:#181818;stroke-width:0.5;" x1="155.5" x2="242.5" y1="147" y2="147"/><line style="stroke:#181818;stroke-width:0.5;" x1="155.5" x2="242.5" y1="155" y2="155"/></g><!--class all--><g id="elem_all"><rect fill="#F1F1F1" height="48" id="all" rx="2.5" ry="2.5" style="stroke:#181818;stroke-width:0.5;" width="46" x="285" y="7"/><ellipse cx="300" cy="23" fill="#ADD1B2" rx="11" ry="11" style="stroke:#181818;stroke-width:1.0;"/><path d="M302.9688,28.6406 Q302.3906,28.9375 301.75,29.0781 Q301.1094,29.2344 300.4063,29.2344 Q297.9063,29.2344 296.5781,27.5938 Q295.2656,25.9375 295.2656,22.8125 Q295.2656,19.6875 296.5781,18.0313 Q297.9063,16.375 300.4063,16.375 Q301.1094,16.375 301.75,16.5313 Q302.4063,16.6875 302.9688,16.9844 L302.9688,19.7031 Q302.3438,19.125 301.75,18.8594 Q301.1563,18.5781 300.5313,18.5781 Q299.1875,18.5781 298.5,19.6563 Q297.8125,20.7188 297.8125,22.8125 Q297.8125,24.9063 298.5,25.9844 Q299.1875,27.0469 300.5313,27.0469 Q301.1563,27.0469 301.75,26.7813 Q302.3438,26.5 302.9688,25.9219 L302.9688,28.6406 Z " fill="#000000"/><text fill="#000000" font-family="sans-serif" font-size="14" lengthAdjust="spacing" textLength="14" x="314" y="27.8467">all</text><line style="stroke:#181818;stroke-width:0.5;" x1="286" x2="330" y1="39" y2="39"/><line style="stroke:#181818;stroke-width:0.5;" x1="286" x2="330" y1="47" y2="47"/></g><!--class part--><g id="elem_part"><rect fill="#F1F1F1" height="48" id="part" rx="2.5" ry="2.5" style="stroke:#181818;stroke-width:0.5;" width="59" x="278.5" y="115"/><ellipse cx="293.5" cy="131" fill="#ADD1B2" rx="11" ry="11" style="stroke:#181818;stroke-width:1.0;"/><path d="M296.4688,136.6406 Q295.8906,136.9375 295.25,137.0781 Q294.6094,137.2344 293.9063,137.2344 Q291.4063,137.2344 290.0781,135.5938 Q288.7656,133.9375 288.7656,130.8125 Q288.7656,127.6875 290.0781,126.0313 Q291.4063,124.375 293.9063,124.375 Q294.6094,124.375 295.25,124.5313 Q295.9063,124.6875 296.4688,124.9844 L296.4688,127.7031 Q295.8438,127.125 295.25,126.8594 Q294.6563,126.5781 294.0313,126.5781 Q292.6875,126.5781 292,127.6563 Q291.3125,128.7188 291.3125,130.8125 Q291.3125,132.9063 292,133.9844 Q292.6875,135.0469 294.0313,135.0469 Q294.6563,135.0469 295.25,134.7813 Q295.8438,134.5 296.4688,133.9219 L296.4688,136.6406 Z " fill="#000000"/><text fill="#000000" font-family="sans-serif" font-size="14" lengthAdjust="spacing" textLength="27" x="307.5" y="135.8467">part</text><line style="stroke:#181818;stroke-width:0.5;" x1="279.5" x2="336.5" y1="147" y2="147"/><line style="stroke:#181818;stroke-width:0.5;" x1="279.5" x2="336.5" y1="155" y2="155"/></g><!--class teacher--><g id="elem_teacher"><rect fill="#F1F1F1" height="48" id="teacher" rx="2.5" ry="2.5" style="stroke:#181818;stroke-width:0.5;" width="85" x="373.5" y="7"/><ellipse cx="388.5" cy="23" fill="#ADD1B2" rx="11" ry="11" style="stroke:#181818;stroke-width:1.0;"/><path d="M391.4688,28.6406 Q390.8906,28.9375 390.25,29.0781 Q389.6094,29.2344 388.9063,29.2344 Q386.4063,29.2344 385.0781,27.5938 Q383.7656,25.9375 383.7656,22.8125 Q383.7656,19.6875 385.0781,18.0313 Q386.4063,16.375 388.9063,16.375 Q389.6094,16.375 390.25,16.5313 Q390.9063,16.6875 391.4688,16.9844 L391.4688,19.7031 Q390.8438,19.125 390.25,18.8594 Q389.6563,18.5781 389.0313,18.5781 Q387.6875,18.5781 387,19.6563 Q386.3125,20.7188 386.3125,22.8125 Q386.3125,24.9063 387,25.9844 Q387.6875,27.0469 389.0313,27.0469 Q389.6563,27.0469 390.25,26.7813 Q390.8438,26.5 391.4688,25.9219 L391.4688,28.6406 Z " fill="#000000"/><text fill="#000000" font-family="sans-serif" font-size="14" lengthAdjust="spacing" textLength="53" x="402.5" y="27.8467">teacher</text><line style="stroke:#181818;stroke-width:0.5;" x1="374.5" x2="457.5" y1="39" y2="39"/><line style="stroke:#181818;stroke-width:0.5;" x1="374.5" x2="457.5" y1="47" y2="47"/></g><!--class student--><g id="elem_student"><rect fill="#F1F1F1" height="48" id="student" rx="2.5" ry="2.5" style="stroke:#181818;stroke-width:0.5;" width="86" x="373" y="115"/><ellipse cx="388" cy="131" fill="#ADD1B2" rx="11" ry="11" style="stroke:#181818;stroke-width:1.0;"/><path d="M390.9688,136.6406 Q390.3906,136.9375 389.75,137.0781 Q389.1094,137.2344 388.4063,137.2344 Q385.9063,137.2344 384.5781,135.5938 Q383.2656,133.9375 383.2656,130.8125 Q383.2656,127.6875 384.5781,126.0313 Q385.9063,124.375 388.4063,124.375 Q389.1094,124.375 389.75,124.5313 Q390.4063,124.6875 390.9688,124.9844 L390.9688,127.7031 Q390.3438,127.125 389.75,126.8594 Q389.1563,126.5781 388.5313,126.5781 Q387.1875,126.5781 386.5,127.6563 Q385.8125,128.7188 385.8125,130.8125 Q385.8125,132.9063 386.5,133.9844 Q387.1875,135.0469 388.5313,135.0469 Q389.1563,135.0469 389.75,134.7813 Q390.3438,134.5 390.9688,133.9219 L390.9688,136.6406 Z " fill="#000000"/><text fill="#000000" font-family="sans-serif" font-size="14" lengthAdjust="spacing" textLength="54" x="402" y="135.8467">student</text><line style="stroke:#181818;stroke-width:0.5;" x1="374" x2="458" y1="147" y2="147"/><line style="stroke:#181818;stroke-width:0.5;" x1="374" x2="458" y1="155" y2="155"/></g><!--reverse link aggregator to aggregated--><g id="link_aggregator_aggregated"><path codeLine="1" d="M63,67 C63,84.66 63,96.94 63,114.68 " fill="none" id="aggregator-backto-aggregated" style="stroke:#181818;stroke-width:1.0;"/><polygon fill="none" points="63,55,59,61,63,67,67,61,63,55" style="stroke:#181818;stroke-width:1.0;"/><ellipse cx="54.8125" cy="104.6369" fill="#000000" rx="2.5" ry="2.5" style="stroke:#000000;stroke-width:0.0;"/></g><!--reverse link set to element--><g id="link_set_element"><path codeLine="2" d="M199,67 C199,84.66 199,96.94 199,114.68 " fill="none" id="set-backto-element" style="stroke:#181818;stroke-width:1.0;"/><polygon fill="none" points="199,55,195,61,199,67,203,61,199,55" style="stroke:#181818;stroke-width:1.0;"/><ellipse cx="190.8125" cy="104.6369" fill="#000000" rx="2.5" ry="2.5" style="stroke:#000000;stroke-width:0.0;"/></g><!--reverse link all to part--><g id="link_all_part"><path codeLine="3" d="M308,67 C308,84.66 308,96.94 308,114.68 " fill="none" id="all-backto-part" style="stroke:#181818;stroke-width:1.0;"/><polygon fill="none" points="308,55,304,61,308,67,312,61,308,55" style="stroke:#181818;stroke-width:1.0;"/><ellipse cx="299.8125" cy="104.6369" fill="#000000" rx="2.5" ry="2.5" style="stroke:#000000;stroke-width:0.0;"/></g><!--reverse link teacher to student--><g id="link_teacher_student"><path codeLine="4" d="M416,67 C416,84.66 416,96.94 416,114.68 " fill="none" id="teacher-backto-student" style="stroke:#181818;stroke-width:1.0;"/><polygon fill="none" points="416,55,412,61,416,67,420,61,416,55" style="stroke:#181818;stroke-width:1.0;"/><ellipse cx="407.8125" cy="104.6369" fill="#000000" rx="2.5" ry="2.5" style="stroke:#000000;stroke-width:0.0;"/></g><!--SRC=[IqnFBqfDJop9BrB8rzLLKD9IK59GIeGAfgOeSHMdbY39fEQavgRcbIXn9URa80aN91O1nKfI4vCpKf4DAYufJG4f1m00]--></g></svg>