<?xml version="1.0" encoding="us-ascii" standalone="no"?><svg xmlns="http://www.w3.org/2000/svg" xmlns:xlink="http://www.w3.org/1999/xlink" contentStyleType="text/css" height="218px" preserveAspectRatio="none" style="width:360px;height:218px;background:#FFFFFF;" version="1.1" viewBox="0 0 360 218" width="360px" zoomAndPan="magnify"><defs/><g><!--class Class1--><g id="elem_Class1"><rect codeLine="1" fill="#F1F1F1" height="64.2969" id="Class1" rx="2.5" ry="2.5" style="stroke:#181818;stroke-width:0.5;" width="136" x="7" y="7"/><ellipse cx="48.1" cy="23" fill="#ADD1B2" rx="11" ry="11" style="stroke:#181818;stroke-width:1.0;"/><path d="M51.0688,28.6406 Q50.4906,28.9375 49.85,29.0781 Q49.2094,29.2344 48.5063,29.2344 Q46.0063,29.2344 44.6781,27.5938 Q43.3656,25.9375 43.3656,22.8125 Q43.3656,19.6875 44.6781,18.0313 Q46.0063,16.375 48.5063,16.375 Q49.2094,16.375 49.85,16.5313 Q50.5063,16.6875 51.0688,16.9844 L51.0688,19.7031 Q50.4438,19.125 49.85,18.8594 Q49.2563,18.5781 48.6313,18.5781 Q47.2875,18.5781 46.6,19.6563 Q45.9125,20.7188 45.9125,22.8125 Q45.9125,24.9063 46.6,25.9844 Q47.2875,27.0469 48.6313,27.0469 Q49.2563,27.0469 49.85,26.7813 Q50.4438,26.5 51.0688,25.9219 L51.0688,28.6406 Z " fill="#000000"/><text fill="#000000" font-family="sans-serif" font-size="14" lengthAdjust="spacing" textLength="46" x="67.9" y="27.8467">Class1</text><line style="stroke:#181818;stroke-width:0.5;" x1="8" x2="142" y1="39" y2="39"/><ellipse cx="18" cy="52.6484" fill="none" rx="3" ry="3" style="stroke:#038048;stroke-width:1.0;"/><text fill="#000000" font-family="sans-serif" font-size="14" lengthAdjust="spacing" textLength="110" x="27" y="55.9951">attribute1: Type</text><line style="stroke:#181818;stroke-width:0.5;" x1="8" x2="142" y1="63.2969" y2="63.2969"/></g><!--class Class2--><g id="elem_Class2"><rect codeLine="5" fill="#F1F1F1" height="64.2969" id="Class2" rx="2.5" ry="2.5" style="stroke:#181818;stroke-width:0.5;" width="136" x="217" y="7"/><ellipse cx="258.1" cy="23" fill="#ADD1B2" rx="11" ry="11" style="stroke:#181818;stroke-width:1.0;"/><path d="M261.0688,28.6406 Q260.4906,28.9375 259.85,29.0781 Q259.2094,29.2344 258.5063,29.2344 Q256.0063,29.2344 254.6781,27.5938 Q253.3656,25.9375 253.3656,22.8125 Q253.3656,19.6875 254.6781,18.0313 Q256.0063,16.375 258.5063,16.375 Q259.2094,16.375 259.85,16.5313 Q260.5063,16.6875 261.0688,16.9844 L261.0688,19.7031 Q260.4438,19.125 259.85,18.8594 Q259.2563,18.5781 258.6313,18.5781 Q257.2875,18.5781 256.6,19.6563 Q255.9125,20.7188 255.9125,22.8125 Q255.9125,24.9063 256.6,25.9844 Q257.2875,27.0469 258.6313,27.0469 Q259.2563,27.0469 259.85,26.7813 Q260.4438,26.5 261.0688,25.9219 L261.0688,28.6406 Z " fill="#000000"/><text fill="#000000" font-family="sans-serif" font-size="14" lengthAdjust="spacing" textLength="46" x="277.9" y="27.8467">Class2</text><line style="stroke:#181818;stroke-width:0.5;" x1="218" x2="352" y1="39" y2="39"/><ellipse cx="228" cy="52.6484" fill="none" rx="3" ry="3" style="stroke:#038048;stroke-width:1.0;"/><text fill="#000000" font-family="sans-serif" font-size="14" lengthAdjust="spacing" textLength="110" x="237" y="55.9951">attribute2: Type</text><line style="stroke:#181818;stroke-width:0.5;" x1="218" x2="352" y1="63.2969" y2="63.2969"/></g><!--class AssociationClass--><g id="elem_AssociationClass"><rect codeLine="9" fill="#F1F1F1" height="80.5938" id="AssociationClass" rx="2.5" ry="2.5" style="stroke:#181818;stroke-width:0.5;" width="148" x="106" y="131"/><ellipse cx="121" cy="147" fill="#ADD1B2" rx="11" ry="11" style="stroke:#181818;stroke-width:1.0;"/><path d="M123.9688,152.6406 Q123.3906,152.9375 122.75,153.0781 Q122.1094,153.2344 121.4063,153.2344 Q118.9063,153.2344 117.5781,151.5938 Q116.2656,149.9375 116.2656,146.8125 Q116.2656,143.6875 117.5781,142.0313 Q118.9063,140.375 121.4063,140.375 Q122.1094,140.375 122.75,140.5313 Q123.4063,140.6875 123.9688,140.9844 L123.9688,143.7031 Q123.3438,143.125 122.75,142.8594 Q122.1563,142.5781 121.5313,142.5781 Q120.1875,142.5781 119.5,143.6563 Q118.8125,144.7188 118.8125,146.8125 Q118.8125,148.9063 119.5,149.9844 Q120.1875,151.0469 121.5313,151.0469 Q122.1563,151.0469 122.75,150.7813 Q123.3438,150.5 123.9688,149.9219 L123.9688,152.6406 Z " fill="#000000"/><text fill="#000000" font-family="sans-serif" font-size="14" lengthAdjust="spacing" textLength="116" x="135" y="151.8467">AssociationClass</text><line style="stroke:#181818;stroke-width:0.5;" x1="107" x2="253" y1="163" y2="163"/><ellipse cx="117" cy="176.6484" fill="none" rx="3" ry="3" style="stroke:#038048;stroke-width:1.0;"/><text fill="#000000" font-family="sans-serif" font-size="14" lengthAdjust="spacing" textLength="110" x="126" y="179.9951">attribute3: Type</text><ellipse cx="117" cy="192.9453" fill="none" rx="3" ry="3" style="stroke:#038048;stroke-width:1.0;"/><text fill="#000000" font-family="sans-serif" font-size="14" lengthAdjust="spacing" textLength="110" x="126" y="196.292">attribute4: Type</text><line style="stroke:#181818;stroke-width:0.5;" x1="107" x2="253" y1="203.5938" y2="203.5938"/></g><ellipse cx="180" cy="39" fill="#181818" rx="2" ry="2" style="stroke:#181818;stroke-width:1.0;"/><!--link Class1 to apoint6--><g id="link_Class1_apoint6"><path d="M143.09,39 C154.72,39 166.35,39 177.98,39 " fill="none" id="Class1-apoint6" style="stroke:#181818;stroke-width:1.0;"/><text fill="#000000" font-family="sans-serif" font-size="13" lengthAdjust="spacing" textLength="24" x="145.9724" y="32.9177">0..1</text></g><!--link apoint6 to Class2--><g id="link_apoint6_Class2"><path d="M182.05,39 C193.58,39 205.11,39 216.64,39 " fill="none" id="apoint6-Class2" style="stroke:#181818;stroke-width:1.0;"/><text fill="#000000" font-family="sans-serif" font-size="13" lengthAdjust="spacing" textLength="23" x="190.0818" y="33.4581">0..*</text></g><!--link apoint6 to AssociationClass--><g id="link_apoint6_AssociationClass"><path d="M180,41.47 C180,50.2 180,96.21 180,130.81 " fill="none" id="apoint6-AssociationClass" style="stroke:#181818;stroke-width:1.0;stroke-dasharray:7.0,7.0;"/></g><!--SRC=[Iyv9B2vMS0QHXWhLN0eAsWg99IL5cKcb9Qc6LWeXbGMfNBLSNCa8PKReoepGbJaM5-SdPoQMPERdWNMWQp26Qa0HD46O0dMDae6Udg6IWYwOeQK4jPrB0oAj0-LhAkZfOTW80000]--></g></svg>