<?xml version="1.0" encoding="us-ascii" standalone="no"?><svg xmlns="http://www.w3.org/2000/svg" xmlns:xlink="http://www.w3.org/1999/xlink" contentStyleType="text/css" height="203px" preserveAspectRatio="none" style="width:258px;height:203px;background:#FFFFFF;" version="1.1" viewBox="0 0 258 203" width="258px" zoomAndPan="magnify"><defs/><g><!--class Addition--><g id="elem_Addition"><rect codeLine="1" fill="#F1F1F1" height="64.2969" id="Addition" rx="2.5" ry="2.5" style="stroke:#181818;stroke-width:0.5;" width="244" x="7" y="7"/><ellipse cx="96.75" cy="23" fill="#ADD1B2" rx="11" ry="11" style="stroke:#181818;stroke-width:1.0;"/><path d="M99.7188,28.6406 Q99.1406,28.9375 98.5,29.0781 Q97.8594,29.2344 97.1563,29.2344 Q94.6563,29.2344 93.3281,27.5938 Q92.0156,25.9375 92.0156,22.8125 Q92.0156,19.6875 93.3281,18.0313 Q94.6563,16.375 97.1563,16.375 Q97.8594,16.375 98.5,16.5313 Q99.1563,16.6875 99.7188,16.9844 L99.7188,19.7031 Q99.0938,19.125 98.5,18.8594 Q97.9063,18.5781 97.2813,18.5781 Q95.9375,18.5781 95.25,19.6563 Q94.5625,20.7188 94.5625,22.8125 Q94.5625,24.9063 95.25,25.9844 Q95.9375,27.0469 97.2813,27.0469 Q97.9063,27.0469 98.5,26.7813 Q99.0938,26.5 99.7188,25.9219 L99.7188,28.6406 Z " fill="#000000"/><text fill="#000000" font-family="sans-serif" font-size="14" lengthAdjust="spacing" textLength="56" x="117.25" y="27.8467">Addition</text><line style="stroke:#181818;stroke-width:0.5;" x1="8" x2="250" y1="39" y2="39"/><line style="stroke:#181818;stroke-width:0.5;" x1="8" x2="250" y1="47" y2="47"/><ellipse cx="18" cy="60.6484" fill="#84BE84" rx="3" ry="3" style="stroke:#038048;stroke-width:1.0;"/><text fill="#000000" font-family="sans-serif" font-size="14" lengthAdjust="spacing" textLength="218" x="27" y="63.9951">performAddition(): NumberType</text></g><!--class NumberType--><g id="elem_NumberType"><rect codeLine="5" fill="#F1F1F1" height="48" id="NumberType" rx="2.5" ry="2.5" style="stroke:#181818;stroke-width:0.5;" width="121" x="68.5" y="148"/><ellipse cx="83.5" cy="164" fill="#ADD1B2" rx="11" ry="11" style="stroke:#181818;stroke-width:1.0;"/><path d="M86.4688,169.6406 Q85.8906,169.9375 85.25,170.0781 Q84.6094,170.2344 83.9063,170.2344 Q81.4063,170.2344 80.0781,168.5938 Q78.7656,166.9375 78.7656,163.8125 Q78.7656,160.6875 80.0781,159.0313 Q81.4063,157.375 83.9063,157.375 Q84.6094,157.375 85.25,157.5313 Q85.9063,157.6875 86.4688,157.9844 L86.4688,160.7031 Q85.8438,160.125 85.25,159.8594 Q84.6563,159.5781 84.0313,159.5781 Q82.6875,159.5781 82,160.6563 Q81.3125,161.7188 81.3125,163.8125 Q81.3125,165.9063 82,166.9844 Q82.6875,168.0469 84.0313,168.0469 Q84.6563,168.0469 85.25,167.7813 Q85.8438,167.5 86.4688,166.9219 L86.4688,169.6406 Z " fill="#000000"/><text fill="#000000" font-family="sans-serif" font-size="14" lengthAdjust="spacing" textLength="89" x="97.5" y="168.8467">NumberType</text><line style="stroke:#181818;stroke-width:0.5;" x1="69.5" x2="188.5" y1="180" y2="180"/><line style="stroke:#181818;stroke-width:0.5;" x1="69.5" x2="188.5" y1="188" y2="188"/></g><!--link Addition to NumberType--><g id="link_Addition_NumberType"><path codeLine="7" d="M90.26,71.03 C82.02,79.77 74.47,89.94 70,101 C62.85,118.68 70.7253,131.3717 86.0353,143.8917 " fill="none" id="Addition-to-NumberType" style="stroke:#181818;stroke-width:1.0;"/><polygon fill="#181818" points="90.68,147.69,86.2451,138.8961,86.8094,144.5248,81.1808,145.0891,90.68,147.69" style="stroke:#181818;stroke-width:1.0;"/><rect fill="none" height="6" style="stroke:#C82930;stroke-width:1.0;" width="6" x="73" y="107.0664"/><text fill="#000000" font-family="sans-serif" font-size="13" lengthAdjust="spacing" textLength="58" x="83" y="114.0669">number1</text></g><!--link Addition to NumberType--><g id="link_Addition_NumberType"><path codeLine="8" d="M141.25,71.34 C145.39,85.52 148.42,102.53 146,118 C144.43,128.02 143.2467,133.068 140.0867,142.228 " fill="none" id="Addition-to-NumberType-1" style="stroke:#181818;stroke-width:1.0;"/><polygon fill="#181818" points="138.13,147.9,144.8464,140.6965,139.7606,143.1734,137.2837,138.0876,138.13,147.9" style="stroke:#181818;stroke-width:1.0;"/><rect fill="none" height="6" style="stroke:#C82930;stroke-width:1.0;" width="6" x="149" y="107.0664"/><text fill="#000000" font-family="sans-serif" font-size="13" lengthAdjust="spacing" textLength="58" x="159" y="114.0669">number2</text></g><!--SRC=[Iyv9B2vMS4n9oIp9pCzJgEPIKD1MA4WjIiiloeM9QcXQAVYLvYQb5eLK5gHorN9n9ODr8SGKge62S4DqTUsGvQmKTFF0F4F2Iem0]--></g></svg>