<?xml version="1.0" encoding="us-ascii" standalone="no"?><svg xmlns="http://www.w3.org/2000/svg" xmlns:xlink="http://www.w3.org/1999/xlink" contentStyleType="text/css" height="117px" preserveAspectRatio="none" style="width:265px;height:117px;background:#FFFFFF;" version="1.1" viewBox="0 0 265 117" width="265px" zoomAndPan="magnify"><defs/><g><!--class Addition--><g id="elem_Addition"><rect codeLine="1" fill="#F1F1F1" height="96.8906" id="Addition" rx="2.5" ry="2.5" style="stroke:#181818;stroke-width:0.5;" width="244" x="7" y="7"/><ellipse cx="96.75" cy="23" fill="#ADD1B2" rx="11" ry="11" style="stroke:#181818;stroke-width:1.0;"/><path d="M99.7188,28.6406 Q99.1406,28.9375 98.5,29.0781 Q97.8594,29.2344 97.1563,29.2344 Q94.6563,29.2344 93.3281,27.5938 Q92.0156,25.9375 92.0156,22.8125 Q92.0156,19.6875 93.3281,18.0313 Q94.6563,16.375 97.1563,16.375 Q97.8594,16.375 98.5,16.5313 Q99.1563,16.6875 99.7188,16.9844 L99.7188,19.7031 Q99.0938,19.125 98.5,18.8594 Q97.9063,18.5781 97.2813,18.5781 Q95.9375,18.5781 95.25,19.6563 Q94.5625,20.7188 94.5625,22.8125 Q94.5625,24.9063 95.25,25.9844 Q95.9375,27.0469 97.2813,27.0469 Q97.9063,27.0469 98.5,26.7813 Q99.0938,26.5 99.7188,25.9219 L99.7188,28.6406 Z " fill="#000000"/><text fill="#000000" font-family="sans-serif" font-size="14" lengthAdjust="spacing" textLength="56" x="117.25" y="27.8467">Addition</text><line style="stroke:#181818;stroke-width:0.5;" x1="8" x2="250" y1="39" y2="39"/><rect fill="none" height="6" style="stroke:#C82930;stroke-width:1.0;" width="6" x="15" y="49.6484"/><text fill="#000000" font-family="sans-serif" font-size="14" lengthAdjust="spacing" textLength="161" x="27" y="55.9951">number1: NumberType</text><rect fill="none" height="6" style="stroke:#C82930;stroke-width:1.0;" width="6" x="15" y="65.9453"/><text fill="#000000" font-family="sans-serif" font-size="14" lengthAdjust="spacing" textLength="161" x="27" y="72.292">number2: NumberType</text><line style="stroke:#181818;stroke-width:0.5;" x1="8" x2="250" y1="79.5938" y2="79.5938"/><ellipse cx="18" cy="93.2422" fill="#84BE84" rx="3" ry="3" style="stroke:#038048;stroke-width:1.0;"/><text fill="#000000" font-family="sans-serif" font-size="14" lengthAdjust="spacing" textLength="218" x="27" y="96.5889">performAddition(): NumberType</text></g><!--SRC=[Iyv9B2vMS4n9oIp9pCzJgEPIKD1Lo2lDJKejChHIy0CpGYeBKf74ZT34jHKAKelIyejoOQPeQAAeg0K0]--></g></svg>