<?xml version="1.0" encoding="us-ascii" standalone="no"?><svg xmlns="http://www.w3.org/2000/svg" xmlns:xlink="http://www.w3.org/1999/xlink" contentStyleType="text/css" height="382px" preserveAspectRatio="none" style="width:391px;height:382px;background:#FFFFFF;" version="1.1" viewBox="0 0 391 382" width="391px" zoomAndPan="magnify"><defs/><g><!--class Person--><g id="elem_Person"><rect codeLine="1" fill="#F1F1F1" height="129.4844" id="Person" rx="2.5" ry="2.5" style="stroke:#181818;stroke-width:0.5;" width="233" x="79" y="7"/><ellipse cx="166.75" cy="23" fill="#ADD1B2" rx="11" ry="11" style="stroke:#181818;stroke-width:1.0;"/><path d="M169.7188,28.6406 Q169.1406,28.9375 168.5,29.0781 Q167.8594,29.2344 167.1563,29.2344 Q164.6563,29.2344 163.3281,27.5938 Q162.0156,25.9375 162.0156,22.8125 Q162.0156,19.6875 163.3281,18.0313 Q164.6563,16.375 167.1563,16.375 Q167.8594,16.375 168.5,16.5313 Q169.1563,16.6875 169.7188,16.9844 L169.7188,19.7031 Q169.0938,19.125 168.5,18.8594 Q167.9063,18.5781 167.2813,18.5781 Q165.9375,18.5781 165.25,19.6563 Q164.5625,20.7188 164.5625,22.8125 Q164.5625,24.9063 165.25,25.9844 Q165.9375,27.0469 167.2813,27.0469 Q167.9063,27.0469 168.5,26.7813 Q169.0938,26.5 169.7188,25.9219 L169.7188,28.6406 Z " fill="#000000"/><text fill="#000000" font-family="sans-serif" font-size="14" lengthAdjust="spacing" textLength="49" x="187.25" y="27.8467">Person</text><line style="stroke:#181818;stroke-width:0.5;" x1="80" x2="311" y1="39" y2="39"/><rect fill="none" height="6" style="stroke:#C82930;stroke-width:1.0;" width="6" x="87" y="49.6484"/><text fill="#000000" font-family="sans-serif" font-size="14" lengthAdjust="spacing" textLength="88" x="99" y="55.9951">name: String</text><rect fill="none" height="6" style="stroke:#C82930;stroke-width:1.0;" width="6" x="87" y="65.9453"/><text fill="#000000" font-family="sans-serif" font-size="14" lengthAdjust="spacing" textLength="52" x="99" y="72.292">age: int</text><line style="stroke:#181818;stroke-width:0.5;" x1="80" x2="311" y1="79.5938" y2="79.5938"/><ellipse cx="90" cy="93.2422" fill="#84BE84" rx="3" ry="3" style="stroke:#038048;stroke-width:1.0;"/><text fill="#000000" font-family="sans-serif" font-size="14" lengthAdjust="spacing" textLength="207" x="99" y="96.5889">Person(name: String, age: int)</text><ellipse cx="90" cy="109.5391" fill="#84BE84" rx="3" ry="3" style="stroke:#038048;stroke-width:1.0;"/><text fill="#000000" font-family="sans-serif" font-size="14" lengthAdjust="spacing" textLength="122" x="99" y="112.8857">getName(): String</text><ellipse cx="90" cy="125.8359" fill="#84BE84" rx="3" ry="3" style="stroke:#038048;stroke-width:1.0;"/><text fill="#000000" font-family="sans-serif" font-size="14" lengthAdjust="spacing" textLength="86" x="99" y="129.1826">getAge(): int</text></g><!--class Address--><g id="elem_Address"><rect codeLine="9" fill="#F1F1F1" height="162.0781" id="Address" rx="2.5" ry="2.5" style="stroke:#181818;stroke-width:0.5;" width="377" x="7" y="213"/><ellipse cx="162.75" cy="229" fill="#ADD1B2" rx="11" ry="11" style="stroke:#181818;stroke-width:1.0;"/><path d="M165.7188,234.6406 Q165.1406,234.9375 164.5,235.0781 Q163.8594,235.2344 163.1563,235.2344 Q160.6563,235.2344 159.3281,233.5938 Q158.0156,231.9375 158.0156,228.8125 Q158.0156,225.6875 159.3281,224.0313 Q160.6563,222.375 163.1563,222.375 Q163.8594,222.375 164.5,222.5313 Q165.1563,222.6875 165.7188,222.9844 L165.7188,225.7031 Q165.0938,225.125 164.5,224.8594 Q163.9063,224.5781 163.2813,224.5781 Q161.9375,224.5781 161.25,225.6563 Q160.5625,226.7188 160.5625,228.8125 Q160.5625,230.9063 161.25,231.9844 Q161.9375,233.0469 163.2813,233.0469 Q163.9063,233.0469 164.5,232.7813 Q165.0938,232.5 165.7188,231.9219 L165.7188,234.6406 Z " fill="#000000"/><text fill="#000000" font-family="sans-serif" font-size="14" lengthAdjust="spacing" textLength="57" x="183.25" y="233.8467">Address</text><line style="stroke:#181818;stroke-width:0.5;" x1="8" x2="383" y1="245" y2="245"/><rect fill="none" height="6" style="stroke:#C82930;stroke-width:1.0;" width="6" x="15" y="255.6484"/><text fill="#000000" font-family="sans-serif" font-size="14" lengthAdjust="spacing" textLength="90" x="27" y="261.9951">street: String</text><rect fill="none" height="6" style="stroke:#C82930;stroke-width:1.0;" width="6" x="15" y="271.9453"/><text fill="#000000" font-family="sans-serif" font-size="14" lengthAdjust="spacing" textLength="72" x="27" y="278.292">city: String</text><rect fill="none" height="6" style="stroke:#C82930;stroke-width:1.0;" width="6" x="15" y="288.2422"/><text fill="#000000" font-family="sans-serif" font-size="14" lengthAdjust="spacing" textLength="106" x="27" y="294.5889">zipCode: String</text><line style="stroke:#181818;stroke-width:0.5;" x1="8" x2="383" y1="301.8906" y2="301.8906"/><ellipse cx="18" cy="315.5391" fill="#84BE84" rx="3" ry="3" style="stroke:#038048;stroke-width:1.0;"/><text fill="#000000" font-family="sans-serif" font-size="14" lengthAdjust="spacing" textLength="351" x="27" y="318.8857">Address(street: String, city: String, zipCode: String)</text><ellipse cx="18" cy="331.8359" fill="#84BE84" rx="3" ry="3" style="stroke:#038048;stroke-width:1.0;"/><text fill="#000000" font-family="sans-serif" font-size="14" lengthAdjust="spacing" textLength="124" x="27" y="335.1826">getStreet(): String</text><ellipse cx="18" cy="348.1328" fill="#84BE84" rx="3" ry="3" style="stroke:#038048;stroke-width:1.0;"/><text fill="#000000" font-family="sans-serif" font-size="14" lengthAdjust="spacing" textLength="107" x="27" y="351.4795">getCity(): String</text><ellipse cx="18" cy="364.4297" fill="#84BE84" rx="3" ry="3" style="stroke:#038048;stroke-width:1.0;"/><text fill="#000000" font-family="sans-serif" font-size="14" lengthAdjust="spacing" textLength="141" x="27" y="367.7764">getZipCode(): String</text></g><!--link Person to Address--><g id="link_Person_Address"><path codeLine="19" d="M195.5,136.28 C195.5,160.19 195.5,187.67 195.5,212.88 " fill="none" id="Person-Address" style="stroke:#181818;stroke-width:1.0;"/><text fill="#000000" font-family="sans-serif" font-size="13" lengthAdjust="spacing" textLength="81" x="196.5" y="179.0669">Has Address</text><text fill="#000000" font-family="sans-serif" font-size="13" lengthAdjust="spacing" textLength="8" x="187.0375" y="156.6839">1</text><text fill="#000000" font-family="sans-serif" font-size="13" lengthAdjust="spacing" textLength="23" x="171.4758" y="202.0566">1..*</text></g><!--SRC=[PL2z2i8m4Dxp54UcLfE2QxVInQa8tTn2UeI0ff9aKV7TFTCI6ZiTzzttStVwfaA02_emEtWp00bEtR65CNhhJ0AKeTwwICrnfLPRaiYCEb4Cne76LRrnIMXd4lYp-Z2cKtGtJHwfBjaXUiHOf6iRdmNmiez-dh0mNrsgKYyAiVXNvct7fDhlsvDwZruNbys0Zba_o4ySfAJID0UURslXhFAbNm00]--></g></svg>