<?xml version="1.0" encoding="us-ascii" standalone="no"?><svg xmlns="http://www.w3.org/2000/svg" xmlns:xlink="http://www.w3.org/1999/xlink" contentStyleType="text/css" height="187px" preserveAspectRatio="none" style="width:172px;height:187px;background:#FFFFFF;" version="1.1" viewBox="0 0 172 187" width="172px" zoomAndPan="magnify"><defs/><g><!--class ClassA--><g id="elem_ClassA"><rect fill="#F1F1F1" height="48" id="ClassA" rx="2.5" ry="2.5" style="stroke:#181818;stroke-width:0.5;" width="78" x="7.5" y="7"/><ellipse cx="22.5" cy="23" fill="#ADD1B2" rx="11" ry="11" style="stroke:#181818;stroke-width:1.0;"/><path d="M25.4688,28.6406 Q24.8906,28.9375 24.25,29.0781 Q23.6094,29.2344 22.9063,29.2344 Q20.4063,29.2344 19.0781,27.5938 Q17.7656,25.9375 17.7656,22.8125 Q17.7656,19.6875 19.0781,18.0313 Q20.4063,16.375 22.9063,16.375 Q23.6094,16.375 24.25,16.5313 Q24.9063,16.6875 25.4688,16.9844 L25.4688,19.7031 Q24.8438,19.125 24.25,18.8594 Q23.6563,18.5781 23.0313,18.5781 Q21.6875,18.5781 21,19.6563 Q20.3125,20.7188 20.3125,22.8125 Q20.3125,24.9063 21,25.9844 Q21.6875,27.0469 23.0313,27.0469 Q23.6563,27.0469 24.25,26.7813 Q24.8438,26.5 25.4688,25.9219 L25.4688,28.6406 Z " fill="#000000"/><text fill="#000000" font-family="sans-serif" font-size="14" lengthAdjust="spacing" textLength="46" x="36.5" y="27.8467">ClassA</text><line style="stroke:#181818;stroke-width:0.5;" x1="8.5" x2="84.5" y1="39" y2="39"/><line style="stroke:#181818;stroke-width:0.5;" x1="8.5" x2="84.5" y1="47" y2="47"/></g><!--class ClassB--><g id="elem_ClassB"><rect fill="#F1F1F1" height="48" id="ClassB" rx="2.5" ry="2.5" style="stroke:#181818;stroke-width:0.5;" width="79" x="7" y="132"/><ellipse cx="22" cy="148" fill="#ADD1B2" rx="11" ry="11" style="stroke:#181818;stroke-width:1.0;"/><path d="M24.9688,153.6406 Q24.3906,153.9375 23.75,154.0781 Q23.1094,154.2344 22.4063,154.2344 Q19.9063,154.2344 18.5781,152.5938 Q17.2656,150.9375 17.2656,147.8125 Q17.2656,144.6875 18.5781,143.0313 Q19.9063,141.375 22.4063,141.375 Q23.1094,141.375 23.75,141.5313 Q24.4063,141.6875 24.9688,141.9844 L24.9688,144.7031 Q24.3438,144.125 23.75,143.8594 Q23.1563,143.5781 22.5313,143.5781 Q21.1875,143.5781 20.5,144.6563 Q19.8125,145.7188 19.8125,147.8125 Q19.8125,149.9063 20.5,150.9844 Q21.1875,152.0469 22.5313,152.0469 Q23.1563,152.0469 23.75,151.7813 Q24.3438,151.5 24.9688,150.9219 L24.9688,153.6406 Z " fill="#000000"/><text fill="#000000" font-family="sans-serif" font-size="14" lengthAdjust="spacing" textLength="47" x="36" y="152.8467">ClassB</text><line style="stroke:#181818;stroke-width:0.5;" x1="8" x2="85" y1="164" y2="164"/><line style="stroke:#181818;stroke-width:0.5;" x1="8" x2="85" y1="172" y2="172"/></g><!--link ClassA to ClassB--><g id="link_ClassA_ClassB"><path codeLine="1" d="M46.5,55.14 C46.5,77.13 46.5,110.01 46.5,131.97 " fill="none" id="ClassA-ClassB" style="stroke:#181818;stroke-width:1.0;"/><text fill="#000000" font-family="sans-serif" font-size="13" lengthAdjust="spacing" textLength="113" x="51.5" y="98.0669">association name</text><text fill="#000000" font-family="sans-serif" font-size="13" lengthAdjust="spacing" textLength="24" x="15.0875" y="74.9353">a..b</text><text fill="#000000" font-family="sans-serif" font-size="13" lengthAdjust="spacing" textLength="23" x="16.0406" y="120.9743">c..d</text></g><!--SRC=[Syv9B2vsL51ArDDBKb1IqDLLK4hMqqi1Cfr1CauALa0ca96Vd9bOafcVfv2Nc9kg1000]--></g></svg>