<?xml version="1.0" encoding="us-ascii" standalone="no"?><svg xmlns="http://www.w3.org/2000/svg" xmlns:xlink="http://www.w3.org/1999/xlink" contentStyleType="text/css" height="187px" preserveAspectRatio="none" style="width:147px;height:187px;background:#FFFFFF;" version="1.1" viewBox="0 0 147 187" width="147px" zoomAndPan="magnify"><defs/><g><!--class Composite--><g id="elem_Composite"><rect fill="#F1F1F1" height="48" id="Composite" rx="2.5" ry="2.5" style="stroke:#181818;stroke-width:0.5;" width="107" x="7" y="7"/><ellipse cx="22" cy="23" fill="#ADD1B2" rx="11" ry="11" style="stroke:#181818;stroke-width:1.0;"/><path d="M24.9688,28.6406 Q24.3906,28.9375 23.75,29.0781 Q23.1094,29.2344 22.4063,29.2344 Q19.9063,29.2344 18.5781,27.5938 Q17.2656,25.9375 17.2656,22.8125 Q17.2656,19.6875 18.5781,18.0313 Q19.9063,16.375 22.4063,16.375 Q23.1094,16.375 23.75,16.5313 Q24.4063,16.6875 24.9688,16.9844 L24.9688,19.7031 Q24.3438,19.125 23.75,18.8594 Q23.1563,18.5781 22.5313,18.5781 Q21.1875,18.5781 20.5,19.6563 Q19.8125,20.7188 19.8125,22.8125 Q19.8125,24.9063 20.5,25.9844 Q21.1875,27.0469 22.5313,27.0469 Q23.1563,27.0469 23.75,26.7813 Q24.3438,26.5 24.9688,25.9219 L24.9688,28.6406 Z " fill="#000000"/><text fill="#000000" font-family="sans-serif" font-size="14" lengthAdjust="spacing" textLength="75" x="36" y="27.8467">Composite</text><line style="stroke:#181818;stroke-width:0.5;" x1="8" x2="113" y1="39" y2="39"/><line style="stroke:#181818;stroke-width:0.5;" x1="8" x2="113" y1="47" y2="47"/></g><!--class  Part --><g id="elem_ Part "><rect fill="#F1F1F1" height="48" id=" Part " rx="2.5" ry="2.5" style="stroke:#181818;stroke-width:0.5;" width="67" x="27" y="132"/><ellipse cx="42" cy="148" fill="#ADD1B2" rx="11" ry="11" style="stroke:#181818;stroke-width:1.0;"/><path d="M44.9688,153.6406 Q44.3906,153.9375 43.75,154.0781 Q43.1094,154.2344 42.4063,154.2344 Q39.9063,154.2344 38.5781,152.5938 Q37.2656,150.9375 37.2656,147.8125 Q37.2656,144.6875 38.5781,143.0313 Q39.9063,141.375 42.4063,141.375 Q43.1094,141.375 43.75,141.5313 Q44.4063,141.6875 44.9688,141.9844 L44.9688,144.7031 Q44.3438,144.125 43.75,143.8594 Q43.1563,143.5781 42.5313,143.5781 Q41.1875,143.5781 40.5,144.6563 Q39.8125,145.7188 39.8125,147.8125 Q39.8125,149.9063 40.5,150.9844 Q41.1875,152.0469 42.5313,152.0469 Q43.1563,152.0469 43.75,151.7813 Q44.3438,151.5 44.9688,150.9219 L44.9688,153.6406 Z " fill="#000000"/><text fill="#000000" font-family="sans-serif" font-size="14" lengthAdjust="spacing" textLength="27" x="60" y="152.8467">Part</text><line style="stroke:#181818;stroke-width:0.5;" x1="28" x2="93" y1="164" y2="164"/><line style="stroke:#181818;stroke-width:0.5;" x1="28" x2="93" y1="172" y2="172"/></g><!--reverse link Composite to  Part --><g id="link_Composite_ Part "><path codeLine="1" d="M60.5,67.14 C60.5,89.13 60.5,110.01 60.5,131.97 " fill="none" id="Composite-backto- Part " style="stroke:#181818;stroke-width:1.0;"/><polygon fill="#181818" points="60.5,55.14,56.5,61.14,60.5,67.14,64.5,61.14,60.5,55.14" style="stroke:#181818;stroke-width:1.0;"/><text fill="#000000" font-family="sans-serif" font-size="13" lengthAdjust="spacing" textLength="78" x="61.5" y="98.0669">composition</text></g><!--SRC=[SyxFBSWlpYn9LT3IrLLGKWX8B2e1KbOAoL29pFmy0000]--></g></svg>