<?xml version="1.0" encoding="us-ascii" standalone="no"?><svg xmlns="http://www.w3.org/2000/svg" xmlns:xlink="http://www.w3.org/1999/xlink" contentStyleType="text/css" height="143px" preserveAspectRatio="none" style="width:445px;height:143px;background:#FFFFFF;" version="1.1" viewBox="0 0 445 143" width="445px" zoomAndPan="magnify"><defs/><g><!--class Book--><g id="elem_Book"><rect codeLine="1" fill="#F1F1F1" height="96.8906" id="Book" rx="2.5" ry="2.5" style="stroke:#181818;stroke-width:0.5;" width="155" x="7" y="23"/><ellipse cx="62.25" cy="39" fill="#ADD1B2" rx="11" ry="11" style="stroke:#181818;stroke-width:1.0;"/><path d="M65.2188,44.6406 Q64.6406,44.9375 64,45.0781 Q63.3594,45.2344 62.6563,45.2344 Q60.1563,45.2344 58.8281,43.5938 Q57.5156,41.9375 57.5156,38.8125 Q57.5156,35.6875 58.8281,34.0313 Q60.1563,32.375 62.6563,32.375 Q63.3594,32.375 64,32.5313 Q64.6563,32.6875 65.2188,32.9844 L65.2188,35.7031 Q64.5938,35.125 64,34.8594 Q63.4063,34.5781 62.7813,34.5781 Q61.4375,34.5781 60.75,35.6563 Q60.0625,36.7188 60.0625,38.8125 Q60.0625,40.9063 60.75,41.9844 Q61.4375,43.0469 62.7813,43.0469 Q63.4063,43.0469 64,42.7813 Q64.5938,42.5 65.2188,41.9219 L65.2188,44.6406 Z " fill="#000000"/><text fill="#000000" font-family="sans-serif" font-size="14" lengthAdjust="spacing" textLength="36" x="82.75" y="43.8467">Book</text><line style="stroke:#181818;stroke-width:0.5;" x1="8" x2="161" y1="55" y2="55"/><rect fill="none" height="6" style="stroke:#C82930;stroke-width:1.0;" width="6" x="15" y="65.6484"/><text fill="#000000" font-family="sans-serif" font-size="14" lengthAdjust="spacing" textLength="74" x="27" y="71.9951">title: String</text><rect fill="none" height="6" style="stroke:#C82930;stroke-width:1.0;" width="6" x="15" y="81.9453"/><text fill="#000000" font-family="sans-serif" font-size="14" lengthAdjust="spacing" textLength="94" x="27" y="88.292">author: String</text><line style="stroke:#181818;stroke-width:0.5;" x1="8" x2="161" y1="95.5938" y2="95.5938"/><ellipse cx="18" cy="109.2422" fill="#84BE84" rx="3" ry="3" style="stroke:#038048;stroke-width:1.0;"/><text fill="#000000" font-family="sans-serif" font-size="14" lengthAdjust="spacing" textLength="129" x="27" y="112.5889">getDetails(): String</text></g><!--class Library--><g id="elem_Library"><rect codeLine="7" fill="#F1F1F1" height="129.4844" id="Library" rx="2.5" ry="2.5" style="stroke:#181818;stroke-width:0.5;" width="241" x="197" y="7"/><ellipse cx="291.25" cy="23" fill="#ADD1B2" rx="11" ry="11" style="stroke:#181818;stroke-width:1.0;"/><path d="M294.2188,28.6406 Q293.6406,28.9375 293,29.0781 Q292.3594,29.2344 291.6563,29.2344 Q289.1563,29.2344 287.8281,27.5938 Q286.5156,25.9375 286.5156,22.8125 Q286.5156,19.6875 287.8281,18.0313 Q289.1563,16.375 291.6563,16.375 Q292.3594,16.375 293,16.5313 Q293.6563,16.6875 294.2188,16.9844 L294.2188,19.7031 Q293.5938,19.125 293,18.8594 Q292.4063,18.5781 291.7813,18.5781 Q290.4375,18.5781 289.75,19.6563 Q289.0625,20.7188 289.0625,22.8125 Q289.0625,24.9063 289.75,25.9844 Q290.4375,27.0469 291.7813,27.0469 Q292.4063,27.0469 293,26.7813 Q293.5938,26.5 294.2188,25.9219 L294.2188,28.6406 Z " fill="#000000"/><text fill="#000000" font-family="sans-serif" font-size="14" lengthAdjust="spacing" textLength="44" x="311.75" y="27.8467">Library</text><line style="stroke:#181818;stroke-width:0.5;" x1="198" x2="437" y1="39" y2="39"/><rect fill="none" height="6" style="stroke:#C82930;stroke-width:1.0;" width="6" x="205" y="49.6484"/><text fill="#000000" font-family="sans-serif" font-size="14" lengthAdjust="spacing" textLength="88" x="217" y="55.9951">name: String</text><rect fill="none" height="6" style="stroke:#C82930;stroke-width:1.0;" width="6" x="205" y="65.9453"/><text fill="#000000" font-family="sans-serif" font-size="14" lengthAdjust="spacing" textLength="103" x="217" y="72.292">location: String</text><line style="stroke:#181818;stroke-width:0.5;" x1="198" x2="437" y1="79.5938" y2="79.5938"/><ellipse cx="208" cy="93.2422" fill="#84BE84" rx="3" ry="3" style="stroke:#038048;stroke-width:1.0;"/><text fill="#000000" font-family="sans-serif" font-size="14" lengthAdjust="spacing" textLength="189" x="217" y="96.5889">addBook(book: Book): void</text><ellipse cx="208" cy="109.5391" fill="#84BE84" rx="3" ry="3" style="stroke:#038048;stroke-width:1.0;"/><text fill="#000000" font-family="sans-serif" font-size="14" lengthAdjust="spacing" textLength="215" x="217" y="112.8857">removeBook(book: Book): void</text><ellipse cx="208" cy="125.8359" fill="#84BE84" rx="3" ry="3" style="stroke:#038048;stroke-width:1.0;"/><text fill="#000000" font-family="sans-serif" font-size="14" lengthAdjust="spacing" textLength="165" x="217" y="129.1826">listBooks(): List&lt;Book&gt;</text></g><!--SRC=[VOv12i8m44NtESKiA-85YhWGbzrvWcaIwk0q0ybO4EdTJGOHkt4pyFyV7iypbW9daJky7C01b9HZ3rVDb2PhyA4toJ_L7gQebwX8NBhTTrYTyqORQCoOdnzWmddBO_6e96b3n12QH3VMqvjF1Iz2mTOSPrdYdmUcegqpdw66Oqidjxu1]--></g></svg>