<?xml version="1.0" encoding="us-ascii" standalone="no"?><svg xmlns="http://www.w3.org/2000/svg" xmlns:xlink="http://www.w3.org/1999/xlink" contentStyleType="text/css" height="117px" preserveAspectRatio="none" style="width:197px;height:117px;background:#FFFFFF;" version="1.1" viewBox="0 0 197 117" width="197px" zoomAndPan="magnify"><defs/><g><!--class ClassName--><g id="elem_ClassName"><rect codeLine="1" fill="#F1F1F1" height="96.8906" id="ClassName" rx="2.5" ry="2.5" style="stroke:#181818;stroke-width:0.5;" width="176" x="7" y="7"/><ellipse cx="52.25" cy="23" fill="#ADD1B2" rx="11" ry="11" style="stroke:#181818;stroke-width:1.0;"/><path d="M55.2188,28.6406 Q54.6406,28.9375 54,29.0781 Q53.3594,29.2344 52.6563,29.2344 Q50.1563,29.2344 48.8281,27.5938 Q47.5156,25.9375 47.5156,22.8125 Q47.5156,19.6875 48.8281,18.0313 Q50.1563,16.375 52.6563,16.375 Q53.3594,16.375 54,16.5313 Q54.6563,16.6875 55.2188,16.9844 L55.2188,19.7031 Q54.5938,19.125 54,18.8594 Q53.4063,18.5781 52.7813,18.5781 Q51.4375,18.5781 50.75,19.6563 Q50.0625,20.7188 50.0625,22.8125 Q50.0625,24.9063 50.75,25.9844 Q51.4375,27.0469 52.7813,27.0469 Q53.4063,27.0469 54,26.7813 Q54.5938,26.5 55.2188,25.9219 L55.2188,28.6406 Z " fill="#000000"/><text fill="#000000" font-family="sans-serif" font-size="14" lengthAdjust="spacing" textLength="77" x="72.75" y="27.8467">ClassName</text><line style="stroke:#181818;stroke-width:0.5;" x1="8" x2="182" y1="39" y2="39"/><rect fill="none" height="6" style="stroke:#C82930;stroke-width:1.0;" width="6" x="15" y="49.6484"/><text fill="#000000" font-family="sans-serif" font-size="14" lengthAdjust="spacing" textLength="137" x="27" y="55.9951">compositeAttribute:</text><text fill="#000000" font-family="sans-serif" font-size="14" lengthAdjust="spacing" textLength="150" x="27" y="72.292">attribute1: SomeType</text><text fill="#000000" font-family="sans-serif" font-size="14" lengthAdjust="spacing" textLength="150" x="27" y="88.5889">attribute2: SomeType</text><line style="stroke:#181818;stroke-width:0.5;" x1="8" x2="182" y1="95.8906" y2="95.8906"/></g><!--SRC=[Iyv9B2vMS0QHVecvgGhLN0f0K9sMcPgJKgkWgv2SdrkGNvnPakfOKbAKcLHQacg5ea918H4cOMYb49oVcnfIMP2AIuaHaf9Q0000]--></g></svg>