<?xml version="1.0" encoding="us-ascii" standalone="no"?><svg xmlns="http://www.w3.org/2000/svg" xmlns:xlink="http://www.w3.org/1999/xlink" contentStyleType="text/css" height="150px" preserveAspectRatio="none" style="width:433px;height:150px;background:#FFFFFF;" version="1.1" viewBox="0 0 433 150" width="433px" zoomAndPan="magnify"><defs/><g><!--class Car--><g id="elem_Car"><rect codeLine="1" fill="#F1F1F1" height="129.4844" id="Car" rx="2.5" ry="2.5" style="stroke:#181818;stroke-width:0.5;" width="412" x="7" y="7"/><ellipse cx="197.25" cy="23" fill="#ADD1B2" rx="11" ry="11" style="stroke:#181818;stroke-width:1.0;"/><path d="M200.2188,28.6406 Q199.6406,28.9375 199,29.0781 Q198.3594,29.2344 197.6563,29.2344 Q195.1563,29.2344 193.8281,27.5938 Q192.5156,25.9375 192.5156,22.8125 Q192.5156,19.6875 193.8281,18.0313 Q195.1563,16.375 197.6563,16.375 Q198.3594,16.375 199,16.5313 Q199.6563,16.6875 200.2188,16.9844 L200.2188,19.7031 Q199.5938,19.125 199,18.8594 Q198.4063,18.5781 197.7813,18.5781 Q196.4375,18.5781 195.75,19.6563 Q195.0625,20.7188 195.0625,22.8125 Q195.0625,24.9063 195.75,25.9844 Q196.4375,27.0469 197.7813,27.0469 Q198.4063,27.0469 199,26.7813 Q199.5938,26.5 200.2188,25.9219 L200.2188,28.6406 Z " fill="#000000"/><text fill="#000000" font-family="sans-serif" font-size="14" lengthAdjust="spacing" textLength="23" x="217.75" y="27.8467">Car</text><line style="stroke:#181818;stroke-width:0.5;" x1="8" x2="418" y1="39" y2="39"/><rect fill="none" height="6" style="stroke:#C82930;stroke-width:1.0;" width="6" x="15" y="49.6484"/><text fill="#000000" font-family="sans-serif" font-size="14" lengthAdjust="spacing" textLength="87" x="27" y="55.9951">make: String</text><rect fill="none" height="6" style="stroke:#C82930;stroke-width:1.0;" width="6" x="15" y="65.9453"/><text fill="#000000" font-family="sans-serif" font-size="14" lengthAdjust="spacing" textLength="92" x="27" y="72.292">model: String</text><line style="stroke:#181818;stroke-width:0.5;" x1="8" x2="418" y1="79.5938" y2="79.5938"/><text fill="#000000" font-family="sans-serif" font-size="14" lengthAdjust="spacing" textLength="338" x="27" y="96.5889">&#171;constructor&#187; + Car(make: String, model: String)</text><ellipse cx="18" cy="109.5391" fill="#84BE84" rx="3" ry="3" style="stroke:#038048;stroke-width:1.0;"/><text fill="#000000" font-family="sans-serif" font-size="14" lengthAdjust="spacing" textLength="119" x="27" y="112.8857">getMake(): String</text><ellipse cx="18" cy="125.8359" fill="#84BE84" rx="3" ry="3" style="stroke:#038048;stroke-width:1.0;"/><text fill="#000000" font-family="sans-serif" font-size="14" lengthAdjust="spacing" textLength="386" x="27" y="129.1826">updateDetails(newMake: String, newModel: String): void</text></g><!--SRC=[Iyv9B2vMS4uiKgZcKb3GLSXDp4wrKWWkAShCIuS8vAUavY29sDWav-SLbnIL9fVa5zdPAMY3D6iWQzD1rQC9rAIja9vQuWjKew69P9IsGcb1Ic99gajgIM9cJh56NcgvBuev804KewmKol8pKxXg0G00]--></g></svg>