<?xml version="1.0" encoding="us-ascii" standalone="no"?><svg xmlns="http://www.w3.org/2000/svg" xmlns:xlink="http://www.w3.org/1999/xlink" contentStyleType="text/css" height="170px" preserveAspectRatio="none" style="width:236px;height:170px;background:#FFFFFF;" version="1.1" viewBox="0 0 236 170" width="236px" zoomAndPan="magnify"><defs/><g><!--class Parent--><g id="elem_Parent"><rect fill="#F1F1F1" height="48" id="Parent" rx="2.5" ry="2.5" style="stroke:#181818;stroke-width:0.5;" width="77" x="7" y="7"/><ellipse cx="22" cy="23" fill="#ADD1B2" rx="11" ry="11" style="stroke:#181818;stroke-width:1.0;"/><path d="M24.9688,28.6406 Q24.3906,28.9375 23.75,29.0781 Q23.1094,29.2344 22.4063,29.2344 Q19.9063,29.2344 18.5781,27.5938 Q17.2656,25.9375 17.2656,22.8125 Q17.2656,19.6875 18.5781,18.0313 Q19.9063,16.375 22.4063,16.375 Q23.1094,16.375 23.75,16.5313 Q24.4063,16.6875 24.9688,16.9844 L24.9688,19.7031 Q24.3438,19.125 23.75,18.8594 Q23.1563,18.5781 22.5313,18.5781 Q21.1875,18.5781 20.5,19.6563 Q19.8125,20.7188 19.8125,22.8125 Q19.8125,24.9063 20.5,25.9844 Q21.1875,27.0469 22.5313,27.0469 Q23.1563,27.0469 23.75,26.7813 Q24.3438,26.5 24.9688,25.9219 L24.9688,28.6406 Z " fill="#000000"/><text fill="#000000" font-family="sans-serif" font-size="14" lengthAdjust="spacing" textLength="45" x="36" y="27.8467">Parent</text><line style="stroke:#181818;stroke-width:0.5;" x1="8" x2="83" y1="39" y2="39"/><line style="stroke:#181818;stroke-width:0.5;" x1="8" x2="83" y1="47" y2="47"/></g><!--class Child--><g id="elem_Child"><rect fill="#F1F1F1" height="48" id="Child" rx="2.5" ry="2.5" style="stroke:#181818;stroke-width:0.5;" width="66" x="12.5" y="115"/><ellipse cx="27.5" cy="131" fill="#ADD1B2" rx="11" ry="11" style="stroke:#181818;stroke-width:1.0;"/><path d="M30.4688,136.6406 Q29.8906,136.9375 29.25,137.0781 Q28.6094,137.2344 27.9063,137.2344 Q25.4063,137.2344 24.0781,135.5938 Q22.7656,133.9375 22.7656,130.8125 Q22.7656,127.6875 24.0781,126.0313 Q25.4063,124.375 27.9063,124.375 Q28.6094,124.375 29.25,124.5313 Q29.9063,124.6875 30.4688,124.9844 L30.4688,127.7031 Q29.8438,127.125 29.25,126.8594 Q28.6563,126.5781 28.0313,126.5781 Q26.6875,126.5781 26,127.6563 Q25.3125,128.7188 25.3125,130.8125 Q25.3125,132.9063 26,133.9844 Q26.6875,135.0469 28.0313,135.0469 Q28.6563,135.0469 29.25,134.7813 Q29.8438,134.5 30.4688,133.9219 L30.4688,136.6406 Z " fill="#000000"/><text fill="#000000" font-family="sans-serif" font-size="14" lengthAdjust="spacing" textLength="34" x="41.5" y="135.8467">Child</text><line style="stroke:#181818;stroke-width:0.5;" x1="13.5" x2="77.5" y1="147" y2="147"/><line style="stroke:#181818;stroke-width:0.5;" x1="13.5" x2="77.5" y1="155" y2="155"/></g><!--class SuperClass--><g id="elem_SuperClass"><rect fill="#F1F1F1" height="48" id="SuperClass" rx="2.5" ry="2.5" style="stroke:#181818;stroke-width:0.5;" width="110" x="119.5" y="7"/><ellipse cx="134.5" cy="23" fill="#ADD1B2" rx="11" ry="11" style="stroke:#181818;stroke-width:1.0;"/><path d="M137.4688,28.6406 Q136.8906,28.9375 136.25,29.0781 Q135.6094,29.2344 134.9063,29.2344 Q132.4063,29.2344 131.0781,27.5938 Q129.7656,25.9375 129.7656,22.8125 Q129.7656,19.6875 131.0781,18.0313 Q132.4063,16.375 134.9063,16.375 Q135.6094,16.375 136.25,16.5313 Q136.9063,16.6875 137.4688,16.9844 L137.4688,19.7031 Q136.8438,19.125 136.25,18.8594 Q135.6563,18.5781 135.0313,18.5781 Q133.6875,18.5781 133,19.6563 Q132.3125,20.7188 132.3125,22.8125 Q132.3125,24.9063 133,25.9844 Q133.6875,27.0469 135.0313,27.0469 Q135.6563,27.0469 136.25,26.7813 Q136.8438,26.5 137.4688,25.9219 L137.4688,28.6406 Z " fill="#000000"/><text fill="#000000" font-family="sans-serif" font-size="14" lengthAdjust="spacing" textLength="78" x="148.5" y="27.8467">SuperClass</text><line style="stroke:#181818;stroke-width:0.5;" x1="120.5" x2="228.5" y1="39" y2="39"/><line style="stroke:#181818;stroke-width:0.5;" x1="120.5" x2="228.5" y1="47" y2="47"/></g><!--class Class--><g id="elem_Class"><rect fill="#F1F1F1" height="48" id="Class" rx="2.5" ry="2.5" style="stroke:#181818;stroke-width:0.5;" width="69" x="140" y="115"/><ellipse cx="155" cy="131" fill="#ADD1B2" rx="11" ry="11" style="stroke:#181818;stroke-width:1.0;"/><path d="M157.9688,136.6406 Q157.3906,136.9375 156.75,137.0781 Q156.1094,137.2344 155.4063,137.2344 Q152.9063,137.2344 151.5781,135.5938 Q150.2656,133.9375 150.2656,130.8125 Q150.2656,127.6875 151.5781,126.0313 Q152.9063,124.375 155.4063,124.375 Q156.1094,124.375 156.75,124.5313 Q157.4063,124.6875 157.9688,124.9844 L157.9688,127.7031 Q157.3438,127.125 156.75,126.8594 Q156.1563,126.5781 155.5313,126.5781 Q154.1875,126.5781 153.5,127.6563 Q152.8125,128.7188 152.8125,130.8125 Q152.8125,132.9063 153.5,133.9844 Q154.1875,135.0469 155.5313,135.0469 Q156.1563,135.0469 156.75,134.7813 Q157.3438,134.5 157.9688,133.9219 L157.9688,136.6406 Z " fill="#000000"/><text fill="#000000" font-family="sans-serif" font-size="14" lengthAdjust="spacing" textLength="37" x="169" y="135.8467">Class</text><line style="stroke:#181818;stroke-width:0.5;" x1="141" x2="208" y1="147" y2="147"/><line style="stroke:#181818;stroke-width:0.5;" x1="141" x2="208" y1="155" y2="155"/></g><!--reverse link Parent to Child--><g id="link_Parent_Child"><path codeLine="1" d="M45.5,73 C45.5,90.66 45.5,96.94 45.5,114.68 " fill="none" id="Parent-backto-Child" style="stroke:#181818;stroke-width:1.0;"/><polygon fill="none" points="45.5,55,39.5,73,51.5,73,45.5,55" style="stroke:#181818;stroke-width:1.0;"/></g><!--reverse link SuperClass to Class--><g id="link_SuperClass_Class"><path codeLine="2" d="M174.5,73 C174.5,90.66 174.5,96.94 174.5,114.68 " fill="none" id="SuperClass-backto-Class" style="stroke:#181818;stroke-width:1.0;"/><polygon fill="none" points="174.5,55,168.5,73,180.5,73,174.5,55" style="stroke:#181818;stroke-width:1.0;"/></g><!--SRC=[2qWiIiqhKR2fqTLLSCx8p4dX2YujI2ropaaiBeQAWfW0]--></g></svg>