<?xml version="1.0" encoding="us-ascii" standalone="no"?><svg xmlns="http://www.w3.org/2000/svg" xmlns:xlink="http://www.w3.org/1999/xlink" contentStyleType="text/css" height="278px" preserveAspectRatio="none" style="width:104px;height:278px;background:#FFFFFF;" version="1.1" viewBox="0 0 104 278" width="104px" zoomAndPan="magnify"><defs/><g><!--class ATM--><g id="elem_ATM"><rect codeLine="1" fill="#F1F1F1" height="48" id="ATM" rx="2.5" ry="2.5" style="stroke:#181818;stroke-width:0.5;" width="62" x="21" y="223"/><ellipse cx="36" cy="239" fill="#ADD1B2" rx="11" ry="11" style="stroke:#181818;stroke-width:1.0;"/><path d="M38.9688,244.6406 Q38.3906,244.9375 37.75,245.0781 Q37.1094,245.2344 36.4063,245.2344 Q33.9063,245.2344 32.5781,243.5938 Q31.2656,241.9375 31.2656,238.8125 Q31.2656,235.6875 32.5781,234.0313 Q33.9063,232.375 36.4063,232.375 Q37.1094,232.375 37.75,232.5313 Q38.4063,232.6875 38.9688,232.9844 L38.9688,235.7031 Q38.3438,235.125 37.75,234.8594 Q37.1563,234.5781 36.5313,234.5781 Q35.1875,234.5781 34.5,235.6563 Q33.8125,236.7188 33.8125,238.8125 Q33.8125,240.9063 34.5,241.9844 Q35.1875,243.0469 36.5313,243.0469 Q37.1563,243.0469 37.75,242.7813 Q38.3438,242.5 38.9688,241.9219 L38.9688,244.6406 Z " fill="#000000"/><text fill="#000000" font-family="sans-serif" font-size="14" lengthAdjust="spacing" textLength="30" x="50" y="243.8467">ATM</text><line style="stroke:#181818;stroke-width:0.5;" x1="22" x2="82" y1="255" y2="255"/><line style="stroke:#181818;stroke-width:0.5;" x1="22" x2="82" y1="263" y2="263"/></g><!--class Machine--><g id="elem_Machine"><rect fill="#F1F1F1" height="48" id="Machine" rx="2.5" ry="2.5" style="stroke:#181818;stroke-width:0.5;" width="90" x="7" y="115"/><ellipse cx="22" cy="131" fill="#B4A7E5" rx="11" ry="11" style="stroke:#181818;stroke-width:1.0;"/><path d="M17.9219,126.7656 L17.9219,124.6094 L25.3125,124.6094 L25.3125,126.7656 L22.8438,126.7656 L22.8438,134.8438 L25.3125,134.8438 L25.3125,137 L17.9219,137 L17.9219,134.8438 L20.3906,134.8438 L20.3906,126.7656 L17.9219,126.7656 Z " fill="#000000"/><text fill="#000000" font-family="sans-serif" font-size="14" font-style="italic" lengthAdjust="spacing" textLength="58" x="36" y="135.8467">Machine</text><line style="stroke:#181818;stroke-width:0.5;" x1="8" x2="96" y1="147" y2="147"/><line style="stroke:#181818;stroke-width:0.5;" x1="8" x2="96" y1="155" y2="155"/></g><!--class Client--><g id="elem_Client"><rect codeLine="2" fill="#F1F1F1" height="48" id="Client" rx="2.5" ry="2.5" style="stroke:#181818;stroke-width:0.5;" width="71" x="16.5" y="7"/><ellipse cx="31.5" cy="23" fill="#ADD1B2" rx="11" ry="11" style="stroke:#181818;stroke-width:1.0;"/><path d="M34.4688,28.6406 Q33.8906,28.9375 33.25,29.0781 Q32.6094,29.2344 31.9063,29.2344 Q29.4063,29.2344 28.0781,27.5938 Q26.7656,25.9375 26.7656,22.8125 Q26.7656,19.6875 28.0781,18.0313 Q29.4063,16.375 31.9063,16.375 Q32.6094,16.375 33.25,16.5313 Q33.9063,16.6875 34.4688,16.9844 L34.4688,19.7031 Q33.8438,19.125 33.25,18.8594 Q32.6563,18.5781 32.0313,18.5781 Q30.6875,18.5781 30,19.6563 Q29.3125,20.7188 29.3125,22.8125 Q29.3125,24.9063 30,25.9844 Q30.6875,27.0469 32.0313,27.0469 Q32.6563,27.0469 33.25,26.7813 Q33.8438,26.5 34.4688,25.9219 L34.4688,28.6406 Z " fill="#000000"/><text fill="#000000" font-family="sans-serif" font-size="14" lengthAdjust="spacing" textLength="39" x="45.5" y="27.8467">Client</text><line style="stroke:#181818;stroke-width:0.5;" x1="17.5" x2="86.5" y1="39" y2="39"/><line style="stroke:#181818;stroke-width:0.5;" x1="17.5" x2="86.5" y1="47" y2="47"/></g><!--reverse link Machine to ATM--><g id="link_Machine_ATM"><path d="M52,181 C52,198.66 52,204.94 52,222.68 " fill="none" id="Machine-backto-ATM" style="stroke:#181818;stroke-width:1.0;stroke-dasharray:7.0,7.0;"/><polygon fill="none" points="52,163,46,181,58,181,52,163" style="stroke:#181818;stroke-width:1.0;"/></g><!--link Client to Machine--><g id="link_Client_Machine"><path codeLine="4" d="M52,55 C52,72.66 52,90.94 52,108.68 " fill="none" id="Client-to-Machine" style="stroke:#181818;stroke-width:1.0;stroke-dasharray:7.0,7.0;"/><polygon fill="#181818" points="52,114.68,56,105.68,52,109.68,48,105.68,52,114.68" style="stroke:#181818;stroke-width:1.0;"/></g><!--SRC=[Iyv9B2vMS0pnLSZCBSX9pKtDAobMy4rCpiZCI-LA1aiwvsG2HRcu8BI2dfuTJ040]--></g></svg>