<?xml version="1.0" encoding="us-ascii" standalone="no"?><svg xmlns="http://www.w3.org/2000/svg" xmlns:xlink="http://www.w3.org/1999/xlink" contentStyleType="text/css" height="345px" preserveAspectRatio="none" style="width:530px;height:345px;background:#FFFFFF;" version="1.1" viewBox="0 0 530 345" width="530px" zoomAndPan="magnify"><defs/><g><!--cluster Classic Collections--><g id="cluster_Classic Collections"><path d="M8.5,6 L156.5,6 A3.75,3.75 0 0 1 159,8.5 L166,28.2969 L166.5,28.2969 A2.5,2.5 0 0 1 169,30.7969 L169,287.5 A2.5,2.5 0 0 1 166.5,290 L8.5,290 A2.5,2.5 0 0 1 6,287.5 L6,8.5 A2.5,2.5 0 0 1 8.5,6 " fill="#DDDDDD" style="stroke:#000000;stroke-width:1.5;"/><line style="stroke:#000000;stroke-width:1.5;" x1="6" x2="166" y1="28.2969" y2="28.2969"/><text fill="#000000" font-family="sans-serif" font-size="14" font-weight="bold" lengthAdjust="spacing" textLength="147" x="10" y="20.9951">Classic Collections</text></g><!--cluster net--><g id="cluster_net"><path d="M195.5,105 L222.5,105 A3.75,3.75 0 0 1 225,107.5 L232,127.2969 L520.5,127.2969 A2.5,2.5 0 0 1 523,129.7969 L523,335.5 A2.5,2.5 0 0 1 520.5,338 L195.5,338 A2.5,2.5 0 0 1 193,335.5 L193,107.5 A2.5,2.5 0 0 1 195.5,105 " fill="none" style="stroke:#000000;stroke-width:1.5;"/><line style="stroke:#000000;stroke-width:1.5;" x1="193" x2="232" y1="127.2969" y2="127.2969"/><text fill="#000000" font-family="sans-serif" font-size="14" font-weight="bold" lengthAdjust="spacing" textLength="26" x="197" y="119.9951">net</text></g><!--cluster sourceforge--><g id="cluster_sourceforge"><path d="M219.5,148 L318.5,148 A3.75,3.75 0 0 1 321,150.5 L328,170.2969 L496.5,170.2969 A2.5,2.5 0 0 1 499,172.7969 L499,311.5 A2.5,2.5 0 0 1 496.5,314 L219.5,314 A2.5,2.5 0 0 1 217,311.5 L217,150.5 A2.5,2.5 0 0 1 219.5,148 " fill="none" style="stroke:#000000;stroke-width:1.5;"/><line style="stroke:#000000;stroke-width:1.5;" x1="217" x2="328" y1="170.2969" y2="170.2969"/><text fill="#000000" font-family="sans-serif" font-size="14" font-weight="bold" lengthAdjust="spacing" textLength="98" x="221" y="162.9951">sourceforge</text></g><!--cluster plantuml--><g id="cluster_plantuml"><path d="M243.5,191 L311.5,191 A3.75,3.75 0 0 1 314,193.5 L321,213.2969 L472.5,213.2969 A2.5,2.5 0 0 1 475,215.7969 L475,287.5 A2.5,2.5 0 0 1 472.5,290 L243.5,290 A2.5,2.5 0 0 1 241,287.5 L241,193.5 A2.5,2.5 0 0 1 243.5,191 " fill="none" style="stroke:#000000;stroke-width:1.5;"/><line style="stroke:#000000;stroke-width:1.5;" x1="241" x2="321" y1="213.2969" y2="213.2969"/><text fill="#000000" font-family="sans-serif" font-size="14" font-weight="bold" lengthAdjust="spacing" textLength="67" x="245" y="205.9951">plantuml</text></g><!--class Object--><g id="elem_Object"><rect fill="#F1F1F1" height="48" id="Object" rx="2.5" ry="2.5" style="stroke:#181818;stroke-width:0.5;" width="77" x="72.5" y="41"/><ellipse cx="87.5" cy="57" fill="#ADD1B2" rx="11" ry="11" style="stroke:#181818;stroke-width:1.0;"/><path d="M90.4688,62.6406 Q89.8906,62.9375 89.25,63.0781 Q88.6094,63.2344 87.9063,63.2344 Q85.4063,63.2344 84.0781,61.5938 Q82.7656,59.9375 82.7656,56.8125 Q82.7656,53.6875 84.0781,52.0313 Q85.4063,50.375 87.9063,50.375 Q88.6094,50.375 89.25,50.5313 Q89.9063,50.6875 90.4688,50.9844 L90.4688,53.7031 Q89.8438,53.125 89.25,52.8594 Q88.6563,52.5781 88.0313,52.5781 Q86.6875,52.5781 86,53.6563 Q85.3125,54.7188 85.3125,56.8125 Q85.3125,58.9063 86,59.9844 Q86.6875,61.0469 88.0313,61.0469 Q88.6563,61.0469 89.25,60.7813 Q89.8438,60.5 90.4688,59.9219 L90.4688,62.6406 Z " fill="#000000"/><text fill="#000000" font-family="sans-serif" font-size="14" lengthAdjust="spacing" textLength="45" x="101.5" y="61.8467">Object</text><line style="stroke:#181818;stroke-width:0.5;" x1="73.5" x2="148.5" y1="73" y2="73"/><line style="stroke:#181818;stroke-width:0.5;" x1="73.5" x2="148.5" y1="81" y2="81"/></g><!--class ArrayList--><g id="elem_ArrayList"><rect fill="#F1F1F1" height="48" id="ArrayList" rx="2.5" ry="2.5" style="stroke:#181818;stroke-width:0.5;" width="89" x="64.5" y="226"/><ellipse cx="79.5" cy="242" fill="#ADD1B2" rx="11" ry="11" style="stroke:#181818;stroke-width:1.0;"/><path d="M82.4688,247.6406 Q81.8906,247.9375 81.25,248.0781 Q80.6094,248.2344 79.9063,248.2344 Q77.4063,248.2344 76.0781,246.5938 Q74.7656,244.9375 74.7656,241.8125 Q74.7656,238.6875 76.0781,237.0313 Q77.4063,235.375 79.9063,235.375 Q80.6094,235.375 81.25,235.5313 Q81.9063,235.6875 82.4688,235.9844 L82.4688,238.7031 Q81.8438,238.125 81.25,237.8594 Q80.6563,237.5781 80.0313,237.5781 Q78.6875,237.5781 78,238.6563 Q77.3125,239.7188 77.3125,241.8125 Q77.3125,243.9063 78,244.9844 Q78.6875,246.0469 80.0313,246.0469 Q80.6563,246.0469 81.25,245.7813 Q81.8438,245.5 82.4688,244.9219 L82.4688,247.6406 Z " fill="#000000"/><text fill="#000000" font-family="sans-serif" font-size="14" lengthAdjust="spacing" textLength="57" x="93.5" y="246.8467">ArrayList</text><line style="stroke:#181818;stroke-width:0.5;" x1="65.5" x2="152.5" y1="258" y2="258"/><line style="stroke:#181818;stroke-width:0.5;" x1="65.5" x2="152.5" y1="266" y2="266"/></g><!--class Demo1--><g id="elem_Demo1"><rect fill="#F1F1F1" height="48" id="Demo1" rx="2.5" ry="2.5" style="stroke:#181818;stroke-width:0.5;" width="83" x="257.5" y="226"/><ellipse cx="272.5" cy="242" fill="#ADD1B2" rx="11" ry="11" style="stroke:#181818;stroke-width:1.0;"/><path d="M275.4688,247.6406 Q274.8906,247.9375 274.25,248.0781 Q273.6094,248.2344 272.9063,248.2344 Q270.4063,248.2344 269.0781,246.5938 Q267.7656,244.9375 267.7656,241.8125 Q267.7656,238.6875 269.0781,237.0313 Q270.4063,235.375 272.9063,235.375 Q273.6094,235.375 274.25,235.5313 Q274.9063,235.6875 275.4688,235.9844 L275.4688,238.7031 Q274.8438,238.125 274.25,237.8594 Q273.6563,237.5781 273.0313,237.5781 Q271.6875,237.5781 271,238.6563 Q270.3125,239.7188 270.3125,241.8125 Q270.3125,243.9063 271,244.9844 Q271.6875,246.0469 273.0313,246.0469 Q273.6563,246.0469 274.25,245.7813 Q274.8438,245.5 275.4688,244.9219 L275.4688,247.6406 Z " fill="#000000"/><text fill="#000000" font-family="sans-serif" font-size="14" lengthAdjust="spacing" textLength="51" x="286.5" y="246.8467">Demo1</text><line style="stroke:#181818;stroke-width:0.5;" x1="258.5" x2="339.5" y1="258" y2="258"/><line style="stroke:#181818;stroke-width:0.5;" x1="258.5" x2="339.5" y1="266" y2="266"/></g><!--class Demo2--><g id="elem_Demo2"><rect fill="#F1F1F1" height="48" id="Demo2" rx="2.5" ry="2.5" style="stroke:#181818;stroke-width:0.5;" width="83" x="375.5" y="226"/><ellipse cx="390.5" cy="242" fill="#ADD1B2" rx="11" ry="11" style="stroke:#181818;stroke-width:1.0;"/><path d="M393.4688,247.6406 Q392.8906,247.9375 392.25,248.0781 Q391.6094,248.2344 390.9063,248.2344 Q388.4063,248.2344 387.0781,246.5938 Q385.7656,244.9375 385.7656,241.8125 Q385.7656,238.6875 387.0781,237.0313 Q388.4063,235.375 390.9063,235.375 Q391.6094,235.375 392.25,235.5313 Q392.9063,235.6875 393.4688,235.9844 L393.4688,238.7031 Q392.8438,238.125 392.25,237.8594 Q391.6563,237.5781 391.0313,237.5781 Q389.6875,237.5781 389,238.6563 Q388.3125,239.7188 388.3125,241.8125 Q388.3125,243.9063 389,244.9844 Q389.6875,246.0469 391.0313,246.0469 Q391.6563,246.0469 392.25,245.7813 Q392.8438,245.5 393.4688,244.9219 L393.4688,247.6406 Z " fill="#000000"/><text fill="#000000" font-family="sans-serif" font-size="14" lengthAdjust="spacing" textLength="51" x="404.5" y="246.8467">Demo2</text><line style="stroke:#181818;stroke-width:0.5;" x1="376.5" x2="457.5" y1="258" y2="258"/><line style="stroke:#181818;stroke-width:0.5;" x1="376.5" x2="457.5" y1="266" y2="266"/></g><!--reverse link Object to ArrayList--><g id="link_Object_ArrayList"><path codeLine="2" d="M110.55,107.1789 C110.16,142.2789 109.64,190.56 109.25,225.72 " fill="none" id="Object-backto-ArrayList" style="stroke:#181818;stroke-width:1.0;"/><polygon fill="none" points="110.75,89.18,104.5504,107.1122,116.5496,107.2456,110.75,89.18" style="stroke:#181818;stroke-width:1.0;"/></g><!--reverse link Object to Demo1--><g id="link_Object_Demo1"><path codeLine="6" d="M165.3326,93.0381 C172.0426,96.8881 163.13,92.28 169,97 C217.04,135.61 260.96,193.75 283.38,225.78 " fill="none" id="Object-backto-Demo1" style="stroke:#181818;stroke-width:1.0;"/><polygon fill="none" points="149.72,84.08,162.3466,98.2423,168.3186,87.8338,149.72,84.08" style="stroke:#181818;stroke-width:1.0;"/></g><!--reverse link Demo1 to Demo2--><g id="link_Demo1_Demo2"><path codeLine="7" d="M352.95,250 C364.43,250 363.92,250 375.41,250 " fill="none" id="Demo1-backto-Demo2" style="stroke:#181818;stroke-width:1.0;"/><polygon fill="#181818" points="340.95,250,346.95,254,352.95,250,346.95,246,340.95,250" style="stroke:#181818;stroke-width:1.0;"/></g><!--SRC=[AqXCpavCJrLGSiv9B2xEJ5Pmpi_9IKqkoSpFArPIK7O10uLgBWK5_wGieBY2JOskhe9ZKL5YfKzcSGbNBHTN0TI8lDGIlUByqgBarBJyelHKlOASnBoIqjmS3DqkgRdvXa0nCAsW1H4muge50000]--></g></svg>