<?xml version="1.0" encoding="us-ascii" standalone="no"?><svg xmlns="http://www.w3.org/2000/svg" xmlns:xlink="http://www.w3.org/1999/xlink" contentStyleType="text/css" height="220px" preserveAspectRatio="none" style="width:114px;height:220px;background:#FFFFFF;" version="1.1" viewBox="0 0 114 220" width="114px" zoomAndPan="magnify"><defs/><g><!--class Person--><g id="elem_Person"><rect codeLine="1" fill="#F1F1F1" height="80.5938" id="Person" rx="2.5" ry="2.5" style="stroke:#181818;stroke-width:0.5;" width="100" x="7" y="7"/><ellipse cx="30.55" cy="23" fill="#ADD1B2" rx="11" ry="11" style="stroke:#181818;stroke-width:1.0;"/><path d="M33.5188,28.6406 Q32.9406,28.9375 32.3,29.0781 Q31.6594,29.2344 30.9563,29.2344 Q28.4563,29.2344 27.1281,27.5938 Q25.8156,25.9375 25.8156,22.8125 Q25.8156,19.6875 27.1281,18.0313 Q28.4563,16.375 30.9563,16.375 Q31.6594,16.375 32.3,16.5313 Q32.9563,16.6875 33.5188,16.9844 L33.5188,19.7031 Q32.8938,19.125 32.3,18.8594 Q31.7063,18.5781 31.0813,18.5781 Q29.7375,18.5781 29.05,19.6563 Q28.3625,20.7188 28.3625,22.8125 Q28.3625,24.9063 29.05,25.9844 Q29.7375,27.0469 31.0813,27.0469 Q31.7063,27.0469 32.3,26.7813 Q32.8938,26.5 33.5188,25.9219 L33.5188,28.6406 Z " fill="#000000"/><text fill="#000000" font-family="sans-serif" font-size="14" lengthAdjust="spacing" textLength="49" x="46.45" y="27.8467">Person</text><line style="stroke:#181818;stroke-width:0.5;" x1="8" x2="106" y1="39" y2="39"/><text fill="#000000" font-family="sans-serif" font-size="14" lengthAdjust="spacing" textLength="54" x="13" y="55.9951">&#8859; id: int</text><text fill="#000000" font-family="sans-serif" font-size="14" lengthAdjust="spacing" textLength="88" x="13" y="72.292">name: String</text><line style="stroke:#181818;stroke-width:0.5;" x1="8" x2="106" y1="79.5938" y2="79.5938"/></g><!--class Job--><g id="elem_Job"><rect fill="#F1F1F1" height="48" id="Job" rx="2.5" ry="2.5" style="stroke:#181818;stroke-width:0.5;" width="53" x="30.5" y="165"/><ellipse cx="45.5" cy="181" fill="#ADD1B2" rx="11" ry="11" style="stroke:#181818;stroke-width:1.0;"/><path d="M48.4688,186.6406 Q47.8906,186.9375 47.25,187.0781 Q46.6094,187.2344 45.9063,187.2344 Q43.4063,187.2344 42.0781,185.5938 Q40.7656,183.9375 40.7656,180.8125 Q40.7656,177.6875 42.0781,176.0313 Q43.4063,174.375 45.9063,174.375 Q46.6094,174.375 47.25,174.5313 Q47.9063,174.6875 48.4688,174.9844 L48.4688,177.7031 Q47.8438,177.125 47.25,176.8594 Q46.6563,176.5781 46.0313,176.5781 Q44.6875,176.5781 44,177.6563 Q43.3125,178.7188 43.3125,180.8125 Q43.3125,182.9063 44,183.9844 Q44.6875,185.0469 46.0313,185.0469 Q46.6563,185.0469 47.25,184.7813 Q47.8438,184.5 48.4688,183.9219 L48.4688,186.6406 Z " fill="#000000"/><text fill="#000000" font-family="sans-serif" font-size="14" lengthAdjust="spacing" textLength="21" x="59.5" y="185.8467">Job</text><line style="stroke:#181818;stroke-width:0.5;" x1="31.5" x2="82.5" y1="197" y2="197"/><line style="stroke:#181818;stroke-width:0.5;" x1="31.5" x2="82.5" y1="205" y2="205"/></g><!--link Person to Job--><g id="link_Person_Job"><path codeLine="5" d="M57,88.1 C57,112.91 57,144.02 57,164.88 " fill="none" id="Person-Job" style="stroke:#181818;stroke-width:1.0;stroke-dasharray:7.0,7.0;"/><text fill="#000000" font-family="sans-serif" font-size="13" lengthAdjust="spacing" textLength="29" x="58" y="131.0669">work</text><text fill="#000000" font-family="sans-serif" font-size="13" lengthAdjust="spacing" textLength="23" x="27.9328" y="107.5735">0..*</text><text fill="#000000" font-family="sans-serif" font-size="13" lengthAdjust="spacing" textLength="23" x="26.5406" y="153.8613">0..*</text></g><!--SRC=[Iyv9B2vM24WjAixFKwZcKdZKDLiXCyLA8JElX4iXBp4trKeXkAGeCo-TgvOBgah9G4zFIq59GKyFplJAJrAmKYZFBye60000]--></g></svg>